<mxfile host="Electron" modified="2023-12-10T21:00:15.666Z" agent="Mozilla/5.0 (Windows NT 10.0; Win64; x64) AppleWebKit/537.36 (KHTML, like Gecko) draw.io/21.8.2 Chrome/114.0.5735.289 Electron/25.8.1 Safari/537.36" etag="DNM2zQaQ3vIOf-onnxYx" version="21.8.2" type="device" pages="6">
  <diagram name="Edit Account " id="Page-3">
    <mxGraphModel dx="1178" dy="628" grid="1" gridSize="10" guides="1" tooltips="1" connect="1" arrows="1" fold="1" page="1" pageScale="1" pageWidth="850" pageHeight="1100" math="0" shadow="0">
      <root>
        <mxCell id="0" />
        <mxCell id="1" parent="0" />
        <UserObject label="" tags="Background" id="2">
          <mxCell style="vsdxID=1000;fillColor=#5b9bd5;gradientColor=none;shape=stencil(nZBLDoAgDERP0z3SIyjew0SURgSD+Lu9kMZoXLhwN9O+tukAlrNpJg1SzDH4QW/URgNYgZTkjA4UkwJUgGXng+6DX1zLfmoymdXo17xh5zmRJ6Q42BWCfc2oJfdAr+Yv+AP9Cb7OJ3H/2JG1HNGz/84klThPVCc=);strokeColor=#ffffff;points=[[0.5,1.71,0],[0.5,2.43,0],[0.5,3.14,0],[0.5,3.86,0],[0.5,4.57,0],[0.5,5.29,0],[0.5,6,0],[0.5,6.71,0],[0.5,7.43,0],[0.5,8.14,0],[0.5,8.86,0],[0.5,9.57,0],[0.5,10.29,0],[0.5,11,0],[0.5,11,0],[0.5,11,0],[0.5,11,0],[0.5,11,0],[0.5,11,0],[0.5,11,0],[0.5,11,0],[0.5,11,0],[0.5,11,0],[0.5,11,0],[0.5,11,0],[0.5,11,0],[0.5,11,0],[0.5,11,0],[0.5,11,0],[0.5,11,0],[0.5,11,0],[0.5,11,0],[0.5,11,0],[0.5,11,0],[0.5,11,0],[0.5,11,0],[0.5,11,0],[0.5,11,0],[0.5,11,0],[0.5,11,0],[0.5,11,0],[0.5,11,0],[0.5,11,0],[0.5,11,0],[0.5,11,0],[0.5,11,0],[0.5,11,0],[0.5,11,0],[0.5,11,0],[0.5,11,0],[0.5,11,0],[0.5,11,0],[0.5,11,0],[0.5,11,0],[0.5,11,0],[0.5,11,0],[0.5,11,0],[0.5,11,0],[0.5,11,0],[0.5,11,0],[0.5,11,0],[0.5,11,0],[0.5,11,0],[0.5,11,0],[0.5,11,0],[0.5,11,0],[0.5,11,0],[0.5,11,0],[0.5,11,0],[0.5,11,0],[0.5,11,0],[0.5,11,0],[0.5,11,0],[0.5,11,0],[0.5,11,0],[0.5,11,0],[0.5,11,0],[0.5,11,0],[0.5,11,0],[0.5,11,0],[0.5,11,0],[0.5,11,0],[0.5,11,0],[0.5,11,0],[0.5,11,0],[0.5,11,0],[0.5,11,0],[0.5,11,0],[0.5,11,0],[0.5,11,0],[0.5,11,0],[0.5,11,0],[0.5,11,0],[0.5,11,0],[0.5,11,0],[0.5,11,0],[0.5,11,0],[0.5,11,0],[0.5,11,0],[0.5,11,0]];labelBackgroundColor=none;rounded=0;html=1;whiteSpace=wrap;" parent="1" vertex="1">
            <mxGeometry x="152" y="185" width="76" height="35" as="geometry" />
          </mxCell>
        </UserObject>
        <mxCell id="3" style="vsdxID=1001;fillColor=#5b9bd5;gradientColor=none;shape=stencil(nZBLDoAgDERP0z3SIyjew0SURgSD+Lu9kMZoXLhwN9O+tukAlrNpJg1SzDH4QW/URgNYgZTkjA4UkwJUgGXng+6DX1zLfmoymdXo17xh5zmRJ6Q42BWCfc2oJfdAr+Yv+AP9Cb7OJ3H/2JG1HNGz/84klThPVCc=);strokeColor=#ffffff;points=[[0.5,1.71,0],[0.5,2.43,0],[0.5,3.14,0],[0.5,3.86,0],[0.5,4.57,0],[0.5,5.29,0],[0.5,6,0],[0.5,6.71,0],[0.5,7.43,0],[0.5,8.14,0],[0.5,8.86,0],[0.5,9.57,0],[0.5,10.29,0],[0.5,11,0],[0.5,11,0],[0.5,11,0],[0.5,11,0],[0.5,11,0],[0.5,11,0],[0.5,11,0],[0.5,11,0],[0.5,11,0],[0.5,11,0],[0.5,11,0],[0.5,11,0],[0.5,11,0],[0.5,11,0],[0.5,11,0],[0.5,11,0],[0.5,11,0],[0.5,11,0],[0.5,11,0],[0.5,11,0],[0.5,11,0],[0.5,11,0],[0.5,11,0],[0.5,11,0],[0.5,11,0],[0.5,11,0],[0.5,11,0],[0.5,11,0],[0.5,11,0],[0.5,11,0],[0.5,11,0],[0.5,11,0],[0.5,11,0],[0.5,11,0],[0.5,11,0],[0.5,11,0],[0.5,11,0],[0.5,11,0],[0.5,11,0],[0.5,11,0],[0.5,11,0],[0.5,11,0],[0.5,11,0],[0.5,11,0],[0.5,11,0],[0.5,11,0],[0.5,11,0],[0.5,11,0],[0.5,11,0],[0.5,11,0],[0.5,11,0],[0.5,11,0],[0.5,11,0],[0.5,11,0],[0.5,11,0],[0.5,11,0],[0.5,11,0],[0.5,11,0],[0.5,11,0],[0.5,11,0],[0.5,11,0],[0.5,11,0],[0.5,11,0],[0.5,11,0],[0.5,11,0],[0.5,11,0],[0.5,11,0],[0.5,11,0],[0.5,11,0],[0.5,11,0],[0.5,11,0],[0.5,11,0],[0.5,11,0],[0.5,11,0],[0.5,11,0],[0.5,11,0],[0.5,11,0],[0.5,11,0],[0.5,11,0],[0.5,11,0],[0.5,11,0],[0.5,11,0],[0.5,11,0],[0.5,11,0],[0.5,11,0],[0.5,11,0],[0.5,11,0]];labelBackgroundColor=none;rounded=0;html=1;whiteSpace=wrap;" parent="2" vertex="1">
          <mxGeometry width="76" height="35" as="geometry" />
        </mxCell>
        <mxCell id="4" style="vsdxID=1002;fillColor=#5b9bd5;gradientColor=none;shape=stencil(tZTNDoIwDICfZkeSsQXFM+J7LDJgcTJSpuDbu6USgQhBord2/dr1LyU8aUpRS8JoY8FcZKsyWxJ+JIypqpSgrJMITwlPcgOyAHOrMtRr4UkvXc3dR+jQj1HvwugD1ZCifkJWq2qejdaj+wV0K8kXyHCMsmgePaxH++asy2B9XfFmdGkE8ReTjbazux+FXV7E8dLyKTtEBZydCSabAH3HUO1GrZ4Eol0gOtUEYKywylSj7dMCChm4T4Jci+Llh6amlbIePG9O63N9f0nLCe/TkCut8bIM7dNT4p7wDPH0CQ==);strokeColor=#ffffff;points=[[0.5,1.71,0],[0.5,2.43,0],[0.5,3.14,0],[0.5,3.86,0],[0.5,4.57,0],[0.5,5.29,0],[0.5,6,0],[0.5,6.71,0],[0.5,7.43,0],[0.5,8.14,0],[0.5,8.86,0],[0.5,9.57,0],[0.5,10.29,0],[0.5,11,0],[0.5,11,0],[0.5,11,0],[0.5,11,0],[0.5,11,0],[0.5,11,0],[0.5,11,0],[0.5,11,0],[0.5,11,0],[0.5,11,0],[0.5,11,0],[0.5,11,0],[0.5,11,0],[0.5,11,0],[0.5,11,0],[0.5,11,0],[0.5,11,0],[0.5,11,0],[0.5,11,0],[0.5,11,0],[0.5,11,0],[0.5,11,0],[0.5,11,0],[0.5,11,0],[0.5,11,0],[0.5,11,0],[0.5,11,0],[0.5,11,0],[0.5,11,0],[0.5,11,0],[0.5,11,0],[0.5,11,0],[0.5,11,0],[0.5,11,0],[0.5,11,0],[0.5,11,0],[0.5,11,0],[0.5,11,0],[0.5,11,0],[0.5,11,0],[0.5,11,0],[0.5,11,0],[0.5,11,0],[0.5,11,0],[0.5,11,0],[0.5,11,0],[0.5,11,0],[0.5,11,0],[0.5,11,0],[0.5,11,0],[0.5,11,0],[0.5,11,0],[0.5,11,0],[0.5,11,0],[0.5,11,0],[0.5,11,0],[0.5,11,0],[0.5,11,0],[0.5,11,0],[0.5,11,0],[0.5,11,0],[0.5,11,0],[0.5,11,0],[0.5,11,0],[0.5,11,0],[0.5,11,0],[0.5,11,0],[0.5,11,0],[0.5,11,0],[0.5,11,0],[0.5,11,0],[0.5,11,0],[0.5,11,0],[0.5,11,0],[0.5,11,0],[0.5,11,0],[0.5,11,0],[0.5,11,0],[0.5,11,0],[0.5,11,0],[0.5,11,0],[0.5,11,0],[0.5,11,0],[0.5,11,0],[0.5,11,0],[0.5,11,0],[0.5,11,0]];labelBackgroundColor=none;rounded=0;html=1;whiteSpace=wrap;" parent="2" vertex="1">
          <mxGeometry x="25" y="-56" width="25" height="50" as="geometry" />
        </mxCell>
        <mxCell id="5" value="" style="vsdxID=1004;edgeStyle=none;dashed=1;startArrow=none;endArrow=none;startSize=5;endSize=5;strokeColor=#5088bb;spacingTop=0;spacingBottom=0;spacingLeft=0;spacingRight=0;verticalAlign=middle;html=1;labelBackgroundColor=#ffffff;rounded=0;" parent="2" edge="1">
          <mxGeometry relative="1" as="geometry">
            <Array as="points" />
            <mxPoint x="38" y="35" as="sourcePoint" />
            <mxPoint x="38" y="565" as="targetPoint" />
          </mxGeometry>
        </mxCell>
        <mxCell id="6" value="&lt;div style=&quot;font-size: 1px&quot;&gt;&lt;font style=&quot;font-size:16.93px;font-family:Calibri;color:#ffffff;direction:ltr;letter-spacing:0px;line-height:120%;opacity:1&quot;&gt;&lt;b&gt;User&lt;br/&gt;&lt;/b&gt;&lt;/font&gt;&lt;/div&gt;" style="text;vsdxID=1000;fillColor=none;gradientColor=none;strokeColor=none;points=[[0.5,1.71,0],[0.5,2.43,0],[0.5,3.14,0],[0.5,3.86,0],[0.5,4.57,0],[0.5,5.29,0],[0.5,6,0],[0.5,6.71,0],[0.5,7.43,0],[0.5,8.14,0],[0.5,8.86,0],[0.5,9.57,0],[0.5,10.29,0],[0.5,11,0],[0.5,11,0],[0.5,11,0],[0.5,11,0],[0.5,11,0],[0.5,11,0],[0.5,11,0],[0.5,11,0],[0.5,11,0],[0.5,11,0],[0.5,11,0],[0.5,11,0],[0.5,11,0],[0.5,11,0],[0.5,11,0],[0.5,11,0],[0.5,11,0],[0.5,11,0],[0.5,11,0],[0.5,11,0],[0.5,11,0],[0.5,11,0],[0.5,11,0],[0.5,11,0],[0.5,11,0],[0.5,11,0],[0.5,11,0],[0.5,11,0],[0.5,11,0],[0.5,11,0],[0.5,11,0],[0.5,11,0],[0.5,11,0],[0.5,11,0],[0.5,11,0],[0.5,11,0],[0.5,11,0],[0.5,11,0],[0.5,11,0],[0.5,11,0],[0.5,11,0],[0.5,11,0],[0.5,11,0],[0.5,11,0],[0.5,11,0],[0.5,11,0],[0.5,11,0],[0.5,11,0],[0.5,11,0],[0.5,11,0],[0.5,11,0],[0.5,11,0],[0.5,11,0],[0.5,11,0],[0.5,11,0],[0.5,11,0],[0.5,11,0],[0.5,11,0],[0.5,11,0],[0.5,11,0],[0.5,11,0],[0.5,11,0],[0.5,11,0],[0.5,11,0],[0.5,11,0],[0.5,11,0],[0.5,11,0],[0.5,11,0],[0.5,11,0],[0.5,11,0],[0.5,11,0],[0.5,11,0],[0.5,11,0],[0.5,11,0],[0.5,11,0],[0.5,11,0],[0.5,11,0],[0.5,11,0],[0.5,11,0],[0.5,11,0],[0.5,11,0],[0.5,11,0],[0.5,11,0],[0.5,11,0],[0.5,11,0],[0.5,11,0],[0.5,11,0]];labelBackgroundColor=none;rounded=0;html=1;whiteSpace=wrap;verticalAlign=middle;align=center;overflow=width;;html=1;" parent="2" vertex="1">
          <mxGeometry y="-0.56" width="76.2" height="35.56" as="geometry" />
        </mxCell>
        <UserObject label="" tags="Background" id="7">
          <mxCell style="vsdxID=1005;fillColor=#5b9bd5;gradientColor=none;shape=stencil(nZBLDoAgDERP0z3SIyjew0SURgSD+Lu9kMZoXLhwN9O+tukAlrNpJg1SzDH4QW/URgNYgZTkjA4UkwJUgGXng+6DX1zLfmoymdXo17xh5zmRJ6Q42BWCfc2oJfdAr+Yv+AP9Cb7OJ3H/2JG1HNGz/84klThPVCc=);strokeColor=#ffffff;points=[[0.5,1.71,0],[0.5,2.43,0],[0.5,3.14,0],[0.5,3.86,0],[0.5,4.57,0],[0.5,5.29,0],[0.5,6,0],[0.5,6.71,0],[0.5,7.43,0],[0.5,8.14,0],[0.5,8.86,0],[0.5,9.57,0],[0.5,10.29,0],[0.5,11,0],[0.5,11,0],[0.5,11,0],[0.5,11,0],[0.5,11,0],[0.5,11,0],[0.5,11,0],[0.5,11,0],[0.5,11,0],[0.5,11,0],[0.5,11,0],[0.5,11,0],[0.5,11,0],[0.5,11,0],[0.5,11,0],[0.5,11,0],[0.5,11,0],[0.5,11,0],[0.5,11,0],[0.5,11,0],[0.5,11,0],[0.5,11,0],[0.5,11,0],[0.5,11,0],[0.5,11,0],[0.5,11,0],[0.5,11,0],[0.5,11,0],[0.5,11,0],[0.5,11,0],[0.5,11,0],[0.5,11,0],[0.5,11,0],[0.5,11,0],[0.5,11,0],[0.5,11,0],[0.5,11,0],[0.5,11,0],[0.5,11,0],[0.5,11,0],[0.5,11,0],[0.5,11,0],[0.5,11,0],[0.5,11,0],[0.5,11,0],[0.5,11,0],[0.5,11,0],[0.5,11,0],[0.5,11,0],[0.5,11,0],[0.5,11,0],[0.5,11,0],[0.5,11,0],[0.5,11,0],[0.5,11,0],[0.5,11,0],[0.5,11,0],[0.5,11,0],[0.5,11,0],[0.5,11,0],[0.5,11,0],[0.5,11,0],[0.5,11,0],[0.5,11,0],[0.5,11,0],[0.5,11,0],[0.5,11,0],[0.5,11,0],[0.5,11,0],[0.5,11,0],[0.5,11,0],[0.5,11,0],[0.5,11,0],[0.5,11,0],[0.5,11,0],[0.5,11,0],[0.5,11,0],[0.5,11,0],[0.5,11,0],[0.5,11,0],[0.5,11,0],[0.5,11,0],[0.5,11,0],[0.5,11,0],[0.5,11,0],[0.5,11,0],[0.5,11,0]];labelBackgroundColor=none;rounded=0;html=1;whiteSpace=wrap;" parent="1" vertex="1">
            <mxGeometry x="787" y="185" width="101" height="35" as="geometry" />
          </mxCell>
        </UserObject>
        <mxCell id="8" style="vsdxID=1006;fillColor=#5b9bd5;gradientColor=none;shape=stencil(nZBLDoAgDERP0z3SIyjew0SURgSD+Lu9kMZoXLhwN9O+tukAlrNpJg1SzDH4QW/URgNYgZTkjA4UkwJUgGXng+6DX1zLfmoymdXo17xh5zmRJ6Q42BWCfc2oJfdAr+Yv+AP9Cb7OJ3H/2JG1HNGz/84klThPVCc=);strokeColor=#ffffff;points=[[0.5,1.71,0],[0.5,2.43,0],[0.5,3.14,0],[0.5,3.86,0],[0.5,4.57,0],[0.5,5.29,0],[0.5,6,0],[0.5,6.71,0],[0.5,7.43,0],[0.5,8.14,0],[0.5,8.86,0],[0.5,9.57,0],[0.5,10.29,0],[0.5,11,0],[0.5,11,0],[0.5,11,0],[0.5,11,0],[0.5,11,0],[0.5,11,0],[0.5,11,0],[0.5,11,0],[0.5,11,0],[0.5,11,0],[0.5,11,0],[0.5,11,0],[0.5,11,0],[0.5,11,0],[0.5,11,0],[0.5,11,0],[0.5,11,0],[0.5,11,0],[0.5,11,0],[0.5,11,0],[0.5,11,0],[0.5,11,0],[0.5,11,0],[0.5,11,0],[0.5,11,0],[0.5,11,0],[0.5,11,0],[0.5,11,0],[0.5,11,0],[0.5,11,0],[0.5,11,0],[0.5,11,0],[0.5,11,0],[0.5,11,0],[0.5,11,0],[0.5,11,0],[0.5,11,0],[0.5,11,0],[0.5,11,0],[0.5,11,0],[0.5,11,0],[0.5,11,0],[0.5,11,0],[0.5,11,0],[0.5,11,0],[0.5,11,0],[0.5,11,0],[0.5,11,0],[0.5,11,0],[0.5,11,0],[0.5,11,0],[0.5,11,0],[0.5,11,0],[0.5,11,0],[0.5,11,0],[0.5,11,0],[0.5,11,0],[0.5,11,0],[0.5,11,0],[0.5,11,0],[0.5,11,0],[0.5,11,0],[0.5,11,0],[0.5,11,0],[0.5,11,0],[0.5,11,0],[0.5,11,0],[0.5,11,0],[0.5,11,0],[0.5,11,0],[0.5,11,0],[0.5,11,0],[0.5,11,0],[0.5,11,0],[0.5,11,0],[0.5,11,0],[0.5,11,0],[0.5,11,0],[0.5,11,0],[0.5,11,0],[0.5,11,0],[0.5,11,0],[0.5,11,0],[0.5,11,0],[0.5,11,0],[0.5,11,0],[0.5,11,0]];labelBackgroundColor=none;rounded=0;html=1;whiteSpace=wrap;" parent="7" vertex="1">
          <mxGeometry x="12" width="76" height="35" as="geometry" />
        </mxCell>
        <mxCell id="9" style="vsdxID=1007;fillColor=#5b9bd5;gradientColor=none;shape=stencil(1VFBDsIgEHwNRxKE+IJa/7GxSyFiaRa07e+FLImtB+/eZnZmdgkjTJcczCi0SpniHRc/ZCfMRWjtJ4fkc0HC9MJ0NhKOFJ/TwHyG6qzoEV91w8q5s6oRrTamJ8X8yl6gW9GoeZuVtgP9vUitElafJMUM2cfpEA1AI8pyRNoAYwuylBbEeTf+h2cV8Plm60Pglvb6dy1lxJWa/g0=);strokeColor=#ffffff;points=[[0.5,1.71,0],[0.5,2.43,0],[0.5,3.14,0],[0.5,3.86,0],[0.5,4.57,0],[0.5,5.29,0],[0.5,6,0],[0.5,6.71,0],[0.5,7.43,0],[0.5,8.14,0],[0.5,8.86,0],[0.5,9.57,0],[0.5,10.29,0],[0.5,11,0],[0.5,11,0],[0.5,11,0],[0.5,11,0],[0.5,11,0],[0.5,11,0],[0.5,11,0],[0.5,11,0],[0.5,11,0],[0.5,11,0],[0.5,11,0],[0.5,11,0],[0.5,11,0],[0.5,11,0],[0.5,11,0],[0.5,11,0],[0.5,11,0],[0.5,11,0],[0.5,11,0],[0.5,11,0],[0.5,11,0],[0.5,11,0],[0.5,11,0],[0.5,11,0],[0.5,11,0],[0.5,11,0],[0.5,11,0],[0.5,11,0],[0.5,11,0],[0.5,11,0],[0.5,11,0],[0.5,11,0],[0.5,11,0],[0.5,11,0],[0.5,11,0],[0.5,11,0],[0.5,11,0],[0.5,11,0],[0.5,11,0],[0.5,11,0],[0.5,11,0],[0.5,11,0],[0.5,11,0],[0.5,11,0],[0.5,11,0],[0.5,11,0],[0.5,11,0],[0.5,11,0],[0.5,11,0],[0.5,11,0],[0.5,11,0],[0.5,11,0],[0.5,11,0],[0.5,11,0],[0.5,11,0],[0.5,11,0],[0.5,11,0],[0.5,11,0],[0.5,11,0],[0.5,11,0],[0.5,11,0],[0.5,11,0],[0.5,11,0],[0.5,11,0],[0.5,11,0],[0.5,11,0],[0.5,11,0],[0.5,11,0],[0.5,11,0],[0.5,11,0],[0.5,11,0],[0.5,11,0],[0.5,11,0],[0.5,11,0],[0.5,11,0],[0.5,11,0],[0.5,11,0],[0.5,11,0],[0.5,11,0],[0.5,11,0],[0.5,11,0],[0.5,11,0],[0.5,11,0],[0.5,11,0],[0.5,11,0],[0.5,11,0],[0.5,11,0]];labelBackgroundColor=none;rounded=0;html=1;whiteSpace=wrap;" parent="7" vertex="1">
          <mxGeometry x="38" y="-6" width="25" height="1" as="geometry" />
        </mxCell>
        <mxCell id="10" value="" style="vsdxID=1009;edgeStyle=none;dashed=1;startArrow=none;endArrow=none;startSize=5;endSize=5;strokeColor=#5088bb;spacingTop=0;spacingBottom=0;spacingLeft=0;spacingRight=0;verticalAlign=middle;html=1;labelBackgroundColor=#ffffff;rounded=0;" parent="7" edge="1">
          <mxGeometry relative="1" as="geometry">
            <Array as="points" />
            <mxPoint x="50" y="35" as="sourcePoint" />
            <mxPoint x="50" y="565" as="targetPoint" />
          </mxGeometry>
        </mxCell>
        <mxCell id="11" value="&lt;div style=&quot;font-size: 1px&quot;&gt;&lt;font style=&quot;font-size:16.93px;font-family:Calibri;color:#ffffff;direction:ltr;letter-spacing:0px;line-height:120%;opacity:1&quot;&gt;&lt;b&gt;SuperEats&lt;br/&gt;&lt;/b&gt;&lt;/font&gt;&lt;/div&gt;" style="text;vsdxID=1005;fillColor=none;gradientColor=none;strokeColor=none;points=[[0.5,1.71,0],[0.5,2.43,0],[0.5,3.14,0],[0.5,3.86,0],[0.5,4.57,0],[0.5,5.29,0],[0.5,6,0],[0.5,6.71,0],[0.5,7.43,0],[0.5,8.14,0],[0.5,8.86,0],[0.5,9.57,0],[0.5,10.29,0],[0.5,11,0],[0.5,11,0],[0.5,11,0],[0.5,11,0],[0.5,11,0],[0.5,11,0],[0.5,11,0],[0.5,11,0],[0.5,11,0],[0.5,11,0],[0.5,11,0],[0.5,11,0],[0.5,11,0],[0.5,11,0],[0.5,11,0],[0.5,11,0],[0.5,11,0],[0.5,11,0],[0.5,11,0],[0.5,11,0],[0.5,11,0],[0.5,11,0],[0.5,11,0],[0.5,11,0],[0.5,11,0],[0.5,11,0],[0.5,11,0],[0.5,11,0],[0.5,11,0],[0.5,11,0],[0.5,11,0],[0.5,11,0],[0.5,11,0],[0.5,11,0],[0.5,11,0],[0.5,11,0],[0.5,11,0],[0.5,11,0],[0.5,11,0],[0.5,11,0],[0.5,11,0],[0.5,11,0],[0.5,11,0],[0.5,11,0],[0.5,11,0],[0.5,11,0],[0.5,11,0],[0.5,11,0],[0.5,11,0],[0.5,11,0],[0.5,11,0],[0.5,11,0],[0.5,11,0],[0.5,11,0],[0.5,11,0],[0.5,11,0],[0.5,11,0],[0.5,11,0],[0.5,11,0],[0.5,11,0],[0.5,11,0],[0.5,11,0],[0.5,11,0],[0.5,11,0],[0.5,11,0],[0.5,11,0],[0.5,11,0],[0.5,11,0],[0.5,11,0],[0.5,11,0],[0.5,11,0],[0.5,11,0],[0.5,11,0],[0.5,11,0],[0.5,11,0],[0.5,11,0],[0.5,11,0],[0.5,11,0],[0.5,11,0],[0.5,11,0],[0.5,11,0],[0.5,11,0],[0.5,11,0],[0.5,11,0],[0.5,11,0],[0.5,11,0],[0.5,11,0]];labelBackgroundColor=none;rounded=0;html=1;whiteSpace=wrap;verticalAlign=middle;align=center;overflow=width;;html=1;" parent="7" vertex="1">
          <mxGeometry y="-0.56" width="101.6" height="35.56" as="geometry" />
        </mxCell>
        <UserObject label="&lt;div style=&quot;font-size: 1px&quot;&gt;&lt;font style=&quot;font-size:11.29px;font-family:Calibri;color:#3a5821;direction:ltr;letter-spacing:0px;line-height:120%;opacity:1&quot;&gt;Select Edit Account Info(Account)&lt;br&gt;&lt;/font&gt;&lt;/div&gt;" tags="Connector" id="25">
          <mxCell style="vsdxID=1016;edgeStyle=none;startArrow=none;endArrow=block;startSize=2;endSize=7;strokeColor=#65993a;spacingTop=0;spacingBottom=0;spacingLeft=0;spacingRight=0;verticalAlign=middle;html=1;labelBackgroundColor=#ffffff;rounded=0;align=center;exitX=0.5;exitY=5.371428571428571;exitDx=0;exitDy=0;exitPerimeter=0;entryX=0.504950495049505;entryY=5.371428571428571;entryDx=0;entryDy=0;entryPerimeter=0;" parent="1" edge="1">
            <mxGeometry relative="1" as="geometry">
              <mxPoint x="-1" as="offset" />
              <Array as="points" />
              <mxPoint x="190" y="260" as="sourcePoint" />
              <mxPoint x="838" y="260" as="targetPoint" />
            </mxGeometry>
          </mxCell>
        </UserObject>
        <UserObject label="&lt;div style=&quot;font-size: 1px&quot;&gt;&lt;font style=&quot;font-size:11.29px;font-family:Calibri;color:#3a5821;direction:ltr;letter-spacing:0px;line-height:120%;opacity:1&quot;&gt;Select Username Textbox(Account)&lt;br&gt;&lt;/font&gt;&lt;/div&gt;" tags="Connector" id="ShQx4H7GAdg5E2icBeRP-25">
          <mxCell style="vsdxID=1016;edgeStyle=none;startArrow=none;endArrow=block;startSize=2;endSize=7;strokeColor=#65993a;spacingTop=0;spacingBottom=0;spacingLeft=0;spacingRight=0;verticalAlign=middle;html=1;labelBackgroundColor=#ffffff;rounded=0;align=center;exitX=0.5;exitY=5.371428571428571;exitDx=0;exitDy=0;exitPerimeter=0;entryX=0.504950495049505;entryY=5.371428571428571;entryDx=0;entryDy=0;entryPerimeter=0;" edge="1" parent="1">
            <mxGeometry relative="1" as="geometry">
              <mxPoint x="-1" as="offset" />
              <Array as="points" />
              <mxPoint x="190" y="380" as="sourcePoint" />
              <mxPoint x="838" y="380" as="targetPoint" />
            </mxGeometry>
          </mxCell>
        </UserObject>
        <UserObject label="&lt;div style=&quot;font-size: 1px&quot;&gt;&lt;font style=&quot;font-size:11.29px;font-family:Calibri;color:#3a5821;direction:ltr;letter-spacing:0px;line-height:120%;opacity:1&quot;&gt;Type in Username (Account)&lt;br&gt;&lt;/font&gt;&lt;/div&gt;" tags="Connector" id="ShQx4H7GAdg5E2icBeRP-26">
          <mxCell style="vsdxID=1016;edgeStyle=none;startArrow=none;endArrow=block;startSize=2;endSize=7;strokeColor=#65993a;spacingTop=0;spacingBottom=0;spacingLeft=0;spacingRight=0;verticalAlign=middle;html=1;labelBackgroundColor=#ffffff;rounded=0;align=center;exitX=0.5;exitY=5.371428571428571;exitDx=0;exitDy=0;exitPerimeter=0;entryX=0.504950495049505;entryY=5.371428571428571;entryDx=0;entryDy=0;entryPerimeter=0;" edge="1" parent="1">
            <mxGeometry relative="1" as="geometry">
              <mxPoint x="-1" as="offset" />
              <Array as="points" />
              <mxPoint x="190" y="430" as="sourcePoint" />
              <mxPoint x="838" y="430" as="targetPoint" />
            </mxGeometry>
          </mxCell>
        </UserObject>
        <UserObject label="&lt;div style=&quot;font-size: 1px&quot;&gt;&lt;font style=&quot;font-size:11.29px;font-family:Calibri;color:#3a5821;direction:ltr;letter-spacing:0px;line-height:120%;opacity:1&quot;&gt;Type in Birthdate (Account)&lt;br&gt;&lt;/font&gt;&lt;/div&gt;" tags="Connector" id="ShQx4H7GAdg5E2icBeRP-27">
          <mxCell style="vsdxID=1016;edgeStyle=none;startArrow=none;endArrow=block;startSize=2;endSize=7;strokeColor=#65993a;spacingTop=0;spacingBottom=0;spacingLeft=0;spacingRight=0;verticalAlign=middle;html=1;labelBackgroundColor=#ffffff;rounded=0;align=center;exitX=0.5;exitY=5.371428571428571;exitDx=0;exitDy=0;exitPerimeter=0;entryX=0.504950495049505;entryY=5.371428571428571;entryDx=0;entryDy=0;entryPerimeter=0;" edge="1" parent="1">
            <mxGeometry relative="1" as="geometry">
              <mxPoint x="-1" as="offset" />
              <Array as="points" />
              <mxPoint x="190" y="510" as="sourcePoint" />
              <mxPoint x="838" y="510" as="targetPoint" />
            </mxGeometry>
          </mxCell>
        </UserObject>
        <UserObject label="&lt;div style=&quot;font-size: 1px&quot;&gt;&lt;font style=&quot;font-size:11.29px;font-family:Calibri;color:#3a5821;direction:ltr;letter-spacing:0px;line-height:120%;opacity:1&quot;&gt;Select Gender Dropdown Menu (Account)&lt;br&gt;&lt;/font&gt;&lt;/div&gt;" tags="Connector" id="ShQx4H7GAdg5E2icBeRP-28">
          <mxCell style="vsdxID=1016;edgeStyle=none;startArrow=none;endArrow=block;startSize=2;endSize=7;strokeColor=#65993a;spacingTop=0;spacingBottom=0;spacingLeft=0;spacingRight=0;verticalAlign=middle;html=1;labelBackgroundColor=#ffffff;rounded=0;align=center;exitX=0.5;exitY=5.371428571428571;exitDx=0;exitDy=0;exitPerimeter=0;entryX=0.504950495049505;entryY=5.371428571428571;entryDx=0;entryDy=0;entryPerimeter=0;" edge="1" parent="1">
            <mxGeometry x="-0.0031" relative="1" as="geometry">
              <mxPoint as="offset" />
              <Array as="points" />
              <mxPoint x="190" y="550" as="sourcePoint" />
              <mxPoint x="838" y="550" as="targetPoint" />
            </mxGeometry>
          </mxCell>
        </UserObject>
        <UserObject label="&lt;div style=&quot;font-size: 1px&quot;&gt;&lt;font style=&quot;font-size:11.29px;font-family:Calibri;color:#3a5821;direction:ltr;letter-spacing:0px;line-height:120%;opacity:1&quot;&gt;Select Email(Account)&lt;br&gt;&lt;/font&gt;&lt;/div&gt;" tags="Connector" id="ShQx4H7GAdg5E2icBeRP-29">
          <mxCell style="vsdxID=1016;edgeStyle=none;startArrow=none;endArrow=block;startSize=2;endSize=7;strokeColor=#65993a;spacingTop=0;spacingBottom=0;spacingLeft=0;spacingRight=0;verticalAlign=middle;html=1;labelBackgroundColor=#ffffff;rounded=0;align=center;exitX=0.5;exitY=5.371428571428571;exitDx=0;exitDy=0;exitPerimeter=0;entryX=0.504950495049505;entryY=5.371428571428571;entryDx=0;entryDy=0;entryPerimeter=0;" edge="1" parent="1">
            <mxGeometry relative="1" as="geometry">
              <mxPoint x="-1" as="offset" />
              <Array as="points" />
              <mxPoint x="190" y="640" as="sourcePoint" />
              <mxPoint x="838" y="640" as="targetPoint" />
            </mxGeometry>
          </mxCell>
        </UserObject>
        <UserObject label="&lt;div style=&quot;font-size: 1px&quot;&gt;&lt;font style=&quot;font-size:11.29px;font-family:Calibri;color:#3a5821;direction:ltr;letter-spacing:0px;line-height:120%;opacity:1&quot;&gt;Type in Email(Account)&lt;br&gt;&lt;/font&gt;&lt;/div&gt;" tags="Connector" id="ShQx4H7GAdg5E2icBeRP-30">
          <mxCell style="vsdxID=1016;edgeStyle=none;startArrow=none;endArrow=block;startSize=2;endSize=7;strokeColor=#65993a;spacingTop=0;spacingBottom=0;spacingLeft=0;spacingRight=0;verticalAlign=middle;html=1;labelBackgroundColor=#ffffff;rounded=0;align=center;exitX=0.5;exitY=5.371428571428571;exitDx=0;exitDy=0;exitPerimeter=0;entryX=0.504950495049505;entryY=5.371428571428571;entryDx=0;entryDy=0;entryPerimeter=0;" edge="1" parent="1">
            <mxGeometry relative="1" as="geometry">
              <mxPoint x="-1" as="offset" />
              <Array as="points" />
              <mxPoint x="190" y="680" as="sourcePoint" />
              <mxPoint x="838" y="680" as="targetPoint" />
            </mxGeometry>
          </mxCell>
        </UserObject>
        <UserObject label="&lt;div style=&quot;font-size: 1px&quot;&gt;&lt;font style=&quot;font-size:11.29px;font-family:Calibri;color:#3a5821;direction:ltr;letter-spacing:0px;line-height:120%;opacity:1&quot;&gt;Select Save Button(Account)&lt;br&gt;&lt;/font&gt;&lt;/div&gt;" tags="Connector" id="ShQx4H7GAdg5E2icBeRP-31">
          <mxCell style="vsdxID=1016;edgeStyle=none;startArrow=none;endArrow=block;startSize=2;endSize=7;strokeColor=#65993a;spacingTop=0;spacingBottom=0;spacingLeft=0;spacingRight=0;verticalAlign=middle;html=1;labelBackgroundColor=#ffffff;rounded=0;align=center;exitX=0.5;exitY=5.371428571428571;exitDx=0;exitDy=0;exitPerimeter=0;entryX=0.504950495049505;entryY=5.371428571428571;entryDx=0;entryDy=0;entryPerimeter=0;" edge="1" parent="1">
            <mxGeometry relative="1" as="geometry">
              <mxPoint x="-1" as="offset" />
              <Array as="points" />
              <mxPoint x="190" y="700" as="sourcePoint" />
              <mxPoint x="838" y="700" as="targetPoint" />
            </mxGeometry>
          </mxCell>
        </UserObject>
        <UserObject label="&lt;div style=&quot;font-size: 1px&quot;&gt;&lt;font style=&quot;font-size:11.29px;font-family:Calibri;color:#3a5821;direction:ltr;letter-spacing:0px;line-height:120%;opacity:1&quot;&gt;Open Edit Account Info Screen&amp;nbsp;&lt;/font&gt;&lt;/div&gt;" tags="Connector" id="ShQx4H7GAdg5E2icBeRP-32">
          <mxCell style="vsdxID=1014;edgeStyle=none;dashed=1;startArrow=none;endArrow=open;startSize=2;endSize=7;strokeColor=#65993a;spacingTop=0;spacingBottom=0;spacingLeft=0;spacingRight=0;verticalAlign=middle;html=1;labelBackgroundColor=#ffffff;rounded=0;align=center;exitX=0.504950495049505;exitY=3.914285714285714;exitDx=0;exitDy=0;exitPerimeter=0;entryX=0.5;entryY=3.914285714285714;entryDx=0;entryDy=0;entryPerimeter=0;" edge="1" parent="1">
            <mxGeometry relative="1" as="geometry">
              <mxPoint as="offset" />
              <Array as="points" />
              <mxPoint x="838" y="280" as="sourcePoint" />
              <mxPoint x="190" y="280" as="targetPoint" />
            </mxGeometry>
          </mxCell>
        </UserObject>
        <UserObject label="&lt;div style=&quot;&quot;&gt;&lt;font face=&quot;Calibri&quot; color=&quot;#3a5821&quot;&gt;&lt;span style=&quot;font-size: 11.29px;&quot;&gt;Display textbox for username, email, DOB&lt;/span&gt;&lt;/font&gt;&lt;/div&gt;" tags="Connector" id="ShQx4H7GAdg5E2icBeRP-33">
          <mxCell style="vsdxID=1014;edgeStyle=none;dashed=1;startArrow=none;endArrow=open;startSize=2;endSize=7;strokeColor=#65993a;spacingTop=0;spacingBottom=0;spacingLeft=0;spacingRight=0;verticalAlign=middle;html=1;labelBackgroundColor=#ffffff;rounded=0;align=center;exitX=0.504950495049505;exitY=3.914285714285714;exitDx=0;exitDy=0;exitPerimeter=0;entryX=0.5;entryY=3.914285714285714;entryDx=0;entryDy=0;entryPerimeter=0;" edge="1" parent="1">
            <mxGeometry relative="1" as="geometry">
              <mxPoint as="offset" />
              <Array as="points" />
              <mxPoint x="838" y="310" as="sourcePoint" />
              <mxPoint x="190" y="310" as="targetPoint" />
            </mxGeometry>
          </mxCell>
        </UserObject>
        <UserObject label="&lt;div style=&quot;&quot;&gt;&lt;font face=&quot;Calibri&quot; color=&quot;#3a5821&quot;&gt;&lt;span style=&quot;font-size: 11.29px;&quot;&gt;Display dropdown menu for gender&lt;/span&gt;&lt;/font&gt;&lt;/div&gt;" tags="Connector" id="ShQx4H7GAdg5E2icBeRP-34">
          <mxCell style="vsdxID=1014;edgeStyle=none;dashed=1;startArrow=none;endArrow=open;startSize=2;endSize=7;strokeColor=#65993a;spacingTop=0;spacingBottom=0;spacingLeft=0;spacingRight=0;verticalAlign=middle;html=1;labelBackgroundColor=#ffffff;rounded=0;align=center;exitX=0.504950495049505;exitY=3.914285714285714;exitDx=0;exitDy=0;exitPerimeter=0;entryX=0.5;entryY=3.914285714285714;entryDx=0;entryDy=0;entryPerimeter=0;" edge="1" parent="1">
            <mxGeometry relative="1" as="geometry">
              <mxPoint as="offset" />
              <Array as="points" />
              <mxPoint x="838" y="340" as="sourcePoint" />
              <mxPoint x="190" y="340" as="targetPoint" />
            </mxGeometry>
          </mxCell>
        </UserObject>
        <UserObject label="&lt;div style=&quot;font-size: 1px&quot;&gt;&lt;font style=&quot;font-size:11.29px;font-family:Calibri;color:#3a5821;direction:ltr;letter-spacing:0px;line-height:120%;opacity:1&quot;&gt;Activate cancel button&lt;/font&gt;&lt;/div&gt;" tags="Connector" id="ShQx4H7GAdg5E2icBeRP-35">
          <mxCell style="vsdxID=1014;edgeStyle=none;dashed=1;startArrow=none;endArrow=open;startSize=2;endSize=7;strokeColor=#65993a;spacingTop=0;spacingBottom=0;spacingLeft=0;spacingRight=0;verticalAlign=middle;html=1;labelBackgroundColor=#ffffff;rounded=0;align=center;exitX=0.504950495049505;exitY=3.914285714285714;exitDx=0;exitDy=0;exitPerimeter=0;entryX=0.5;entryY=3.914285714285714;entryDx=0;entryDy=0;entryPerimeter=0;" edge="1" parent="1">
            <mxGeometry relative="1" as="geometry">
              <mxPoint as="offset" />
              <Array as="points" />
              <mxPoint x="838" y="360" as="sourcePoint" />
              <mxPoint x="190" y="360" as="targetPoint" />
            </mxGeometry>
          </mxCell>
        </UserObject>
        <UserObject label="&lt;font face=&quot;Calibri&quot; color=&quot;#3a5821&quot;&gt;&lt;span style=&quot;font-size: 11.29px;&quot;&gt;Highlight all text in username textbox&lt;/span&gt;&lt;/font&gt;" tags="Connector" id="ShQx4H7GAdg5E2icBeRP-36">
          <mxCell style="vsdxID=1014;edgeStyle=none;dashed=1;startArrow=none;endArrow=open;startSize=2;endSize=7;strokeColor=#65993a;spacingTop=0;spacingBottom=0;spacingLeft=0;spacingRight=0;verticalAlign=middle;html=1;labelBackgroundColor=#ffffff;rounded=0;align=center;exitX=0.504950495049505;exitY=3.914285714285714;exitDx=0;exitDy=0;exitPerimeter=0;entryX=0.5;entryY=3.914285714285714;entryDx=0;entryDy=0;entryPerimeter=0;" edge="1" parent="1">
            <mxGeometry relative="1" as="geometry">
              <mxPoint as="offset" />
              <Array as="points" />
              <mxPoint x="838" y="400" as="sourcePoint" />
              <mxPoint x="190" y="400" as="targetPoint" />
            </mxGeometry>
          </mxCell>
        </UserObject>
        <UserObject label="&lt;font face=&quot;Calibri&quot; color=&quot;#3a5821&quot;&gt;&lt;span style=&quot;font-size: 11.29px;&quot;&gt;Save Button&lt;/span&gt;&lt;/font&gt;" tags="Connector" id="ShQx4H7GAdg5E2icBeRP-37">
          <mxCell style="vsdxID=1014;edgeStyle=none;dashed=1;startArrow=none;endArrow=open;startSize=2;endSize=7;strokeColor=#65993a;spacingTop=0;spacingBottom=0;spacingLeft=0;spacingRight=0;verticalAlign=middle;html=1;labelBackgroundColor=#ffffff;rounded=0;align=center;exitX=0.504950495049505;exitY=3.914285714285714;exitDx=0;exitDy=0;exitPerimeter=0;entryX=0.5;entryY=3.914285714285714;entryDx=0;entryDy=0;entryPerimeter=0;" edge="1" parent="1">
            <mxGeometry relative="1" as="geometry">
              <mxPoint as="offset" />
              <Array as="points" />
              <mxPoint x="838" y="460" as="sourcePoint" />
              <mxPoint x="190" y="460" as="targetPoint" />
            </mxGeometry>
          </mxCell>
        </UserObject>
        <UserObject label="&lt;font face=&quot;Calibri&quot; color=&quot;#3a5821&quot;&gt;&lt;span style=&quot;font-size: 11.29px;&quot;&gt;Save Button&lt;/span&gt;&lt;/font&gt;" tags="Connector" id="ShQx4H7GAdg5E2icBeRP-38">
          <mxCell style="vsdxID=1014;edgeStyle=none;dashed=1;startArrow=none;endArrow=open;startSize=2;endSize=7;strokeColor=#65993a;spacingTop=0;spacingBottom=0;spacingLeft=0;spacingRight=0;verticalAlign=middle;html=1;labelBackgroundColor=#ffffff;rounded=0;align=center;exitX=0.504950495049505;exitY=3.914285714285714;exitDx=0;exitDy=0;exitPerimeter=0;entryX=0.5;entryY=3.914285714285714;entryDx=0;entryDy=0;entryPerimeter=0;" edge="1" parent="1">
            <mxGeometry relative="1" as="geometry">
              <mxPoint as="offset" />
              <Array as="points" />
              <mxPoint x="838" y="530" as="sourcePoint" />
              <mxPoint x="190" y="530" as="targetPoint" />
            </mxGeometry>
          </mxCell>
        </UserObject>
        <UserObject label="&lt;div style=&quot;font-size: 1px&quot;&gt;&lt;font style=&quot;font-size:11.29px;font-family:Calibri;color:#3a5821;direction:ltr;letter-spacing:0px;line-height:120%;opacity:1&quot;&gt;Select Birthdate Textbox (Account)&lt;br&gt;&lt;/font&gt;&lt;/div&gt;" tags="Connector" id="ShQx4H7GAdg5E2icBeRP-39">
          <mxCell style="vsdxID=1016;edgeStyle=none;startArrow=none;endArrow=block;startSize=2;endSize=7;strokeColor=#65993a;spacingTop=0;spacingBottom=0;spacingLeft=0;spacingRight=0;verticalAlign=middle;html=1;labelBackgroundColor=#ffffff;rounded=0;align=center;exitX=0.5;exitY=5.371428571428571;exitDx=0;exitDy=0;exitPerimeter=0;entryX=0.504950495049505;entryY=5.371428571428571;entryDx=0;entryDy=0;entryPerimeter=0;" edge="1" parent="1">
            <mxGeometry relative="1" as="geometry">
              <mxPoint x="-1" as="offset" />
              <Array as="points" />
              <mxPoint x="190" y="490" as="sourcePoint" />
              <mxPoint x="838" y="490" as="targetPoint" />
            </mxGeometry>
          </mxCell>
        </UserObject>
        <UserObject label="&lt;font face=&quot;Calibri&quot; color=&quot;#3a5821&quot;&gt;&lt;span style=&quot;font-size: 11.29px;&quot;&gt;Dropdown menu displays male, female, nonbinary&lt;/span&gt;&lt;/font&gt;" tags="Connector" id="ShQx4H7GAdg5E2icBeRP-40">
          <mxCell style="vsdxID=1014;edgeStyle=none;dashed=1;startArrow=none;endArrow=open;startSize=2;endSize=7;strokeColor=#65993a;spacingTop=0;spacingBottom=0;spacingLeft=0;spacingRight=0;verticalAlign=middle;html=1;labelBackgroundColor=#ffffff;rounded=0;align=center;exitX=0.504950495049505;exitY=3.914285714285714;exitDx=0;exitDy=0;exitPerimeter=0;entryX=0.5;entryY=3.914285714285714;entryDx=0;entryDy=0;entryPerimeter=0;" edge="1" parent="1">
            <mxGeometry relative="1" as="geometry">
              <mxPoint as="offset" />
              <Array as="points" />
              <mxPoint x="838" y="580" as="sourcePoint" />
              <mxPoint x="190" y="580" as="targetPoint" />
            </mxGeometry>
          </mxCell>
        </UserObject>
        <UserObject label="&lt;div style=&quot;font-size: 1px&quot;&gt;&lt;font style=&quot;font-size:11.29px;font-family:Calibri;color:#3a5821;direction:ltr;letter-spacing:0px;line-height:120%;opacity:1&quot;&gt;Select Gender&amp;nbsp; (Account)&lt;br&gt;&lt;/font&gt;&lt;/div&gt;" tags="Connector" id="ShQx4H7GAdg5E2icBeRP-41">
          <mxCell style="vsdxID=1016;edgeStyle=none;startArrow=none;endArrow=block;startSize=2;endSize=7;strokeColor=#65993a;spacingTop=0;spacingBottom=0;spacingLeft=0;spacingRight=0;verticalAlign=middle;html=1;labelBackgroundColor=#ffffff;rounded=0;align=center;exitX=0.5;exitY=5.371428571428571;exitDx=0;exitDy=0;exitPerimeter=0;entryX=0.504950495049505;entryY=5.371428571428571;entryDx=0;entryDy=0;entryPerimeter=0;" edge="1" parent="1">
            <mxGeometry x="-0.0031" relative="1" as="geometry">
              <mxPoint as="offset" />
              <Array as="points" />
              <mxPoint x="190" y="600" as="sourcePoint" />
              <mxPoint x="838" y="600" as="targetPoint" />
            </mxGeometry>
          </mxCell>
        </UserObject>
        <UserObject label="&lt;font face=&quot;Calibri&quot; color=&quot;#3a5821&quot;&gt;&lt;span style=&quot;font-size: 11.29px;&quot;&gt;Gender appears in closed dropdown menu&lt;/span&gt;&lt;/font&gt;" tags="Connector" id="ShQx4H7GAdg5E2icBeRP-42">
          <mxCell style="vsdxID=1014;edgeStyle=none;dashed=1;startArrow=none;endArrow=open;startSize=2;endSize=7;strokeColor=#65993a;spacingTop=0;spacingBottom=0;spacingLeft=0;spacingRight=0;verticalAlign=middle;html=1;labelBackgroundColor=#ffffff;rounded=0;align=center;exitX=0.504950495049505;exitY=3.914285714285714;exitDx=0;exitDy=0;exitPerimeter=0;entryX=0.5;entryY=3.914285714285714;entryDx=0;entryDy=0;entryPerimeter=0;" edge="1" parent="1">
            <mxGeometry relative="1" as="geometry">
              <mxPoint as="offset" />
              <Array as="points" />
              <mxPoint x="838" y="620" as="sourcePoint" />
              <mxPoint x="190" y="620" as="targetPoint" />
            </mxGeometry>
          </mxCell>
        </UserObject>
        <UserObject label="&lt;font face=&quot;Calibri&quot; color=&quot;#3a5821&quot;&gt;&lt;span style=&quot;font-size: 11.29px;&quot;&gt;Highlights all text in email textbox&lt;/span&gt;&lt;/font&gt;" tags="Connector" id="ShQx4H7GAdg5E2icBeRP-43">
          <mxCell style="vsdxID=1014;edgeStyle=none;dashed=1;startArrow=none;endArrow=open;startSize=2;endSize=7;strokeColor=#65993a;spacingTop=0;spacingBottom=0;spacingLeft=0;spacingRight=0;verticalAlign=middle;html=1;labelBackgroundColor=#ffffff;rounded=0;align=center;exitX=0.504950495049505;exitY=3.914285714285714;exitDx=0;exitDy=0;exitPerimeter=0;entryX=0.5;entryY=3.914285714285714;entryDx=0;entryDy=0;entryPerimeter=0;" edge="1" parent="1">
            <mxGeometry relative="1" as="geometry">
              <mxPoint as="offset" />
              <Array as="points" />
              <mxPoint x="838" y="660" as="sourcePoint" />
              <mxPoint x="190" y="660" as="targetPoint" />
            </mxGeometry>
          </mxCell>
        </UserObject>
        <UserObject label="&lt;font face=&quot;Calibri&quot; color=&quot;#3a5821&quot;&gt;&lt;span style=&quot;font-size: 11.29px;&quot;&gt;Edit Account info screen closed, return to account info page&lt;/span&gt;&lt;/font&gt;" tags="Connector" id="ShQx4H7GAdg5E2icBeRP-44">
          <mxCell style="vsdxID=1014;edgeStyle=none;dashed=1;startArrow=none;endArrow=open;startSize=2;endSize=7;strokeColor=#65993a;spacingTop=0;spacingBottom=0;spacingLeft=0;spacingRight=0;verticalAlign=middle;html=1;labelBackgroundColor=#ffffff;rounded=0;align=center;exitX=0.504950495049505;exitY=3.914285714285714;exitDx=0;exitDy=0;exitPerimeter=0;entryX=0.5;entryY=3.914285714285714;entryDx=0;entryDy=0;entryPerimeter=0;" edge="1" parent="1">
            <mxGeometry relative="1" as="geometry">
              <mxPoint as="offset" />
              <Array as="points" />
              <mxPoint x="838" y="730" as="sourcePoint" />
              <mxPoint x="190" y="730" as="targetPoint" />
            </mxGeometry>
          </mxCell>
        </UserObject>
      </root>
    </mxGraphModel>
  </diagram>
  <diagram id="lCPKt-er__ZLRlIRHts6" name="Add Payment Info">
    <mxGraphModel dx="1178" dy="628" grid="1" gridSize="10" guides="1" tooltips="1" connect="1" arrows="1" fold="1" page="1" pageScale="1" pageWidth="850" pageHeight="1100" math="0" shadow="0">
      <root>
        <mxCell id="0" />
        <mxCell id="1" parent="0" />
        <UserObject label="" tags="Background" id="EKpE0H8OGWQ5kXmeSSDq-1">
          <mxCell style="vsdxID=1000;fillColor=#5b9bd5;gradientColor=none;shape=stencil(nZBLDoAgDERP0z3SIyjew0SURgSD+Lu9kMZoXLhwN9O+tukAlrNpJg1SzDH4QW/URgNYgZTkjA4UkwJUgGXng+6DX1zLfmoymdXo17xh5zmRJ6Q42BWCfc2oJfdAr+Yv+AP9Cb7OJ3H/2JG1HNGz/84klThPVCc=);strokeColor=#ffffff;points=[[0.5,1.71,0],[0.5,2.43,0],[0.5,3.14,0],[0.5,3.86,0],[0.5,4.57,0],[0.5,5.29,0],[0.5,6,0],[0.5,6.71,0],[0.5,7.43,0],[0.5,8.14,0],[0.5,8.86,0],[0.5,9.57,0],[0.5,10.29,0],[0.5,11,0],[0.5,11,0],[0.5,11,0],[0.5,11,0],[0.5,11,0],[0.5,11,0],[0.5,11,0],[0.5,11,0],[0.5,11,0],[0.5,11,0],[0.5,11,0],[0.5,11,0],[0.5,11,0],[0.5,11,0],[0.5,11,0],[0.5,11,0],[0.5,11,0],[0.5,11,0],[0.5,11,0],[0.5,11,0],[0.5,11,0],[0.5,11,0],[0.5,11,0],[0.5,11,0],[0.5,11,0],[0.5,11,0],[0.5,11,0],[0.5,11,0],[0.5,11,0],[0.5,11,0],[0.5,11,0],[0.5,11,0],[0.5,11,0],[0.5,11,0],[0.5,11,0],[0.5,11,0],[0.5,11,0],[0.5,11,0],[0.5,11,0],[0.5,11,0],[0.5,11,0],[0.5,11,0],[0.5,11,0],[0.5,11,0],[0.5,11,0],[0.5,11,0],[0.5,11,0],[0.5,11,0],[0.5,11,0],[0.5,11,0],[0.5,11,0],[0.5,11,0],[0.5,11,0],[0.5,11,0],[0.5,11,0],[0.5,11,0],[0.5,11,0],[0.5,11,0],[0.5,11,0],[0.5,11,0],[0.5,11,0],[0.5,11,0],[0.5,11,0],[0.5,11,0],[0.5,11,0],[0.5,11,0],[0.5,11,0],[0.5,11,0],[0.5,11,0],[0.5,11,0],[0.5,11,0],[0.5,11,0],[0.5,11,0],[0.5,11,0],[0.5,11,0],[0.5,11,0],[0.5,11,0],[0.5,11,0],[0.5,11,0],[0.5,11,0],[0.5,11,0],[0.5,11,0],[0.5,11,0],[0.5,11,0],[0.5,11,0],[0.5,11,0],[0.5,11,0]];labelBackgroundColor=none;rounded=0;html=1;whiteSpace=wrap;" vertex="1" parent="1">
            <mxGeometry x="80" y="130.56" width="76" height="35" as="geometry" />
          </mxCell>
        </UserObject>
        <mxCell id="EKpE0H8OGWQ5kXmeSSDq-2" style="vsdxID=1001;fillColor=#5b9bd5;gradientColor=none;shape=stencil(nZBLDoAgDERP0z3SIyjew0SURgSD+Lu9kMZoXLhwN9O+tukAlrNpJg1SzDH4QW/URgNYgZTkjA4UkwJUgGXng+6DX1zLfmoymdXo17xh5zmRJ6Q42BWCfc2oJfdAr+Yv+AP9Cb7OJ3H/2JG1HNGz/84klThPVCc=);strokeColor=#ffffff;points=[[0.5,1.71,0],[0.5,2.43,0],[0.5,3.14,0],[0.5,3.86,0],[0.5,4.57,0],[0.5,5.29,0],[0.5,6,0],[0.5,6.71,0],[0.5,7.43,0],[0.5,8.14,0],[0.5,8.86,0],[0.5,9.57,0],[0.5,10.29,0],[0.5,11,0],[0.5,11,0],[0.5,11,0],[0.5,11,0],[0.5,11,0],[0.5,11,0],[0.5,11,0],[0.5,11,0],[0.5,11,0],[0.5,11,0],[0.5,11,0],[0.5,11,0],[0.5,11,0],[0.5,11,0],[0.5,11,0],[0.5,11,0],[0.5,11,0],[0.5,11,0],[0.5,11,0],[0.5,11,0],[0.5,11,0],[0.5,11,0],[0.5,11,0],[0.5,11,0],[0.5,11,0],[0.5,11,0],[0.5,11,0],[0.5,11,0],[0.5,11,0],[0.5,11,0],[0.5,11,0],[0.5,11,0],[0.5,11,0],[0.5,11,0],[0.5,11,0],[0.5,11,0],[0.5,11,0],[0.5,11,0],[0.5,11,0],[0.5,11,0],[0.5,11,0],[0.5,11,0],[0.5,11,0],[0.5,11,0],[0.5,11,0],[0.5,11,0],[0.5,11,0],[0.5,11,0],[0.5,11,0],[0.5,11,0],[0.5,11,0],[0.5,11,0],[0.5,11,0],[0.5,11,0],[0.5,11,0],[0.5,11,0],[0.5,11,0],[0.5,11,0],[0.5,11,0],[0.5,11,0],[0.5,11,0],[0.5,11,0],[0.5,11,0],[0.5,11,0],[0.5,11,0],[0.5,11,0],[0.5,11,0],[0.5,11,0],[0.5,11,0],[0.5,11,0],[0.5,11,0],[0.5,11,0],[0.5,11,0],[0.5,11,0],[0.5,11,0],[0.5,11,0],[0.5,11,0],[0.5,11,0],[0.5,11,0],[0.5,11,0],[0.5,11,0],[0.5,11,0],[0.5,11,0],[0.5,11,0],[0.5,11,0],[0.5,11,0],[0.5,11,0]];labelBackgroundColor=none;rounded=0;html=1;whiteSpace=wrap;" vertex="1" parent="EKpE0H8OGWQ5kXmeSSDq-1">
          <mxGeometry width="76" height="35" as="geometry" />
        </mxCell>
        <mxCell id="EKpE0H8OGWQ5kXmeSSDq-3" style="vsdxID=1002;fillColor=#5b9bd5;gradientColor=none;shape=stencil(tZTNDoIwDICfZkeSsQXFM+J7LDJgcTJSpuDbu6USgQhBord2/dr1LyU8aUpRS8JoY8FcZKsyWxJ+JIypqpSgrJMITwlPcgOyAHOrMtRr4UkvXc3dR+jQj1HvwugD1ZCifkJWq2qejdaj+wV0K8kXyHCMsmgePaxH++asy2B9XfFmdGkE8ReTjbazux+FXV7E8dLyKTtEBZydCSabAH3HUO1GrZ4Eol0gOtUEYKywylSj7dMCChm4T4Jci+Llh6amlbIePG9O63N9f0nLCe/TkCut8bIM7dNT4p7wDPH0CQ==);strokeColor=#ffffff;points=[[0.5,1.71,0],[0.5,2.43,0],[0.5,3.14,0],[0.5,3.86,0],[0.5,4.57,0],[0.5,5.29,0],[0.5,6,0],[0.5,6.71,0],[0.5,7.43,0],[0.5,8.14,0],[0.5,8.86,0],[0.5,9.57,0],[0.5,10.29,0],[0.5,11,0],[0.5,11,0],[0.5,11,0],[0.5,11,0],[0.5,11,0],[0.5,11,0],[0.5,11,0],[0.5,11,0],[0.5,11,0],[0.5,11,0],[0.5,11,0],[0.5,11,0],[0.5,11,0],[0.5,11,0],[0.5,11,0],[0.5,11,0],[0.5,11,0],[0.5,11,0],[0.5,11,0],[0.5,11,0],[0.5,11,0],[0.5,11,0],[0.5,11,0],[0.5,11,0],[0.5,11,0],[0.5,11,0],[0.5,11,0],[0.5,11,0],[0.5,11,0],[0.5,11,0],[0.5,11,0],[0.5,11,0],[0.5,11,0],[0.5,11,0],[0.5,11,0],[0.5,11,0],[0.5,11,0],[0.5,11,0],[0.5,11,0],[0.5,11,0],[0.5,11,0],[0.5,11,0],[0.5,11,0],[0.5,11,0],[0.5,11,0],[0.5,11,0],[0.5,11,0],[0.5,11,0],[0.5,11,0],[0.5,11,0],[0.5,11,0],[0.5,11,0],[0.5,11,0],[0.5,11,0],[0.5,11,0],[0.5,11,0],[0.5,11,0],[0.5,11,0],[0.5,11,0],[0.5,11,0],[0.5,11,0],[0.5,11,0],[0.5,11,0],[0.5,11,0],[0.5,11,0],[0.5,11,0],[0.5,11,0],[0.5,11,0],[0.5,11,0],[0.5,11,0],[0.5,11,0],[0.5,11,0],[0.5,11,0],[0.5,11,0],[0.5,11,0],[0.5,11,0],[0.5,11,0],[0.5,11,0],[0.5,11,0],[0.5,11,0],[0.5,11,0],[0.5,11,0],[0.5,11,0],[0.5,11,0],[0.5,11,0],[0.5,11,0],[0.5,11,0]];labelBackgroundColor=none;rounded=0;html=1;whiteSpace=wrap;" vertex="1" parent="EKpE0H8OGWQ5kXmeSSDq-1">
          <mxGeometry x="25" y="-56" width="25" height="50" as="geometry" />
        </mxCell>
        <mxCell id="EKpE0H8OGWQ5kXmeSSDq-4" value="" style="vsdxID=1004;edgeStyle=none;dashed=1;startArrow=none;endArrow=none;startSize=5;endSize=5;strokeColor=#5088bb;spacingTop=0;spacingBottom=0;spacingLeft=0;spacingRight=0;verticalAlign=middle;html=1;labelBackgroundColor=#ffffff;rounded=0;" edge="1" parent="EKpE0H8OGWQ5kXmeSSDq-1">
          <mxGeometry relative="1" as="geometry">
            <Array as="points" />
            <mxPoint x="38" y="35" as="sourcePoint" />
            <mxPoint x="38" y="781.0400000000001" as="targetPoint" />
          </mxGeometry>
        </mxCell>
        <mxCell id="EKpE0H8OGWQ5kXmeSSDq-5" value="&lt;div style=&quot;font-size: 1px&quot;&gt;&lt;font style=&quot;font-size:16.93px;font-family:Calibri;color:#ffffff;direction:ltr;letter-spacing:0px;line-height:120%;opacity:1&quot;&gt;&lt;b&gt;User&lt;br/&gt;&lt;/b&gt;&lt;/font&gt;&lt;/div&gt;" style="text;vsdxID=1000;fillColor=none;gradientColor=none;strokeColor=none;points=[[0.5,1.71,0],[0.5,2.43,0],[0.5,3.14,0],[0.5,3.86,0],[0.5,4.57,0],[0.5,5.29,0],[0.5,6,0],[0.5,6.71,0],[0.5,7.43,0],[0.5,8.14,0],[0.5,8.86,0],[0.5,9.57,0],[0.5,10.29,0],[0.5,11,0],[0.5,11,0],[0.5,11,0],[0.5,11,0],[0.5,11,0],[0.5,11,0],[0.5,11,0],[0.5,11,0],[0.5,11,0],[0.5,11,0],[0.5,11,0],[0.5,11,0],[0.5,11,0],[0.5,11,0],[0.5,11,0],[0.5,11,0],[0.5,11,0],[0.5,11,0],[0.5,11,0],[0.5,11,0],[0.5,11,0],[0.5,11,0],[0.5,11,0],[0.5,11,0],[0.5,11,0],[0.5,11,0],[0.5,11,0],[0.5,11,0],[0.5,11,0],[0.5,11,0],[0.5,11,0],[0.5,11,0],[0.5,11,0],[0.5,11,0],[0.5,11,0],[0.5,11,0],[0.5,11,0],[0.5,11,0],[0.5,11,0],[0.5,11,0],[0.5,11,0],[0.5,11,0],[0.5,11,0],[0.5,11,0],[0.5,11,0],[0.5,11,0],[0.5,11,0],[0.5,11,0],[0.5,11,0],[0.5,11,0],[0.5,11,0],[0.5,11,0],[0.5,11,0],[0.5,11,0],[0.5,11,0],[0.5,11,0],[0.5,11,0],[0.5,11,0],[0.5,11,0],[0.5,11,0],[0.5,11,0],[0.5,11,0],[0.5,11,0],[0.5,11,0],[0.5,11,0],[0.5,11,0],[0.5,11,0],[0.5,11,0],[0.5,11,0],[0.5,11,0],[0.5,11,0],[0.5,11,0],[0.5,11,0],[0.5,11,0],[0.5,11,0],[0.5,11,0],[0.5,11,0],[0.5,11,0],[0.5,11,0],[0.5,11,0],[0.5,11,0],[0.5,11,0],[0.5,11,0],[0.5,11,0],[0.5,11,0],[0.5,11,0],[0.5,11,0]];labelBackgroundColor=none;rounded=0;html=1;whiteSpace=wrap;verticalAlign=middle;align=center;overflow=width;;html=1;" vertex="1" parent="EKpE0H8OGWQ5kXmeSSDq-1">
          <mxGeometry y="-0.56" width="76.2" height="35.56" as="geometry" />
        </mxCell>
        <UserObject label="" tags="Background" id="-BsYBAf3x64gzJsecpEK-1">
          <mxCell style="vsdxID=1005;fillColor=#5b9bd5;gradientColor=none;shape=stencil(nZBLDoAgDERP0z3SIyjew0SURgSD+Lu9kMZoXLhwN9O+tukAlrNpJg1SzDH4QW/URgNYgZTkjA4UkwJUgGXng+6DX1zLfmoymdXo17xh5zmRJ6Q42BWCfc2oJfdAr+Yv+AP9Cb7OJ3H/2JG1HNGz/84klThPVCc=);strokeColor=#ffffff;points=[[0.5,1.71,0],[0.5,2.43,0],[0.5,3.14,0],[0.5,3.86,0],[0.5,4.57,0],[0.5,5.29,0],[0.5,6,0],[0.5,6.71,0],[0.5,7.43,0],[0.5,8.14,0],[0.5,8.86,0],[0.5,9.57,0],[0.5,10.29,0],[0.5,11,0],[0.5,11,0],[0.5,11,0],[0.5,11,0],[0.5,11,0],[0.5,11,0],[0.5,11,0],[0.5,11,0],[0.5,11,0],[0.5,11,0],[0.5,11,0],[0.5,11,0],[0.5,11,0],[0.5,11,0],[0.5,11,0],[0.5,11,0],[0.5,11,0],[0.5,11,0],[0.5,11,0],[0.5,11,0],[0.5,11,0],[0.5,11,0],[0.5,11,0],[0.5,11,0],[0.5,11,0],[0.5,11,0],[0.5,11,0],[0.5,11,0],[0.5,11,0],[0.5,11,0],[0.5,11,0],[0.5,11,0],[0.5,11,0],[0.5,11,0],[0.5,11,0],[0.5,11,0],[0.5,11,0],[0.5,11,0],[0.5,11,0],[0.5,11,0],[0.5,11,0],[0.5,11,0],[0.5,11,0],[0.5,11,0],[0.5,11,0],[0.5,11,0],[0.5,11,0],[0.5,11,0],[0.5,11,0],[0.5,11,0],[0.5,11,0],[0.5,11,0],[0.5,11,0],[0.5,11,0],[0.5,11,0],[0.5,11,0],[0.5,11,0],[0.5,11,0],[0.5,11,0],[0.5,11,0],[0.5,11,0],[0.5,11,0],[0.5,11,0],[0.5,11,0],[0.5,11,0],[0.5,11,0],[0.5,11,0],[0.5,11,0],[0.5,11,0],[0.5,11,0],[0.5,11,0],[0.5,11,0],[0.5,11,0],[0.5,11,0],[0.5,11,0],[0.5,11,0],[0.5,11,0],[0.5,11,0],[0.5,11,0],[0.5,11,0],[0.5,11,0],[0.5,11,0],[0.5,11,0],[0.5,11,0],[0.5,11,0],[0.5,11,0],[0.5,11,0]];labelBackgroundColor=none;rounded=0;html=1;whiteSpace=wrap;" vertex="1" parent="1">
            <mxGeometry x="660" y="130.56" width="101" height="35" as="geometry" />
          </mxCell>
        </UserObject>
        <mxCell id="-BsYBAf3x64gzJsecpEK-2" style="vsdxID=1006;fillColor=#5b9bd5;gradientColor=none;shape=stencil(nZBLDoAgDERP0z3SIyjew0SURgSD+Lu9kMZoXLhwN9O+tukAlrNpJg1SzDH4QW/URgNYgZTkjA4UkwJUgGXng+6DX1zLfmoymdXo17xh5zmRJ6Q42BWCfc2oJfdAr+Yv+AP9Cb7OJ3H/2JG1HNGz/84klThPVCc=);strokeColor=#ffffff;points=[[0.5,1.71,0],[0.5,2.43,0],[0.5,3.14,0],[0.5,3.86,0],[0.5,4.57,0],[0.5,5.29,0],[0.5,6,0],[0.5,6.71,0],[0.5,7.43,0],[0.5,8.14,0],[0.5,8.86,0],[0.5,9.57,0],[0.5,10.29,0],[0.5,11,0],[0.5,11,0],[0.5,11,0],[0.5,11,0],[0.5,11,0],[0.5,11,0],[0.5,11,0],[0.5,11,0],[0.5,11,0],[0.5,11,0],[0.5,11,0],[0.5,11,0],[0.5,11,0],[0.5,11,0],[0.5,11,0],[0.5,11,0],[0.5,11,0],[0.5,11,0],[0.5,11,0],[0.5,11,0],[0.5,11,0],[0.5,11,0],[0.5,11,0],[0.5,11,0],[0.5,11,0],[0.5,11,0],[0.5,11,0],[0.5,11,0],[0.5,11,0],[0.5,11,0],[0.5,11,0],[0.5,11,0],[0.5,11,0],[0.5,11,0],[0.5,11,0],[0.5,11,0],[0.5,11,0],[0.5,11,0],[0.5,11,0],[0.5,11,0],[0.5,11,0],[0.5,11,0],[0.5,11,0],[0.5,11,0],[0.5,11,0],[0.5,11,0],[0.5,11,0],[0.5,11,0],[0.5,11,0],[0.5,11,0],[0.5,11,0],[0.5,11,0],[0.5,11,0],[0.5,11,0],[0.5,11,0],[0.5,11,0],[0.5,11,0],[0.5,11,0],[0.5,11,0],[0.5,11,0],[0.5,11,0],[0.5,11,0],[0.5,11,0],[0.5,11,0],[0.5,11,0],[0.5,11,0],[0.5,11,0],[0.5,11,0],[0.5,11,0],[0.5,11,0],[0.5,11,0],[0.5,11,0],[0.5,11,0],[0.5,11,0],[0.5,11,0],[0.5,11,0],[0.5,11,0],[0.5,11,0],[0.5,11,0],[0.5,11,0],[0.5,11,0],[0.5,11,0],[0.5,11,0],[0.5,11,0],[0.5,11,0],[0.5,11,0],[0.5,11,0]];labelBackgroundColor=none;rounded=0;html=1;whiteSpace=wrap;" vertex="1" parent="-BsYBAf3x64gzJsecpEK-1">
          <mxGeometry x="12" width="76" height="35" as="geometry" />
        </mxCell>
        <mxCell id="-BsYBAf3x64gzJsecpEK-3" style="vsdxID=1007;fillColor=#5b9bd5;gradientColor=none;shape=stencil(1VFBDsIgEHwNRxKE+IJa/7GxSyFiaRa07e+FLImtB+/eZnZmdgkjTJcczCi0SpniHRc/ZCfMRWjtJ4fkc0HC9MJ0NhKOFJ/TwHyG6qzoEV91w8q5s6oRrTamJ8X8yl6gW9GoeZuVtgP9vUitElafJMUM2cfpEA1AI8pyRNoAYwuylBbEeTf+h2cV8Plm60Pglvb6dy1lxJWa/g0=);strokeColor=#ffffff;points=[[0.5,1.71,0],[0.5,2.43,0],[0.5,3.14,0],[0.5,3.86,0],[0.5,4.57,0],[0.5,5.29,0],[0.5,6,0],[0.5,6.71,0],[0.5,7.43,0],[0.5,8.14,0],[0.5,8.86,0],[0.5,9.57,0],[0.5,10.29,0],[0.5,11,0],[0.5,11,0],[0.5,11,0],[0.5,11,0],[0.5,11,0],[0.5,11,0],[0.5,11,0],[0.5,11,0],[0.5,11,0],[0.5,11,0],[0.5,11,0],[0.5,11,0],[0.5,11,0],[0.5,11,0],[0.5,11,0],[0.5,11,0],[0.5,11,0],[0.5,11,0],[0.5,11,0],[0.5,11,0],[0.5,11,0],[0.5,11,0],[0.5,11,0],[0.5,11,0],[0.5,11,0],[0.5,11,0],[0.5,11,0],[0.5,11,0],[0.5,11,0],[0.5,11,0],[0.5,11,0],[0.5,11,0],[0.5,11,0],[0.5,11,0],[0.5,11,0],[0.5,11,0],[0.5,11,0],[0.5,11,0],[0.5,11,0],[0.5,11,0],[0.5,11,0],[0.5,11,0],[0.5,11,0],[0.5,11,0],[0.5,11,0],[0.5,11,0],[0.5,11,0],[0.5,11,0],[0.5,11,0],[0.5,11,0],[0.5,11,0],[0.5,11,0],[0.5,11,0],[0.5,11,0],[0.5,11,0],[0.5,11,0],[0.5,11,0],[0.5,11,0],[0.5,11,0],[0.5,11,0],[0.5,11,0],[0.5,11,0],[0.5,11,0],[0.5,11,0],[0.5,11,0],[0.5,11,0],[0.5,11,0],[0.5,11,0],[0.5,11,0],[0.5,11,0],[0.5,11,0],[0.5,11,0],[0.5,11,0],[0.5,11,0],[0.5,11,0],[0.5,11,0],[0.5,11,0],[0.5,11,0],[0.5,11,0],[0.5,11,0],[0.5,11,0],[0.5,11,0],[0.5,11,0],[0.5,11,0],[0.5,11,0],[0.5,11,0],[0.5,11,0]];labelBackgroundColor=none;rounded=0;html=1;whiteSpace=wrap;" vertex="1" parent="-BsYBAf3x64gzJsecpEK-1">
          <mxGeometry x="38" y="-6" width="25" height="1" as="geometry" />
        </mxCell>
        <mxCell id="-BsYBAf3x64gzJsecpEK-4" value="" style="vsdxID=1009;edgeStyle=none;dashed=1;startArrow=none;endArrow=none;startSize=5;endSize=5;strokeColor=#5088bb;spacingTop=0;spacingBottom=0;spacingLeft=0;spacingRight=0;verticalAlign=middle;html=1;labelBackgroundColor=#ffffff;rounded=0;" edge="1" parent="-BsYBAf3x64gzJsecpEK-1">
          <mxGeometry relative="1" as="geometry">
            <Array as="points" />
            <mxPoint x="50" y="35" as="sourcePoint" />
            <mxPoint x="50" y="779.44" as="targetPoint" />
          </mxGeometry>
        </mxCell>
        <mxCell id="-BsYBAf3x64gzJsecpEK-5" value="&lt;div style=&quot;font-size: 1px&quot;&gt;&lt;font style=&quot;font-size:16.93px;font-family:Calibri;color:#ffffff;direction:ltr;letter-spacing:0px;line-height:120%;opacity:1&quot;&gt;&lt;b&gt;SuperEats&lt;br/&gt;&lt;/b&gt;&lt;/font&gt;&lt;/div&gt;" style="text;vsdxID=1005;fillColor=none;gradientColor=none;strokeColor=none;points=[[0.5,1.71,0],[0.5,2.43,0],[0.5,3.14,0],[0.5,3.86,0],[0.5,4.57,0],[0.5,5.29,0],[0.5,6,0],[0.5,6.71,0],[0.5,7.43,0],[0.5,8.14,0],[0.5,8.86,0],[0.5,9.57,0],[0.5,10.29,0],[0.5,11,0],[0.5,11,0],[0.5,11,0],[0.5,11,0],[0.5,11,0],[0.5,11,0],[0.5,11,0],[0.5,11,0],[0.5,11,0],[0.5,11,0],[0.5,11,0],[0.5,11,0],[0.5,11,0],[0.5,11,0],[0.5,11,0],[0.5,11,0],[0.5,11,0],[0.5,11,0],[0.5,11,0],[0.5,11,0],[0.5,11,0],[0.5,11,0],[0.5,11,0],[0.5,11,0],[0.5,11,0],[0.5,11,0],[0.5,11,0],[0.5,11,0],[0.5,11,0],[0.5,11,0],[0.5,11,0],[0.5,11,0],[0.5,11,0],[0.5,11,0],[0.5,11,0],[0.5,11,0],[0.5,11,0],[0.5,11,0],[0.5,11,0],[0.5,11,0],[0.5,11,0],[0.5,11,0],[0.5,11,0],[0.5,11,0],[0.5,11,0],[0.5,11,0],[0.5,11,0],[0.5,11,0],[0.5,11,0],[0.5,11,0],[0.5,11,0],[0.5,11,0],[0.5,11,0],[0.5,11,0],[0.5,11,0],[0.5,11,0],[0.5,11,0],[0.5,11,0],[0.5,11,0],[0.5,11,0],[0.5,11,0],[0.5,11,0],[0.5,11,0],[0.5,11,0],[0.5,11,0],[0.5,11,0],[0.5,11,0],[0.5,11,0],[0.5,11,0],[0.5,11,0],[0.5,11,0],[0.5,11,0],[0.5,11,0],[0.5,11,0],[0.5,11,0],[0.5,11,0],[0.5,11,0],[0.5,11,0],[0.5,11,0],[0.5,11,0],[0.5,11,0],[0.5,11,0],[0.5,11,0],[0.5,11,0],[0.5,11,0],[0.5,11,0],[0.5,11,0]];labelBackgroundColor=none;rounded=0;html=1;whiteSpace=wrap;verticalAlign=middle;align=center;overflow=width;;html=1;" vertex="1" parent="-BsYBAf3x64gzJsecpEK-1">
          <mxGeometry y="-0.56" width="101.6" height="35.56" as="geometry" />
        </mxCell>
        <UserObject label="&lt;div style=&quot;font-size: 1px&quot;&gt;&lt;font style=&quot;font-size:11.29px;font-family:Calibri;color:#3a5821;direction:ltr;letter-spacing:0px;line-height:120%;opacity:1&quot;&gt;Select Add/Remove Cards Button(Account)&lt;/font&gt;&lt;/div&gt;" tags="Connector" id="euqdPxfMGkcn5kQPQWIJ-1">
          <mxCell style="vsdxID=1016;edgeStyle=none;startArrow=none;endArrow=block;startSize=2;endSize=7;strokeColor=#65993a;spacingTop=0;spacingBottom=0;spacingLeft=0;spacingRight=0;verticalAlign=middle;html=1;labelBackgroundColor=#ffffff;rounded=0;align=center;" edge="1" parent="1">
            <mxGeometry relative="1" as="geometry">
              <mxPoint x="-1" as="offset" />
              <Array as="points" />
              <mxPoint x="120" y="200" as="sourcePoint" />
              <mxPoint x="710" y="200" as="targetPoint" />
            </mxGeometry>
          </mxCell>
        </UserObject>
        <UserObject label="&lt;div style=&quot;font-size: 1px&quot;&gt;&lt;font style=&quot;font-size:11.29px;font-family:Calibri;color:#3a5821;direction:ltr;letter-spacing:0px;line-height:120%;opacity:1&quot;&gt;Display current added cards&lt;/font&gt;&lt;/div&gt;" tags="Connector" id="peXgNeg4_iK_-kwBfP39-1">
          <mxCell style="vsdxID=1014;edgeStyle=none;dashed=1;startArrow=none;endArrow=open;startSize=2;endSize=7;strokeColor=#65993a;spacingTop=0;spacingBottom=0;spacingLeft=0;spacingRight=0;verticalAlign=middle;html=1;labelBackgroundColor=#ffffff;rounded=0;align=center;entryX=0.5;entryY=3.914285714285714;entryDx=0;entryDy=0;entryPerimeter=0;" edge="1" parent="1">
            <mxGeometry relative="1" as="geometry">
              <mxPoint as="offset" />
              <Array as="points" />
              <mxPoint x="710" y="220" as="sourcePoint" />
              <mxPoint x="113" y="220" as="targetPoint" />
            </mxGeometry>
          </mxCell>
        </UserObject>
        <UserObject label="&lt;div style=&quot;font-size: 1px&quot;&gt;&lt;font style=&quot;font-size:11.29px;font-family:Calibri;color:#3a5821;direction:ltr;letter-spacing:0px;line-height:120%;opacity:1&quot;&gt;Activates add &amp;amp; remove card buttons&lt;/font&gt;&lt;/div&gt;" tags="Connector" id="peXgNeg4_iK_-kwBfP39-2">
          <mxCell style="vsdxID=1014;edgeStyle=none;dashed=1;startArrow=none;endArrow=open;startSize=2;endSize=7;strokeColor=#65993a;spacingTop=0;spacingBottom=0;spacingLeft=0;spacingRight=0;verticalAlign=middle;html=1;labelBackgroundColor=#ffffff;rounded=0;align=center;entryX=0.5;entryY=3.914285714285714;entryDx=0;entryDy=0;entryPerimeter=0;" edge="1" parent="1">
            <mxGeometry relative="1" as="geometry">
              <mxPoint as="offset" />
              <Array as="points" />
              <mxPoint x="707" y="240" as="sourcePoint" />
              <mxPoint x="110" y="240" as="targetPoint" />
            </mxGeometry>
          </mxCell>
        </UserObject>
        <UserObject label="&lt;div style=&quot;font-size: 1px&quot;&gt;&lt;font style=&quot;font-size:11.29px;font-family:Calibri;color:#3a5821;direction:ltr;letter-spacing:0px;line-height:120%;opacity:1&quot;&gt;Select Add Card Button(Account)&lt;/font&gt;&lt;/div&gt;" tags="Connector" id="peXgNeg4_iK_-kwBfP39-3">
          <mxCell style="vsdxID=1016;edgeStyle=none;startArrow=none;endArrow=block;startSize=2;endSize=7;strokeColor=#65993a;spacingTop=0;spacingBottom=0;spacingLeft=0;spacingRight=0;verticalAlign=middle;html=1;labelBackgroundColor=#ffffff;rounded=0;align=center;" edge="1" parent="1">
            <mxGeometry relative="1" as="geometry">
              <mxPoint x="-1" as="offset" />
              <Array as="points" />
              <mxPoint x="120" y="270" as="sourcePoint" />
              <mxPoint x="710" y="270" as="targetPoint" />
            </mxGeometry>
          </mxCell>
        </UserObject>
        <UserObject label="&lt;div style=&quot;font-size: 1px&quot;&gt;&lt;font style=&quot;font-size:11.29px;font-family:Calibri;color:#3a5821;direction:ltr;letter-spacing:0px;line-height:120%;opacity:1&quot;&gt;Display textbox for card number, name on card, security code&lt;/font&gt;&lt;/div&gt;" tags="Connector" id="peXgNeg4_iK_-kwBfP39-4">
          <mxCell style="vsdxID=1014;edgeStyle=none;dashed=1;startArrow=none;endArrow=open;startSize=2;endSize=7;strokeColor=#65993a;spacingTop=0;spacingBottom=0;spacingLeft=0;spacingRight=0;verticalAlign=middle;html=1;labelBackgroundColor=#ffffff;rounded=0;align=center;entryX=0.5;entryY=3.914285714285714;entryDx=0;entryDy=0;entryPerimeter=0;" edge="1" parent="1">
            <mxGeometry relative="1" as="geometry">
              <mxPoint as="offset" />
              <Array as="points" />
              <mxPoint x="707" y="300" as="sourcePoint" />
              <mxPoint x="110" y="300" as="targetPoint" />
            </mxGeometry>
          </mxCell>
        </UserObject>
        <UserObject label="&lt;div style=&quot;font-size: 1px&quot;&gt;&lt;font style=&quot;font-size:11.29px;font-family:Calibri;color:#3a5821;direction:ltr;letter-spacing:0px;line-height:120%;opacity:1&quot;&gt;Display dropdown menu for expiration date and month&lt;/font&gt;&lt;/div&gt;" tags="Connector" id="peXgNeg4_iK_-kwBfP39-5">
          <mxCell style="vsdxID=1014;edgeStyle=none;dashed=1;startArrow=none;endArrow=open;startSize=2;endSize=7;strokeColor=#65993a;spacingTop=0;spacingBottom=0;spacingLeft=0;spacingRight=0;verticalAlign=middle;html=1;labelBackgroundColor=#ffffff;rounded=0;align=center;entryX=0.5;entryY=3.914285714285714;entryDx=0;entryDy=0;entryPerimeter=0;" edge="1" parent="1">
            <mxGeometry relative="1" as="geometry">
              <mxPoint as="offset" />
              <Array as="points" />
              <mxPoint x="707" y="330" as="sourcePoint" />
              <mxPoint x="110" y="330" as="targetPoint" />
            </mxGeometry>
          </mxCell>
        </UserObject>
        <UserObject label="&lt;div style=&quot;font-size: 1px&quot;&gt;&lt;font style=&quot;font-size:11.29px;font-family:Calibri;color:#3a5821;direction:ltr;letter-spacing:0px;line-height:120%;opacity:1&quot;&gt;Select Card Number Textbox (Account)&lt;/font&gt;&lt;/div&gt;" tags="Connector" id="peXgNeg4_iK_-kwBfP39-6">
          <mxCell style="vsdxID=1016;edgeStyle=none;startArrow=none;endArrow=block;startSize=2;endSize=7;strokeColor=#65993a;spacingTop=0;spacingBottom=0;spacingLeft=0;spacingRight=0;verticalAlign=middle;html=1;labelBackgroundColor=#ffffff;rounded=0;align=center;" edge="1" parent="1">
            <mxGeometry relative="1" as="geometry">
              <mxPoint x="-1" as="offset" />
              <Array as="points" />
              <mxPoint x="120" y="360" as="sourcePoint" />
              <mxPoint x="710" y="360" as="targetPoint" />
            </mxGeometry>
          </mxCell>
        </UserObject>
        <UserObject label="&lt;div style=&quot;font-size: 1px&quot;&gt;&lt;font style=&quot;font-size:11.29px;font-family:Calibri;color:#3a5821;direction:ltr;letter-spacing:0px;line-height:120%;opacity:1&quot;&gt;Cursor appears in card number textbox&amp;nbsp;&lt;/font&gt;&lt;/div&gt;" tags="Connector" id="peXgNeg4_iK_-kwBfP39-7">
          <mxCell style="vsdxID=1014;edgeStyle=none;dashed=1;startArrow=none;endArrow=open;startSize=2;endSize=7;strokeColor=#65993a;spacingTop=0;spacingBottom=0;spacingLeft=0;spacingRight=0;verticalAlign=middle;html=1;labelBackgroundColor=#ffffff;rounded=0;align=center;entryX=0.5;entryY=3.914285714285714;entryDx=0;entryDy=0;entryPerimeter=0;" edge="1" parent="1">
            <mxGeometry relative="1" as="geometry">
              <mxPoint as="offset" />
              <Array as="points" />
              <mxPoint x="707" y="390" as="sourcePoint" />
              <mxPoint x="110" y="390" as="targetPoint" />
            </mxGeometry>
          </mxCell>
        </UserObject>
        <UserObject label="&lt;div style=&quot;font-size: 1px&quot;&gt;&lt;font style=&quot;font-size:11.29px;font-family:Calibri;color:#3a5821;direction:ltr;letter-spacing:0px;line-height:120%;opacity:1&quot;&gt;Type in Card Number(Account)&lt;/font&gt;&lt;/div&gt;" tags="Connector" id="peXgNeg4_iK_-kwBfP39-8">
          <mxCell style="vsdxID=1016;edgeStyle=none;startArrow=none;endArrow=block;startSize=2;endSize=7;strokeColor=#65993a;spacingTop=0;spacingBottom=0;spacingLeft=0;spacingRight=0;verticalAlign=middle;html=1;labelBackgroundColor=#ffffff;rounded=0;align=center;" edge="1" parent="1">
            <mxGeometry relative="1" as="geometry">
              <mxPoint x="-1" as="offset" />
              <Array as="points" />
              <mxPoint x="120" y="420" as="sourcePoint" />
              <mxPoint x="710" y="420" as="targetPoint" />
            </mxGeometry>
          </mxCell>
        </UserObject>
        <UserObject label="&lt;div style=&quot;font-size: 1px&quot;&gt;&lt;font style=&quot;font-size:11.29px;font-family:Calibri;color:#3a5821;direction:ltr;letter-spacing:0px;line-height:120%;opacity:1&quot;&gt;Card number appears in card number textbox&amp;nbsp;&lt;/font&gt;&lt;/div&gt;" tags="Connector" id="peXgNeg4_iK_-kwBfP39-9">
          <mxCell style="vsdxID=1014;edgeStyle=none;dashed=1;startArrow=none;endArrow=open;startSize=2;endSize=7;strokeColor=#65993a;spacingTop=0;spacingBottom=0;spacingLeft=0;spacingRight=0;verticalAlign=middle;html=1;labelBackgroundColor=#ffffff;rounded=0;align=center;entryX=0.5;entryY=3.914285714285714;entryDx=0;entryDy=0;entryPerimeter=0;" edge="1" parent="1">
            <mxGeometry relative="1" as="geometry">
              <mxPoint as="offset" />
              <Array as="points" />
              <mxPoint x="707" y="440" as="sourcePoint" />
              <mxPoint x="110" y="440" as="targetPoint" />
            </mxGeometry>
          </mxCell>
        </UserObject>
        <UserObject label="&lt;div style=&quot;font-size: 1px&quot;&gt;&lt;font style=&quot;font-size:11.29px;font-family:Calibri;color:#3a5821;direction:ltr;letter-spacing:0px;line-height:120%;opacity:1&quot;&gt;Select Name on Card Number Textbox(Account)&lt;/font&gt;&lt;/div&gt;" tags="Connector" id="peXgNeg4_iK_-kwBfP39-10">
          <mxCell style="vsdxID=1016;edgeStyle=none;startArrow=none;endArrow=block;startSize=2;endSize=7;strokeColor=#65993a;spacingTop=0;spacingBottom=0;spacingLeft=0;spacingRight=0;verticalAlign=middle;html=1;labelBackgroundColor=#ffffff;rounded=0;align=center;" edge="1" parent="1">
            <mxGeometry relative="1" as="geometry">
              <mxPoint x="-1" as="offset" />
              <Array as="points" />
              <mxPoint x="120" y="460" as="sourcePoint" />
              <mxPoint x="710" y="460" as="targetPoint" />
            </mxGeometry>
          </mxCell>
        </UserObject>
        <UserObject label="&lt;div style=&quot;font-size: 1px&quot;&gt;&lt;font style=&quot;font-size:11.29px;font-family:Calibri;color:#3a5821;direction:ltr;letter-spacing:0px;line-height:120%;opacity:1&quot;&gt;Cursor appears in name on card number textbox&amp;nbsp;&lt;/font&gt;&lt;/div&gt;" tags="Connector" id="peXgNeg4_iK_-kwBfP39-11">
          <mxCell style="vsdxID=1014;edgeStyle=none;dashed=1;startArrow=none;endArrow=open;startSize=2;endSize=7;strokeColor=#65993a;spacingTop=0;spacingBottom=0;spacingLeft=0;spacingRight=0;verticalAlign=middle;html=1;labelBackgroundColor=#ffffff;rounded=0;align=center;entryX=0.5;entryY=3.914285714285714;entryDx=0;entryDy=0;entryPerimeter=0;" edge="1" parent="1">
            <mxGeometry relative="1" as="geometry">
              <mxPoint as="offset" />
              <Array as="points" />
              <mxPoint x="707" y="480" as="sourcePoint" />
              <mxPoint x="110" y="480" as="targetPoint" />
            </mxGeometry>
          </mxCell>
        </UserObject>
        <UserObject label="&lt;div style=&quot;font-size: 1px&quot;&gt;&lt;font style=&quot;font-size:11.29px;font-family:Calibri;color:#3a5821;direction:ltr;letter-spacing:0px;line-height:120%;opacity:1&quot;&gt;Type in Name on Card (Account)&lt;/font&gt;&lt;/div&gt;" tags="Connector" id="peXgNeg4_iK_-kwBfP39-12">
          <mxCell style="vsdxID=1016;edgeStyle=none;startArrow=none;endArrow=block;startSize=2;endSize=7;strokeColor=#65993a;spacingTop=0;spacingBottom=0;spacingLeft=0;spacingRight=0;verticalAlign=middle;html=1;labelBackgroundColor=#ffffff;rounded=0;align=center;" edge="1" parent="1">
            <mxGeometry relative="1" as="geometry">
              <mxPoint x="-1" as="offset" />
              <Array as="points" />
              <mxPoint x="120" y="510" as="sourcePoint" />
              <mxPoint x="710" y="510" as="targetPoint" />
            </mxGeometry>
          </mxCell>
        </UserObject>
        <UserObject label="&lt;div style=&quot;font-size: 1px&quot;&gt;&lt;font style=&quot;font-size:11.29px;font-family:Calibri;color:#3a5821;direction:ltr;letter-spacing:0px;line-height:120%;opacity:1&quot;&gt;Select Security Code Textbox (Account)&lt;/font&gt;&lt;/div&gt;" tags="Connector" id="peXgNeg4_iK_-kwBfP39-13">
          <mxCell style="vsdxID=1016;edgeStyle=none;startArrow=none;endArrow=block;startSize=2;endSize=7;strokeColor=#65993a;spacingTop=0;spacingBottom=0;spacingLeft=0;spacingRight=0;verticalAlign=middle;html=1;labelBackgroundColor=#ffffff;rounded=0;align=center;" edge="1" parent="1">
            <mxGeometry relative="1" as="geometry">
              <mxPoint x="-1" as="offset" />
              <Array as="points" />
              <mxPoint x="120" y="540" as="sourcePoint" />
              <mxPoint x="710" y="540" as="targetPoint" />
            </mxGeometry>
          </mxCell>
        </UserObject>
        <UserObject label="&lt;div style=&quot;font-size: 1px&quot;&gt;&lt;font style=&quot;font-size:11.29px;font-family:Calibri;color:#3a5821;direction:ltr;letter-spacing:0px;line-height:120%;opacity:1&quot;&gt;Expiration dropdown menu displays values 1 - 12&amp;nbsp;&lt;/font&gt;&lt;/div&gt;" tags="Connector" id="peXgNeg4_iK_-kwBfP39-14">
          <mxCell style="vsdxID=1014;edgeStyle=none;dashed=1;startArrow=none;endArrow=open;startSize=2;endSize=7;strokeColor=#65993a;spacingTop=0;spacingBottom=0;spacingLeft=0;spacingRight=0;verticalAlign=middle;html=1;labelBackgroundColor=#ffffff;rounded=0;align=center;entryX=0.5;entryY=3.914285714285714;entryDx=0;entryDy=0;entryPerimeter=0;" edge="1" parent="1">
            <mxGeometry relative="1" as="geometry">
              <mxPoint as="offset" />
              <Array as="points" />
              <mxPoint x="707" y="560" as="sourcePoint" />
              <mxPoint x="110" y="560" as="targetPoint" />
            </mxGeometry>
          </mxCell>
        </UserObject>
        <UserObject label="&lt;div style=&quot;font-size: 1px&quot;&gt;&lt;font style=&quot;font-size:11.29px;font-family:Calibri;color:#3a5821;direction:ltr;letter-spacing:0px;line-height:120%;opacity:1&quot;&gt;Select Expiration Month (Account)&lt;/font&gt;&lt;/div&gt;" tags="Connector" id="peXgNeg4_iK_-kwBfP39-15">
          <mxCell style="vsdxID=1016;edgeStyle=none;startArrow=none;endArrow=block;startSize=2;endSize=7;strokeColor=#65993a;spacingTop=0;spacingBottom=0;spacingLeft=0;spacingRight=0;verticalAlign=middle;html=1;labelBackgroundColor=#ffffff;rounded=0;align=center;" edge="1" parent="1">
            <mxGeometry relative="1" as="geometry">
              <mxPoint x="-1" as="offset" />
              <Array as="points" />
              <mxPoint x="120" y="580" as="sourcePoint" />
              <mxPoint x="710" y="580" as="targetPoint" />
            </mxGeometry>
          </mxCell>
        </UserObject>
        <UserObject label="&lt;div style=&quot;font-size: 1px&quot;&gt;&lt;font style=&quot;font-size:11.29px;font-family:Calibri;color:#3a5821;direction:ltr;letter-spacing:0px;line-height:120%;opacity:1&quot;&gt;Select expiration month displayed in dropdown box&amp;nbsp;&lt;/font&gt;&lt;/div&gt;" tags="Connector" id="peXgNeg4_iK_-kwBfP39-16">
          <mxCell style="vsdxID=1014;edgeStyle=none;dashed=1;startArrow=none;endArrow=open;startSize=2;endSize=7;strokeColor=#65993a;spacingTop=0;spacingBottom=0;spacingLeft=0;spacingRight=0;verticalAlign=middle;html=1;labelBackgroundColor=#ffffff;rounded=0;align=center;entryX=0.5;entryY=3.914285714285714;entryDx=0;entryDy=0;entryPerimeter=0;" edge="1" parent="1">
            <mxGeometry relative="1" as="geometry">
              <mxPoint as="offset" />
              <Array as="points" />
              <mxPoint x="707" y="600" as="sourcePoint" />
              <mxPoint x="110" y="600" as="targetPoint" />
            </mxGeometry>
          </mxCell>
        </UserObject>
        <UserObject label="&lt;div style=&quot;font-size: 1px&quot;&gt;&lt;font style=&quot;font-size:11.29px;font-family:Calibri;color:#3a5821;direction:ltr;letter-spacing:0px;line-height:120%;opacity:1&quot;&gt;Select Expiration Day Dropdown Menu (Account)&lt;/font&gt;&lt;/div&gt;" tags="Connector" id="peXgNeg4_iK_-kwBfP39-17">
          <mxCell style="vsdxID=1016;edgeStyle=none;startArrow=none;endArrow=block;startSize=2;endSize=7;strokeColor=#65993a;spacingTop=0;spacingBottom=0;spacingLeft=0;spacingRight=0;verticalAlign=middle;html=1;labelBackgroundColor=#ffffff;rounded=0;align=center;" edge="1" parent="1">
            <mxGeometry relative="1" as="geometry">
              <mxPoint x="-1" as="offset" />
              <Array as="points" />
              <mxPoint x="120" y="630" as="sourcePoint" />
              <mxPoint x="710" y="630" as="targetPoint" />
            </mxGeometry>
          </mxCell>
        </UserObject>
        <UserObject label="&lt;div style=&quot;font-size: 1px&quot;&gt;&lt;font style=&quot;font-size:11.29px;font-family:Calibri;color:#3a5821;direction:ltr;letter-spacing:0px;line-height:120%;opacity:1&quot;&gt;Expiration day dropdown menu displays values 01-99&lt;/font&gt;&lt;/div&gt;" tags="Connector" id="peXgNeg4_iK_-kwBfP39-18">
          <mxCell style="vsdxID=1014;edgeStyle=none;dashed=1;startArrow=none;endArrow=open;startSize=2;endSize=7;strokeColor=#65993a;spacingTop=0;spacingBottom=0;spacingLeft=0;spacingRight=0;verticalAlign=middle;html=1;labelBackgroundColor=#ffffff;rounded=0;align=center;entryX=0.5;entryY=3.914285714285714;entryDx=0;entryDy=0;entryPerimeter=0;" edge="1" parent="1">
            <mxGeometry relative="1" as="geometry">
              <mxPoint as="offset" />
              <Array as="points" />
              <mxPoint x="707" y="650" as="sourcePoint" />
              <mxPoint x="110" y="650" as="targetPoint" />
            </mxGeometry>
          </mxCell>
        </UserObject>
        <UserObject label="&lt;div style=&quot;font-size: 1px&quot;&gt;&lt;font style=&quot;font-size:11.29px;font-family:Calibri;color:#3a5821;direction:ltr;letter-spacing:0px;line-height:120%;opacity:1&quot;&gt;Select Expiration Day (Account)&lt;/font&gt;&lt;/div&gt;" tags="Connector" id="peXgNeg4_iK_-kwBfP39-19">
          <mxCell style="vsdxID=1016;edgeStyle=none;startArrow=none;endArrow=block;startSize=2;endSize=7;strokeColor=#65993a;spacingTop=0;spacingBottom=0;spacingLeft=0;spacingRight=0;verticalAlign=middle;html=1;labelBackgroundColor=#ffffff;rounded=0;align=center;" edge="1" parent="1">
            <mxGeometry relative="1" as="geometry">
              <mxPoint x="-1" as="offset" />
              <Array as="points" />
              <mxPoint x="120" y="680" as="sourcePoint" />
              <mxPoint x="710" y="680" as="targetPoint" />
            </mxGeometry>
          </mxCell>
        </UserObject>
        <UserObject label="&lt;div style=&quot;font-size: 1px&quot;&gt;&lt;font style=&quot;font-size:11.29px;font-family:Calibri;color:#3a5821;direction:ltr;letter-spacing:0px;line-height:120%;opacity:1&quot;&gt;Select expiration day displayed in dropdown&amp;nbsp;&lt;/font&gt;&lt;/div&gt;" tags="Connector" id="peXgNeg4_iK_-kwBfP39-20">
          <mxCell style="vsdxID=1014;edgeStyle=none;dashed=1;startArrow=none;endArrow=open;startSize=2;endSize=7;strokeColor=#65993a;spacingTop=0;spacingBottom=0;spacingLeft=0;spacingRight=0;verticalAlign=middle;html=1;labelBackgroundColor=#ffffff;rounded=0;align=center;entryX=0.5;entryY=3.914285714285714;entryDx=0;entryDy=0;entryPerimeter=0;" edge="1" parent="1">
            <mxGeometry relative="1" as="geometry">
              <mxPoint as="offset" />
              <Array as="points" />
              <mxPoint x="707" y="710" as="sourcePoint" />
              <mxPoint x="110" y="710" as="targetPoint" />
            </mxGeometry>
          </mxCell>
        </UserObject>
        <UserObject label="&lt;div style=&quot;&quot;&gt;&lt;font face=&quot;Calibri&quot; color=&quot;#3a5821&quot;&gt;&lt;span style=&quot;font-size: 11.29px;&quot;&gt;Add card button activates&amp;nbsp;&lt;/span&gt;&lt;/font&gt;&lt;/div&gt;" tags="Connector" id="peXgNeg4_iK_-kwBfP39-21">
          <mxCell style="vsdxID=1014;edgeStyle=none;dashed=1;startArrow=none;endArrow=open;startSize=2;endSize=7;strokeColor=#65993a;spacingTop=0;spacingBottom=0;spacingLeft=0;spacingRight=0;verticalAlign=middle;html=1;labelBackgroundColor=#ffffff;rounded=0;align=center;entryX=0.5;entryY=3.914285714285714;entryDx=0;entryDy=0;entryPerimeter=0;" edge="1" parent="1">
            <mxGeometry relative="1" as="geometry">
              <mxPoint as="offset" />
              <Array as="points" />
              <mxPoint x="707" y="730" as="sourcePoint" />
              <mxPoint x="110" y="730" as="targetPoint" />
            </mxGeometry>
          </mxCell>
        </UserObject>
        <UserObject label="&lt;div style=&quot;font-size: 1px&quot;&gt;&lt;font style=&quot;font-size:11.29px;font-family:Calibri;color:#3a5821;direction:ltr;letter-spacing:0px;line-height:120%;opacity:1&quot;&gt;Select Add Card Button (Account)&lt;/font&gt;&lt;/div&gt;" tags="Connector" id="peXgNeg4_iK_-kwBfP39-22">
          <mxCell style="vsdxID=1016;edgeStyle=none;startArrow=none;endArrow=block;startSize=2;endSize=7;strokeColor=#65993a;spacingTop=0;spacingBottom=0;spacingLeft=0;spacingRight=0;verticalAlign=middle;html=1;labelBackgroundColor=#ffffff;rounded=0;align=center;" edge="1" parent="1">
            <mxGeometry relative="1" as="geometry">
              <mxPoint x="-1" as="offset" />
              <Array as="points" />
              <mxPoint x="120" y="760" as="sourcePoint" />
              <mxPoint x="710" y="760" as="targetPoint" />
            </mxGeometry>
          </mxCell>
        </UserObject>
        <UserObject label="&lt;div style=&quot;&quot;&gt;&lt;font face=&quot;Calibri&quot; color=&quot;#3a5821&quot;&gt;&lt;span style=&quot;font-size: 11.29px;&quot;&gt;Add card prompt closes&amp;nbsp;&lt;/span&gt;&lt;/font&gt;&lt;/div&gt;" tags="Connector" id="peXgNeg4_iK_-kwBfP39-23">
          <mxCell style="vsdxID=1014;edgeStyle=none;dashed=1;startArrow=none;endArrow=open;startSize=2;endSize=7;strokeColor=#65993a;spacingTop=0;spacingBottom=0;spacingLeft=0;spacingRight=0;verticalAlign=middle;html=1;labelBackgroundColor=#ffffff;rounded=0;align=center;entryX=0.5;entryY=3.914285714285714;entryDx=0;entryDy=0;entryPerimeter=0;" edge="1" parent="1">
            <mxGeometry relative="1" as="geometry">
              <mxPoint as="offset" />
              <Array as="points" />
              <mxPoint x="707" y="790" as="sourcePoint" />
              <mxPoint x="110" y="790" as="targetPoint" />
            </mxGeometry>
          </mxCell>
        </UserObject>
        <UserObject label="&lt;div style=&quot;&quot;&gt;&lt;font face=&quot;Calibri&quot; color=&quot;#3a5821&quot;&gt;&lt;span style=&quot;font-size: 11.29px;&quot;&gt;Return to account information page&amp;nbsp;&lt;/span&gt;&lt;/font&gt;&lt;/div&gt;" tags="Connector" id="peXgNeg4_iK_-kwBfP39-24">
          <mxCell style="vsdxID=1014;edgeStyle=none;dashed=1;startArrow=none;endArrow=open;startSize=2;endSize=7;strokeColor=#65993a;spacingTop=0;spacingBottom=0;spacingLeft=0;spacingRight=0;verticalAlign=middle;html=1;labelBackgroundColor=#ffffff;rounded=0;align=center;entryX=0.5;entryY=3.914285714285714;entryDx=0;entryDy=0;entryPerimeter=0;" edge="1" parent="1">
            <mxGeometry relative="1" as="geometry">
              <mxPoint as="offset" />
              <Array as="points" />
              <mxPoint x="707" y="820" as="sourcePoint" />
              <mxPoint x="110" y="820" as="targetPoint" />
            </mxGeometry>
          </mxCell>
        </UserObject>
      </root>
    </mxGraphModel>
  </diagram>
  <diagram id="k_xDGdn9noVQBc90GQe4" name="Search for Food">
    <mxGraphModel dx="1178" dy="628" grid="1" gridSize="10" guides="1" tooltips="1" connect="1" arrows="1" fold="1" page="1" pageScale="1" pageWidth="850" pageHeight="1100" math="0" shadow="0">
      <root>
        <mxCell id="0" />
        <mxCell id="1" parent="0" />
        <UserObject label="" tags="Background" id="WnkbEtUW5VYYVFMQBcsi-1">
          <mxCell style="vsdxID=1000;fillColor=#5b9bd5;gradientColor=none;shape=stencil(nZBLDoAgDERP0z3SIyjew0SURgSD+Lu9kMZoXLhwN9O+tukAlrNpJg1SzDH4QW/URgNYgZTkjA4UkwJUgGXng+6DX1zLfmoymdXo17xh5zmRJ6Q42BWCfc2oJfdAr+Yv+AP9Cb7OJ3H/2JG1HNGz/84klThPVCc=);strokeColor=#ffffff;points=[[0.5,1.71,0],[0.5,2.43,0],[0.5,3.14,0],[0.5,3.86,0],[0.5,4.57,0],[0.5,5.29,0],[0.5,6,0],[0.5,6.71,0],[0.5,7.43,0],[0.5,8.14,0],[0.5,8.86,0],[0.5,9.57,0],[0.5,10.29,0],[0.5,11,0],[0.5,11,0],[0.5,11,0],[0.5,11,0],[0.5,11,0],[0.5,11,0],[0.5,11,0],[0.5,11,0],[0.5,11,0],[0.5,11,0],[0.5,11,0],[0.5,11,0],[0.5,11,0],[0.5,11,0],[0.5,11,0],[0.5,11,0],[0.5,11,0],[0.5,11,0],[0.5,11,0],[0.5,11,0],[0.5,11,0],[0.5,11,0],[0.5,11,0],[0.5,11,0],[0.5,11,0],[0.5,11,0],[0.5,11,0],[0.5,11,0],[0.5,11,0],[0.5,11,0],[0.5,11,0],[0.5,11,0],[0.5,11,0],[0.5,11,0],[0.5,11,0],[0.5,11,0],[0.5,11,0],[0.5,11,0],[0.5,11,0],[0.5,11,0],[0.5,11,0],[0.5,11,0],[0.5,11,0],[0.5,11,0],[0.5,11,0],[0.5,11,0],[0.5,11,0],[0.5,11,0],[0.5,11,0],[0.5,11,0],[0.5,11,0],[0.5,11,0],[0.5,11,0],[0.5,11,0],[0.5,11,0],[0.5,11,0],[0.5,11,0],[0.5,11,0],[0.5,11,0],[0.5,11,0],[0.5,11,0],[0.5,11,0],[0.5,11,0],[0.5,11,0],[0.5,11,0],[0.5,11,0],[0.5,11,0],[0.5,11,0],[0.5,11,0],[0.5,11,0],[0.5,11,0],[0.5,11,0],[0.5,11,0],[0.5,11,0],[0.5,11,0],[0.5,11,0],[0.5,11,0],[0.5,11,0],[0.5,11,0],[0.5,11,0],[0.5,11,0],[0.5,11,0],[0.5,11,0],[0.5,11,0],[0.5,11,0],[0.5,11,0],[0.5,11,0]];labelBackgroundColor=none;rounded=0;html=1;whiteSpace=wrap;" parent="1" vertex="1">
            <mxGeometry x="152" y="185" width="76" height="35" as="geometry" />
          </mxCell>
        </UserObject>
        <mxCell id="WnkbEtUW5VYYVFMQBcsi-2" style="vsdxID=1001;fillColor=#5b9bd5;gradientColor=none;shape=stencil(nZBLDoAgDERP0z3SIyjew0SURgSD+Lu9kMZoXLhwN9O+tukAlrNpJg1SzDH4QW/URgNYgZTkjA4UkwJUgGXng+6DX1zLfmoymdXo17xh5zmRJ6Q42BWCfc2oJfdAr+Yv+AP9Cb7OJ3H/2JG1HNGz/84klThPVCc=);strokeColor=#ffffff;points=[[0.5,1.71,0],[0.5,2.43,0],[0.5,3.14,0],[0.5,3.86,0],[0.5,4.57,0],[0.5,5.29,0],[0.5,6,0],[0.5,6.71,0],[0.5,7.43,0],[0.5,8.14,0],[0.5,8.86,0],[0.5,9.57,0],[0.5,10.29,0],[0.5,11,0],[0.5,11,0],[0.5,11,0],[0.5,11,0],[0.5,11,0],[0.5,11,0],[0.5,11,0],[0.5,11,0],[0.5,11,0],[0.5,11,0],[0.5,11,0],[0.5,11,0],[0.5,11,0],[0.5,11,0],[0.5,11,0],[0.5,11,0],[0.5,11,0],[0.5,11,0],[0.5,11,0],[0.5,11,0],[0.5,11,0],[0.5,11,0],[0.5,11,0],[0.5,11,0],[0.5,11,0],[0.5,11,0],[0.5,11,0],[0.5,11,0],[0.5,11,0],[0.5,11,0],[0.5,11,0],[0.5,11,0],[0.5,11,0],[0.5,11,0],[0.5,11,0],[0.5,11,0],[0.5,11,0],[0.5,11,0],[0.5,11,0],[0.5,11,0],[0.5,11,0],[0.5,11,0],[0.5,11,0],[0.5,11,0],[0.5,11,0],[0.5,11,0],[0.5,11,0],[0.5,11,0],[0.5,11,0],[0.5,11,0],[0.5,11,0],[0.5,11,0],[0.5,11,0],[0.5,11,0],[0.5,11,0],[0.5,11,0],[0.5,11,0],[0.5,11,0],[0.5,11,0],[0.5,11,0],[0.5,11,0],[0.5,11,0],[0.5,11,0],[0.5,11,0],[0.5,11,0],[0.5,11,0],[0.5,11,0],[0.5,11,0],[0.5,11,0],[0.5,11,0],[0.5,11,0],[0.5,11,0],[0.5,11,0],[0.5,11,0],[0.5,11,0],[0.5,11,0],[0.5,11,0],[0.5,11,0],[0.5,11,0],[0.5,11,0],[0.5,11,0],[0.5,11,0],[0.5,11,0],[0.5,11,0],[0.5,11,0],[0.5,11,0],[0.5,11,0]];labelBackgroundColor=none;rounded=0;html=1;whiteSpace=wrap;" parent="WnkbEtUW5VYYVFMQBcsi-1" vertex="1">
          <mxGeometry width="76" height="35" as="geometry" />
        </mxCell>
        <mxCell id="WnkbEtUW5VYYVFMQBcsi-3" value="" style="edgeStyle=orthogonalEdgeStyle;rounded=0;orthogonalLoop=1;jettySize=auto;html=1;" parent="WnkbEtUW5VYYVFMQBcsi-1" source="WnkbEtUW5VYYVFMQBcsi-4" target="WnkbEtUW5VYYVFMQBcsi-6" edge="1">
          <mxGeometry relative="1" as="geometry" />
        </mxCell>
        <mxCell id="WnkbEtUW5VYYVFMQBcsi-4" style="vsdxID=1002;fillColor=#5b9bd5;gradientColor=none;shape=stencil(tZTNDoIwDICfZkeSsQXFM+J7LDJgcTJSpuDbu6USgQhBord2/dr1LyU8aUpRS8JoY8FcZKsyWxJ+JIypqpSgrJMITwlPcgOyAHOrMtRr4UkvXc3dR+jQj1HvwugD1ZCifkJWq2qejdaj+wV0K8kXyHCMsmgePaxH++asy2B9XfFmdGkE8ReTjbazux+FXV7E8dLyKTtEBZydCSabAH3HUO1GrZ4Eol0gOtUEYKywylSj7dMCChm4T4Jci+Llh6amlbIePG9O63N9f0nLCe/TkCut8bIM7dNT4p7wDPH0CQ==);strokeColor=#ffffff;points=[[0.5,1.71,0],[0.5,2.43,0],[0.5,3.14,0],[0.5,3.86,0],[0.5,4.57,0],[0.5,5.29,0],[0.5,6,0],[0.5,6.71,0],[0.5,7.43,0],[0.5,8.14,0],[0.5,8.86,0],[0.5,9.57,0],[0.5,10.29,0],[0.5,11,0],[0.5,11,0],[0.5,11,0],[0.5,11,0],[0.5,11,0],[0.5,11,0],[0.5,11,0],[0.5,11,0],[0.5,11,0],[0.5,11,0],[0.5,11,0],[0.5,11,0],[0.5,11,0],[0.5,11,0],[0.5,11,0],[0.5,11,0],[0.5,11,0],[0.5,11,0],[0.5,11,0],[0.5,11,0],[0.5,11,0],[0.5,11,0],[0.5,11,0],[0.5,11,0],[0.5,11,0],[0.5,11,0],[0.5,11,0],[0.5,11,0],[0.5,11,0],[0.5,11,0],[0.5,11,0],[0.5,11,0],[0.5,11,0],[0.5,11,0],[0.5,11,0],[0.5,11,0],[0.5,11,0],[0.5,11,0],[0.5,11,0],[0.5,11,0],[0.5,11,0],[0.5,11,0],[0.5,11,0],[0.5,11,0],[0.5,11,0],[0.5,11,0],[0.5,11,0],[0.5,11,0],[0.5,11,0],[0.5,11,0],[0.5,11,0],[0.5,11,0],[0.5,11,0],[0.5,11,0],[0.5,11,0],[0.5,11,0],[0.5,11,0],[0.5,11,0],[0.5,11,0],[0.5,11,0],[0.5,11,0],[0.5,11,0],[0.5,11,0],[0.5,11,0],[0.5,11,0],[0.5,11,0],[0.5,11,0],[0.5,11,0],[0.5,11,0],[0.5,11,0],[0.5,11,0],[0.5,11,0],[0.5,11,0],[0.5,11,0],[0.5,11,0],[0.5,11,0],[0.5,11,0],[0.5,11,0],[0.5,11,0],[0.5,11,0],[0.5,11,0],[0.5,11,0],[0.5,11,0],[0.5,11,0],[0.5,11,0],[0.5,11,0],[0.5,11,0]];labelBackgroundColor=none;rounded=0;html=1;whiteSpace=wrap;" parent="WnkbEtUW5VYYVFMQBcsi-1" vertex="1">
          <mxGeometry x="25" y="-56" width="25" height="50" as="geometry" />
        </mxCell>
        <mxCell id="WnkbEtUW5VYYVFMQBcsi-5" value="" style="vsdxID=1004;edgeStyle=none;dashed=1;startArrow=none;endArrow=none;startSize=5;endSize=5;strokeColor=#5088bb;spacingTop=0;spacingBottom=0;spacingLeft=0;spacingRight=0;verticalAlign=middle;html=1;labelBackgroundColor=#ffffff;rounded=0;" parent="WnkbEtUW5VYYVFMQBcsi-1" edge="1">
          <mxGeometry relative="1" as="geometry">
            <Array as="points" />
            <mxPoint x="38" y="35" as="sourcePoint" />
            <mxPoint x="38" y="615" as="targetPoint" />
          </mxGeometry>
        </mxCell>
        <mxCell id="WnkbEtUW5VYYVFMQBcsi-6" value="&lt;div style=&quot;font-size: 1px&quot;&gt;&lt;font style=&quot;font-size:16.93px;font-family:Calibri;color:#ffffff;direction:ltr;letter-spacing:0px;line-height:120%;opacity:1&quot;&gt;&lt;b&gt;User&lt;br/&gt;&lt;/b&gt;&lt;/font&gt;&lt;/div&gt;" style="text;vsdxID=1000;fillColor=none;gradientColor=none;strokeColor=none;points=[[0.5,1.71,0],[0.5,2.43,0],[0.5,3.14,0],[0.5,3.86,0],[0.5,4.57,0],[0.5,5.29,0],[0.5,6,0],[0.5,6.71,0],[0.5,7.43,0],[0.5,8.14,0],[0.5,8.86,0],[0.5,9.57,0],[0.5,10.29,0],[0.5,11,0],[0.5,11,0],[0.5,11,0],[0.5,11,0],[0.5,11,0],[0.5,11,0],[0.5,11,0],[0.5,11,0],[0.5,11,0],[0.5,11,0],[0.5,11,0],[0.5,11,0],[0.5,11,0],[0.5,11,0],[0.5,11,0],[0.5,11,0],[0.5,11,0],[0.5,11,0],[0.5,11,0],[0.5,11,0],[0.5,11,0],[0.5,11,0],[0.5,11,0],[0.5,11,0],[0.5,11,0],[0.5,11,0],[0.5,11,0],[0.5,11,0],[0.5,11,0],[0.5,11,0],[0.5,11,0],[0.5,11,0],[0.5,11,0],[0.5,11,0],[0.5,11,0],[0.5,11,0],[0.5,11,0],[0.5,11,0],[0.5,11,0],[0.5,11,0],[0.5,11,0],[0.5,11,0],[0.5,11,0],[0.5,11,0],[0.5,11,0],[0.5,11,0],[0.5,11,0],[0.5,11,0],[0.5,11,0],[0.5,11,0],[0.5,11,0],[0.5,11,0],[0.5,11,0],[0.5,11,0],[0.5,11,0],[0.5,11,0],[0.5,11,0],[0.5,11,0],[0.5,11,0],[0.5,11,0],[0.5,11,0],[0.5,11,0],[0.5,11,0],[0.5,11,0],[0.5,11,0],[0.5,11,0],[0.5,11,0],[0.5,11,0],[0.5,11,0],[0.5,11,0],[0.5,11,0],[0.5,11,0],[0.5,11,0],[0.5,11,0],[0.5,11,0],[0.5,11,0],[0.5,11,0],[0.5,11,0],[0.5,11,0],[0.5,11,0],[0.5,11,0],[0.5,11,0],[0.5,11,0],[0.5,11,0],[0.5,11,0],[0.5,11,0],[0.5,11,0]];labelBackgroundColor=none;rounded=0;html=1;whiteSpace=wrap;verticalAlign=middle;align=center;overflow=width;;html=1;" parent="WnkbEtUW5VYYVFMQBcsi-1" vertex="1">
          <mxGeometry y="-0.56" width="76.2" height="35.56" as="geometry" />
        </mxCell>
        <UserObject label="" tags="Background" id="dF2NslRUXdrEdogQLP5f-1">
          <mxCell style="vsdxID=1005;fillColor=#5b9bd5;gradientColor=none;shape=stencil(nZBLDoAgDERP0z3SIyjew0SURgSD+Lu9kMZoXLhwN9O+tukAlrNpJg1SzDH4QW/URgNYgZTkjA4UkwJUgGXng+6DX1zLfmoymdXo17xh5zmRJ6Q42BWCfc2oJfdAr+Yv+AP9Cb7OJ3H/2JG1HNGz/84klThPVCc=);strokeColor=#ffffff;points=[[0.5,1.71,0],[0.5,2.43,0],[0.5,3.14,0],[0.5,3.86,0],[0.5,4.57,0],[0.5,5.29,0],[0.5,6,0],[0.5,6.71,0],[0.5,7.43,0],[0.5,8.14,0],[0.5,8.86,0],[0.5,9.57,0],[0.5,10.29,0],[0.5,11,0],[0.5,11,0],[0.5,11,0],[0.5,11,0],[0.5,11,0],[0.5,11,0],[0.5,11,0],[0.5,11,0],[0.5,11,0],[0.5,11,0],[0.5,11,0],[0.5,11,0],[0.5,11,0],[0.5,11,0],[0.5,11,0],[0.5,11,0],[0.5,11,0],[0.5,11,0],[0.5,11,0],[0.5,11,0],[0.5,11,0],[0.5,11,0],[0.5,11,0],[0.5,11,0],[0.5,11,0],[0.5,11,0],[0.5,11,0],[0.5,11,0],[0.5,11,0],[0.5,11,0],[0.5,11,0],[0.5,11,0],[0.5,11,0],[0.5,11,0],[0.5,11,0],[0.5,11,0],[0.5,11,0],[0.5,11,0],[0.5,11,0],[0.5,11,0],[0.5,11,0],[0.5,11,0],[0.5,11,0],[0.5,11,0],[0.5,11,0],[0.5,11,0],[0.5,11,0],[0.5,11,0],[0.5,11,0],[0.5,11,0],[0.5,11,0],[0.5,11,0],[0.5,11,0],[0.5,11,0],[0.5,11,0],[0.5,11,0],[0.5,11,0],[0.5,11,0],[0.5,11,0],[0.5,11,0],[0.5,11,0],[0.5,11,0],[0.5,11,0],[0.5,11,0],[0.5,11,0],[0.5,11,0],[0.5,11,0],[0.5,11,0],[0.5,11,0],[0.5,11,0],[0.5,11,0],[0.5,11,0],[0.5,11,0],[0.5,11,0],[0.5,11,0],[0.5,11,0],[0.5,11,0],[0.5,11,0],[0.5,11,0],[0.5,11,0],[0.5,11,0],[0.5,11,0],[0.5,11,0],[0.5,11,0],[0.5,11,0],[0.5,11,0],[0.5,11,0]];labelBackgroundColor=none;rounded=0;html=1;whiteSpace=wrap;" parent="1" vertex="1">
            <mxGeometry x="590" y="185" width="101" height="35" as="geometry" />
          </mxCell>
        </UserObject>
        <mxCell id="dF2NslRUXdrEdogQLP5f-2" style="vsdxID=1006;fillColor=#5b9bd5;gradientColor=none;shape=stencil(nZBLDoAgDERP0z3SIyjew0SURgSD+Lu9kMZoXLhwN9O+tukAlrNpJg1SzDH4QW/URgNYgZTkjA4UkwJUgGXng+6DX1zLfmoymdXo17xh5zmRJ6Q42BWCfc2oJfdAr+Yv+AP9Cb7OJ3H/2JG1HNGz/84klThPVCc=);strokeColor=#ffffff;points=[[0.5,1.71,0],[0.5,2.43,0],[0.5,3.14,0],[0.5,3.86,0],[0.5,4.57,0],[0.5,5.29,0],[0.5,6,0],[0.5,6.71,0],[0.5,7.43,0],[0.5,8.14,0],[0.5,8.86,0],[0.5,9.57,0],[0.5,10.29,0],[0.5,11,0],[0.5,11,0],[0.5,11,0],[0.5,11,0],[0.5,11,0],[0.5,11,0],[0.5,11,0],[0.5,11,0],[0.5,11,0],[0.5,11,0],[0.5,11,0],[0.5,11,0],[0.5,11,0],[0.5,11,0],[0.5,11,0],[0.5,11,0],[0.5,11,0],[0.5,11,0],[0.5,11,0],[0.5,11,0],[0.5,11,0],[0.5,11,0],[0.5,11,0],[0.5,11,0],[0.5,11,0],[0.5,11,0],[0.5,11,0],[0.5,11,0],[0.5,11,0],[0.5,11,0],[0.5,11,0],[0.5,11,0],[0.5,11,0],[0.5,11,0],[0.5,11,0],[0.5,11,0],[0.5,11,0],[0.5,11,0],[0.5,11,0],[0.5,11,0],[0.5,11,0],[0.5,11,0],[0.5,11,0],[0.5,11,0],[0.5,11,0],[0.5,11,0],[0.5,11,0],[0.5,11,0],[0.5,11,0],[0.5,11,0],[0.5,11,0],[0.5,11,0],[0.5,11,0],[0.5,11,0],[0.5,11,0],[0.5,11,0],[0.5,11,0],[0.5,11,0],[0.5,11,0],[0.5,11,0],[0.5,11,0],[0.5,11,0],[0.5,11,0],[0.5,11,0],[0.5,11,0],[0.5,11,0],[0.5,11,0],[0.5,11,0],[0.5,11,0],[0.5,11,0],[0.5,11,0],[0.5,11,0],[0.5,11,0],[0.5,11,0],[0.5,11,0],[0.5,11,0],[0.5,11,0],[0.5,11,0],[0.5,11,0],[0.5,11,0],[0.5,11,0],[0.5,11,0],[0.5,11,0],[0.5,11,0],[0.5,11,0],[0.5,11,0],[0.5,11,0]];labelBackgroundColor=none;rounded=0;html=1;whiteSpace=wrap;" parent="dF2NslRUXdrEdogQLP5f-1" vertex="1">
          <mxGeometry x="12" width="76" height="35" as="geometry" />
        </mxCell>
        <mxCell id="dF2NslRUXdrEdogQLP5f-3" style="vsdxID=1007;fillColor=#5b9bd5;gradientColor=none;shape=stencil(1VFBDsIgEHwNRxKE+IJa/7GxSyFiaRa07e+FLImtB+/eZnZmdgkjTJcczCi0SpniHRc/ZCfMRWjtJ4fkc0HC9MJ0NhKOFJ/TwHyG6qzoEV91w8q5s6oRrTamJ8X8yl6gW9GoeZuVtgP9vUitElafJMUM2cfpEA1AI8pyRNoAYwuylBbEeTf+h2cV8Plm60Pglvb6dy1lxJWa/g0=);strokeColor=#ffffff;points=[[0.5,1.71,0],[0.5,2.43,0],[0.5,3.14,0],[0.5,3.86,0],[0.5,4.57,0],[0.5,5.29,0],[0.5,6,0],[0.5,6.71,0],[0.5,7.43,0],[0.5,8.14,0],[0.5,8.86,0],[0.5,9.57,0],[0.5,10.29,0],[0.5,11,0],[0.5,11,0],[0.5,11,0],[0.5,11,0],[0.5,11,0],[0.5,11,0],[0.5,11,0],[0.5,11,0],[0.5,11,0],[0.5,11,0],[0.5,11,0],[0.5,11,0],[0.5,11,0],[0.5,11,0],[0.5,11,0],[0.5,11,0],[0.5,11,0],[0.5,11,0],[0.5,11,0],[0.5,11,0],[0.5,11,0],[0.5,11,0],[0.5,11,0],[0.5,11,0],[0.5,11,0],[0.5,11,0],[0.5,11,0],[0.5,11,0],[0.5,11,0],[0.5,11,0],[0.5,11,0],[0.5,11,0],[0.5,11,0],[0.5,11,0],[0.5,11,0],[0.5,11,0],[0.5,11,0],[0.5,11,0],[0.5,11,0],[0.5,11,0],[0.5,11,0],[0.5,11,0],[0.5,11,0],[0.5,11,0],[0.5,11,0],[0.5,11,0],[0.5,11,0],[0.5,11,0],[0.5,11,0],[0.5,11,0],[0.5,11,0],[0.5,11,0],[0.5,11,0],[0.5,11,0],[0.5,11,0],[0.5,11,0],[0.5,11,0],[0.5,11,0],[0.5,11,0],[0.5,11,0],[0.5,11,0],[0.5,11,0],[0.5,11,0],[0.5,11,0],[0.5,11,0],[0.5,11,0],[0.5,11,0],[0.5,11,0],[0.5,11,0],[0.5,11,0],[0.5,11,0],[0.5,11,0],[0.5,11,0],[0.5,11,0],[0.5,11,0],[0.5,11,0],[0.5,11,0],[0.5,11,0],[0.5,11,0],[0.5,11,0],[0.5,11,0],[0.5,11,0],[0.5,11,0],[0.5,11,0],[0.5,11,0],[0.5,11,0],[0.5,11,0]];labelBackgroundColor=none;rounded=0;html=1;whiteSpace=wrap;" parent="dF2NslRUXdrEdogQLP5f-1" vertex="1">
          <mxGeometry x="38" y="-6" width="25" height="1" as="geometry" />
        </mxCell>
        <mxCell id="dF2NslRUXdrEdogQLP5f-4" value="" style="vsdxID=1009;edgeStyle=none;dashed=1;startArrow=none;endArrow=none;startSize=5;endSize=5;strokeColor=#5088bb;spacingTop=0;spacingBottom=0;spacingLeft=0;spacingRight=0;verticalAlign=middle;html=1;labelBackgroundColor=#ffffff;rounded=0;" parent="dF2NslRUXdrEdogQLP5f-1" edge="1">
          <mxGeometry relative="1" as="geometry">
            <Array as="points" />
            <mxPoint x="50" y="35" as="sourcePoint" />
            <mxPoint x="50" y="615" as="targetPoint" />
          </mxGeometry>
        </mxCell>
        <mxCell id="dF2NslRUXdrEdogQLP5f-5" value="&lt;div style=&quot;font-size: 1px&quot;&gt;&lt;font style=&quot;font-size:16.93px;font-family:Calibri;color:#ffffff;direction:ltr;letter-spacing:0px;line-height:120%;opacity:1&quot;&gt;&lt;b&gt;SuperEats&lt;br/&gt;&lt;/b&gt;&lt;/font&gt;&lt;/div&gt;" style="text;vsdxID=1005;fillColor=none;gradientColor=none;strokeColor=none;points=[[0.5,1.71,0],[0.5,2.43,0],[0.5,3.14,0],[0.5,3.86,0],[0.5,4.57,0],[0.5,5.29,0],[0.5,6,0],[0.5,6.71,0],[0.5,7.43,0],[0.5,8.14,0],[0.5,8.86,0],[0.5,9.57,0],[0.5,10.29,0],[0.5,11,0],[0.5,11,0],[0.5,11,0],[0.5,11,0],[0.5,11,0],[0.5,11,0],[0.5,11,0],[0.5,11,0],[0.5,11,0],[0.5,11,0],[0.5,11,0],[0.5,11,0],[0.5,11,0],[0.5,11,0],[0.5,11,0],[0.5,11,0],[0.5,11,0],[0.5,11,0],[0.5,11,0],[0.5,11,0],[0.5,11,0],[0.5,11,0],[0.5,11,0],[0.5,11,0],[0.5,11,0],[0.5,11,0],[0.5,11,0],[0.5,11,0],[0.5,11,0],[0.5,11,0],[0.5,11,0],[0.5,11,0],[0.5,11,0],[0.5,11,0],[0.5,11,0],[0.5,11,0],[0.5,11,0],[0.5,11,0],[0.5,11,0],[0.5,11,0],[0.5,11,0],[0.5,11,0],[0.5,11,0],[0.5,11,0],[0.5,11,0],[0.5,11,0],[0.5,11,0],[0.5,11,0],[0.5,11,0],[0.5,11,0],[0.5,11,0],[0.5,11,0],[0.5,11,0],[0.5,11,0],[0.5,11,0],[0.5,11,0],[0.5,11,0],[0.5,11,0],[0.5,11,0],[0.5,11,0],[0.5,11,0],[0.5,11,0],[0.5,11,0],[0.5,11,0],[0.5,11,0],[0.5,11,0],[0.5,11,0],[0.5,11,0],[0.5,11,0],[0.5,11,0],[0.5,11,0],[0.5,11,0],[0.5,11,0],[0.5,11,0],[0.5,11,0],[0.5,11,0],[0.5,11,0],[0.5,11,0],[0.5,11,0],[0.5,11,0],[0.5,11,0],[0.5,11,0],[0.5,11,0],[0.5,11,0],[0.5,11,0],[0.5,11,0],[0.5,11,0]];labelBackgroundColor=none;rounded=0;html=1;whiteSpace=wrap;verticalAlign=middle;align=center;overflow=width;;html=1;" parent="dF2NslRUXdrEdogQLP5f-1" vertex="1">
          <mxGeometry y="-0.56" width="101.6" height="35.56" as="geometry" />
        </mxCell>
        <UserObject label="&lt;div style=&quot;font-size: 1px&quot;&gt;&lt;font style=&quot;font-size:11.29px;font-family:Calibri;color:#3a5821;direction:ltr;letter-spacing:0px;line-height:120%;opacity:1&quot;&gt;Select Search(Search)&lt;br&gt;&lt;/font&gt;&lt;/div&gt;" tags="Connector" id="eRoyyGy4NVE06-w4Q1vu-1">
          <mxCell style="vsdxID=1010;edgeStyle=none;startArrow=none;endArrow=block;startSize=2;endSize=7;strokeColor=#65993a;spacingTop=0;spacingBottom=0;spacingLeft=0;spacingRight=0;verticalAlign=middle;html=1;labelBackgroundColor=#ffffff;rounded=0;align=center;exitX=0.5;exitY=1.7428571428571429;exitDx=0;exitDy=0;exitPerimeter=0;" parent="1" edge="1">
            <mxGeometry relative="1" as="geometry">
              <mxPoint x="-1" as="offset" />
              <Array as="points" />
              <mxPoint x="190" y="246" as="sourcePoint" />
              <mxPoint x="640" y="246" as="targetPoint" />
            </mxGeometry>
          </mxCell>
        </UserObject>
        <UserObject label="&lt;div style=&quot;font-size: 1px&quot;&gt;&lt;font style=&quot;font-size:11.29px;font-family:Calibri;color:#3a5821;direction:ltr;letter-spacing:0px;line-height:120%;opacity:1&quot;&gt;Activates rating, delivery time, and closest checkboxes for sorting search results&lt;br&gt;&lt;/font&gt;&lt;/div&gt;" tags="Connector" id="oqgUThgTFzp3L-a4jXyg-1">
          <mxCell style="vsdxID=1014;edgeStyle=none;dashed=1;startArrow=none;endArrow=open;startSize=2;endSize=7;strokeColor=#65993a;spacingTop=0;spacingBottom=0;spacingLeft=0;spacingRight=0;verticalAlign=middle;html=1;labelBackgroundColor=#ffffff;rounded=0;align=center;" parent="1" edge="1">
            <mxGeometry relative="1" as="geometry">
              <mxPoint as="offset" />
              <Array as="points" />
              <mxPoint x="640" y="280" as="sourcePoint" />
              <mxPoint x="190" y="280" as="targetPoint" />
            </mxGeometry>
          </mxCell>
        </UserObject>
        <UserObject label="&lt;div style=&quot;font-size: 1px&quot;&gt;&lt;font style=&quot;font-size:11.29px;font-family:Calibri;color:#3a5821;direction:ltr;letter-spacing:0px;line-height:120%;opacity:1&quot;&gt;Activates 5 miles, 10 miles, and custom buttons for preferred distance from address&lt;br&gt;&lt;/font&gt;&lt;/div&gt;" tags="Connector" id="bpHWd6v7n3eWLD88URhA-1">
          <mxCell style="vsdxID=1014;edgeStyle=none;dashed=1;startArrow=none;endArrow=open;startSize=2;endSize=7;strokeColor=#65993a;spacingTop=0;spacingBottom=0;spacingLeft=0;spacingRight=0;verticalAlign=middle;html=1;labelBackgroundColor=#ffffff;rounded=0;align=center;" edge="1" parent="1">
            <mxGeometry relative="1" as="geometry">
              <mxPoint as="offset" />
              <Array as="points" />
              <mxPoint x="640" y="310" as="sourcePoint" />
              <mxPoint x="190" y="310" as="targetPoint" />
            </mxGeometry>
          </mxCell>
        </UserObject>
        <UserObject label="&lt;div style=&quot;font-size: 1px&quot;&gt;&lt;font style=&quot;font-size:11.29px;font-family:Calibri;color:#3a5821;direction:ltr;letter-spacing:0px;line-height:120%;opacity:1&quot;&gt;Activates Ubereats, DoorDash, Grubhub, Postmates checkboxes for preferred delivery services&amp;nbsp;&lt;br&gt;&lt;/font&gt;&lt;/div&gt;" tags="Connector" id="bpHWd6v7n3eWLD88URhA-2">
          <mxCell style="vsdxID=1014;edgeStyle=none;dashed=1;startArrow=none;endArrow=open;startSize=2;endSize=7;strokeColor=#65993a;spacingTop=0;spacingBottom=0;spacingLeft=0;spacingRight=0;verticalAlign=middle;html=1;labelBackgroundColor=#ffffff;rounded=0;align=center;" edge="1" parent="1">
            <mxGeometry relative="1" as="geometry">
              <mxPoint as="offset" />
              <Array as="points" />
              <mxPoint x="640" y="340" as="sourcePoint" />
              <mxPoint x="190" y="340" as="targetPoint" />
            </mxGeometry>
          </mxCell>
        </UserObject>
        <UserObject label="&lt;div style=&quot;font-size: 1px&quot;&gt;&lt;font style=&quot;font-size:11.29px;font-family:Calibri;color:#3a5821;direction:ltr;letter-spacing:0px;line-height:120%;opacity:1&quot;&gt;Activates food/drink checkboxes for various options&lt;br&gt;&lt;/font&gt;&lt;/div&gt;" tags="Connector" id="bpHWd6v7n3eWLD88URhA-3">
          <mxCell style="vsdxID=1014;edgeStyle=none;dashed=1;startArrow=none;endArrow=open;startSize=2;endSize=7;strokeColor=#65993a;spacingTop=0;spacingBottom=0;spacingLeft=0;spacingRight=0;verticalAlign=middle;html=1;labelBackgroundColor=#ffffff;rounded=0;align=center;" edge="1" parent="1">
            <mxGeometry relative="1" as="geometry">
              <mxPoint as="offset" />
              <Array as="points" />
              <mxPoint x="640" y="360" as="sourcePoint" />
              <mxPoint x="190" y="360" as="targetPoint" />
            </mxGeometry>
          </mxCell>
        </UserObject>
        <UserObject label="&lt;div style=&quot;font-size: 1px&quot;&gt;&lt;font style=&quot;font-size:11.29px;font-family:Calibri;color:#3a5821;direction:ltr;letter-spacing:0px;line-height:120%;opacity:1&quot;&gt;Check Rating Checkbox (Search)&lt;br&gt;&lt;/font&gt;&lt;/div&gt;" tags="Connector" id="bpHWd6v7n3eWLD88URhA-4">
          <mxCell style="vsdxID=1010;edgeStyle=none;startArrow=none;endArrow=block;startSize=2;endSize=7;strokeColor=#65993a;spacingTop=0;spacingBottom=0;spacingLeft=0;spacingRight=0;verticalAlign=middle;html=1;labelBackgroundColor=#ffffff;rounded=0;align=center;exitX=0.5;exitY=1.7428571428571429;exitDx=0;exitDy=0;exitPerimeter=0;" edge="1" parent="1">
            <mxGeometry relative="1" as="geometry">
              <mxPoint x="-1" as="offset" />
              <Array as="points" />
              <mxPoint x="190" y="390" as="sourcePoint" />
              <mxPoint x="640" y="390" as="targetPoint" />
            </mxGeometry>
          </mxCell>
        </UserObject>
        <UserObject label="&lt;div style=&quot;font-size: 1px&quot;&gt;&lt;font style=&quot;font-size:11.29px;font-family:Calibri;color:#3a5821;direction:ltr;letter-spacing:0px;line-height:120%;opacity:1&quot;&gt;Search results will sort by rating&amp;nbsp;&lt;br&gt;&lt;/font&gt;&lt;/div&gt;" tags="Connector" id="bpHWd6v7n3eWLD88URhA-5">
          <mxCell style="vsdxID=1014;edgeStyle=none;dashed=1;startArrow=none;endArrow=open;startSize=2;endSize=7;strokeColor=#65993a;spacingTop=0;spacingBottom=0;spacingLeft=0;spacingRight=0;verticalAlign=middle;html=1;labelBackgroundColor=#ffffff;rounded=0;align=center;" edge="1" parent="1">
            <mxGeometry relative="1" as="geometry">
              <mxPoint as="offset" />
              <Array as="points" />
              <mxPoint x="640" y="420" as="sourcePoint" />
              <mxPoint x="190" y="420" as="targetPoint" />
            </mxGeometry>
          </mxCell>
        </UserObject>
        <UserObject label="&lt;div style=&quot;font-size: 1px&quot;&gt;&lt;font style=&quot;font-size:11.29px;font-family:Calibri;color:#3a5821;direction:ltr;letter-spacing:0px;line-height:120%;opacity:1&quot;&gt;Select 10 miles button(Search)&lt;br&gt;&lt;/font&gt;&lt;/div&gt;" tags="Connector" id="bpHWd6v7n3eWLD88URhA-6">
          <mxCell style="vsdxID=1010;edgeStyle=none;startArrow=none;endArrow=block;startSize=2;endSize=7;strokeColor=#65993a;spacingTop=0;spacingBottom=0;spacingLeft=0;spacingRight=0;verticalAlign=middle;html=1;labelBackgroundColor=#ffffff;rounded=0;align=center;exitX=0.5;exitY=1.7428571428571429;exitDx=0;exitDy=0;exitPerimeter=0;" edge="1" parent="1">
            <mxGeometry relative="1" as="geometry">
              <mxPoint x="-1" as="offset" />
              <Array as="points" />
              <mxPoint x="190" y="450" as="sourcePoint" />
              <mxPoint x="640" y="450" as="targetPoint" />
            </mxGeometry>
          </mxCell>
        </UserObject>
        <UserObject label="&lt;div style=&quot;font-size: 1px&quot;&gt;&lt;font style=&quot;font-size:11.29px;font-family:Calibri;color:#3a5821;direction:ltr;letter-spacing:0px;line-height:120%;opacity:1&quot;&gt;Search results will remain in 10 miles&amp;nbsp;&lt;br&gt;&lt;/font&gt;&lt;/div&gt;" tags="Connector" id="bpHWd6v7n3eWLD88URhA-7">
          <mxCell style="vsdxID=1014;edgeStyle=none;dashed=1;startArrow=none;endArrow=open;startSize=2;endSize=7;strokeColor=#65993a;spacingTop=0;spacingBottom=0;spacingLeft=0;spacingRight=0;verticalAlign=middle;html=1;labelBackgroundColor=#ffffff;rounded=0;align=center;" edge="1" parent="1">
            <mxGeometry relative="1" as="geometry">
              <mxPoint as="offset" />
              <Array as="points" />
              <mxPoint x="640" y="470" as="sourcePoint" />
              <mxPoint x="190" y="470" as="targetPoint" />
            </mxGeometry>
          </mxCell>
        </UserObject>
        <UserObject label="&lt;div style=&quot;font-size: 1px&quot;&gt;&lt;font style=&quot;font-size:11.29px;font-family:Calibri;color:#3a5821;direction:ltr;letter-spacing:0px;line-height:120%;opacity:1&quot;&gt;Select UberEats and DoorDash(Search)&lt;br&gt;&lt;/font&gt;&lt;/div&gt;" tags="Connector" id="bpHWd6v7n3eWLD88URhA-8">
          <mxCell style="vsdxID=1010;edgeStyle=none;startArrow=none;endArrow=block;startSize=2;endSize=7;strokeColor=#65993a;spacingTop=0;spacingBottom=0;spacingLeft=0;spacingRight=0;verticalAlign=middle;html=1;labelBackgroundColor=#ffffff;rounded=0;align=center;exitX=0.5;exitY=1.7428571428571429;exitDx=0;exitDy=0;exitPerimeter=0;" edge="1" parent="1">
            <mxGeometry relative="1" as="geometry">
              <mxPoint x="-1" as="offset" />
              <Array as="points" />
              <mxPoint x="190" y="500" as="sourcePoint" />
              <mxPoint x="640" y="500" as="targetPoint" />
            </mxGeometry>
          </mxCell>
        </UserObject>
        <UserObject label="&lt;div style=&quot;font-size: 1px&quot;&gt;&lt;font style=&quot;font-size:11.29px;font-family:Calibri;color:#3a5821;direction:ltr;letter-spacing:0px;line-height:120%;opacity:1&quot;&gt;Search results will only include Ubereats/DoorDash compatible food services&amp;nbsp;&amp;nbsp;&lt;br&gt;&lt;/font&gt;&lt;/div&gt;" tags="Connector" id="bpHWd6v7n3eWLD88URhA-9">
          <mxCell style="vsdxID=1014;edgeStyle=none;dashed=1;startArrow=none;endArrow=open;startSize=2;endSize=7;strokeColor=#65993a;spacingTop=0;spacingBottom=0;spacingLeft=0;spacingRight=0;verticalAlign=middle;html=1;labelBackgroundColor=#ffffff;rounded=0;align=center;" edge="1" parent="1">
            <mxGeometry relative="1" as="geometry">
              <mxPoint as="offset" />
              <Array as="points" />
              <mxPoint x="640" y="520" as="sourcePoint" />
              <mxPoint x="190" y="520" as="targetPoint" />
            </mxGeometry>
          </mxCell>
        </UserObject>
        <UserObject label="&lt;div style=&quot;font-size: 1px&quot;&gt;&lt;font style=&quot;font-size:11.29px;font-family:Calibri;color:#3a5821;direction:ltr;letter-spacing:0px;line-height:120%;opacity:1&quot;&gt;Select Burger, Fries, and Soda Checkboxes(Search)&lt;br&gt;&lt;/font&gt;&lt;/div&gt;" tags="Connector" id="bpHWd6v7n3eWLD88URhA-10">
          <mxCell style="vsdxID=1010;edgeStyle=none;startArrow=none;endArrow=block;startSize=2;endSize=7;strokeColor=#65993a;spacingTop=0;spacingBottom=0;spacingLeft=0;spacingRight=0;verticalAlign=middle;html=1;labelBackgroundColor=#ffffff;rounded=0;align=center;exitX=0.5;exitY=1.7428571428571429;exitDx=0;exitDy=0;exitPerimeter=0;" edge="1" parent="1">
            <mxGeometry relative="1" as="geometry">
              <mxPoint x="-1" as="offset" />
              <Array as="points" />
              <mxPoint x="190" y="540" as="sourcePoint" />
              <mxPoint x="640" y="540" as="targetPoint" />
            </mxGeometry>
          </mxCell>
        </UserObject>
        <UserObject label="&lt;div style=&quot;font-size: 1px&quot;&gt;&lt;font style=&quot;font-size:11.29px;font-family:Calibri;color:#3a5821;direction:ltr;letter-spacing:0px;line-height:120%;opacity:1&quot;&gt;Search results will only show food services with burgers, fries, and soda available&amp;nbsp;&lt;br&gt;&lt;/font&gt;&lt;/div&gt;" tags="Connector" id="bpHWd6v7n3eWLD88URhA-11">
          <mxCell style="vsdxID=1014;edgeStyle=none;dashed=1;startArrow=none;endArrow=open;startSize=2;endSize=7;strokeColor=#65993a;spacingTop=0;spacingBottom=0;spacingLeft=0;spacingRight=0;verticalAlign=middle;html=1;labelBackgroundColor=#ffffff;rounded=0;align=center;" edge="1" parent="1">
            <mxGeometry relative="1" as="geometry">
              <mxPoint as="offset" />
              <Array as="points" />
              <mxPoint x="640" y="560" as="sourcePoint" />
              <mxPoint x="190" y="560" as="targetPoint" />
            </mxGeometry>
          </mxCell>
        </UserObject>
        <UserObject label="&lt;div style=&quot;font-size: 1px&quot;&gt;&lt;font style=&quot;font-size:11.29px;font-family:Calibri;color:#3a5821;direction:ltr;letter-spacing:0px;line-height:120%;opacity:1&quot;&gt;Type in Requested Food Service (Search)&lt;br&gt;&lt;/font&gt;&lt;/div&gt;" tags="Connector" id="bpHWd6v7n3eWLD88URhA-12">
          <mxCell style="vsdxID=1010;edgeStyle=none;startArrow=none;endArrow=block;startSize=2;endSize=7;strokeColor=#65993a;spacingTop=0;spacingBottom=0;spacingLeft=0;spacingRight=0;verticalAlign=middle;html=1;labelBackgroundColor=#ffffff;rounded=0;align=center;exitX=0.5;exitY=1.7428571428571429;exitDx=0;exitDy=0;exitPerimeter=0;" edge="1" parent="1">
            <mxGeometry relative="1" as="geometry">
              <mxPoint x="-1" as="offset" />
              <Array as="points" />
              <mxPoint x="190" y="590" as="sourcePoint" />
              <mxPoint x="640" y="590" as="targetPoint" />
            </mxGeometry>
          </mxCell>
        </UserObject>
        <UserObject label="&lt;div style=&quot;font-size: 1px&quot;&gt;&lt;font style=&quot;font-size:11.29px;font-family:Calibri;color:#3a5821;direction:ltr;letter-spacing:0px;line-height:120%;opacity:1&quot;&gt;Search button next to search textbox activates&amp;nbsp;&lt;br&gt;&lt;/font&gt;&lt;/div&gt;" tags="Connector" id="bpHWd6v7n3eWLD88URhA-13">
          <mxCell style="vsdxID=1014;edgeStyle=none;dashed=1;startArrow=none;endArrow=open;startSize=2;endSize=7;strokeColor=#65993a;spacingTop=0;spacingBottom=0;spacingLeft=0;spacingRight=0;verticalAlign=middle;html=1;labelBackgroundColor=#ffffff;rounded=0;align=center;" edge="1" parent="1">
            <mxGeometry relative="1" as="geometry">
              <mxPoint as="offset" />
              <Array as="points" />
              <mxPoint x="640" y="620" as="sourcePoint" />
              <mxPoint x="190" y="620" as="targetPoint" />
            </mxGeometry>
          </mxCell>
        </UserObject>
        <UserObject label="&lt;div style=&quot;font-size: 1px&quot;&gt;&lt;font style=&quot;font-size:11.29px;font-family:Calibri;color:#3a5821;direction:ltr;letter-spacing:0px;line-height:120%;opacity:1&quot;&gt;Select Search Button (Search)&lt;br&gt;&lt;/font&gt;&lt;/div&gt;" tags="Connector" id="bpHWd6v7n3eWLD88URhA-14">
          <mxCell style="vsdxID=1010;edgeStyle=none;startArrow=none;endArrow=block;startSize=2;endSize=7;strokeColor=#65993a;spacingTop=0;spacingBottom=0;spacingLeft=0;spacingRight=0;verticalAlign=middle;html=1;labelBackgroundColor=#ffffff;rounded=0;align=center;exitX=0.5;exitY=1.7428571428571429;exitDx=0;exitDy=0;exitPerimeter=0;" edge="1" parent="1">
            <mxGeometry relative="1" as="geometry">
              <mxPoint x="-1" as="offset" />
              <Array as="points" />
              <mxPoint x="190" y="650" as="sourcePoint" />
              <mxPoint x="640" y="650" as="targetPoint" />
            </mxGeometry>
          </mxCell>
        </UserObject>
        <UserObject label="&lt;div style=&quot;font-size: 1px&quot;&gt;&lt;font style=&quot;font-size:11.29px;font-family:Calibri;color:#3a5821;direction:ltr;letter-spacing:0px;line-height:120%;opacity:1&quot;&gt;Results display food services sorted by rating, within 10 miles, and abide to search criteria&lt;br&gt;&lt;/font&gt;&lt;/div&gt;" tags="Connector" id="bpHWd6v7n3eWLD88URhA-15">
          <mxCell style="vsdxID=1014;edgeStyle=none;dashed=1;startArrow=none;endArrow=open;startSize=2;endSize=7;strokeColor=#65993a;spacingTop=0;spacingBottom=0;spacingLeft=0;spacingRight=0;verticalAlign=middle;html=1;labelBackgroundColor=#ffffff;rounded=0;align=center;" edge="1" parent="1">
            <mxGeometry relative="1" as="geometry">
              <mxPoint as="offset" />
              <Array as="points" />
              <mxPoint x="640" y="670" as="sourcePoint" />
              <mxPoint x="190" y="670" as="targetPoint" />
            </mxGeometry>
          </mxCell>
        </UserObject>
        <UserObject label="&lt;div style=&quot;font-size: 1px&quot;&gt;&lt;font style=&quot;font-size:11.29px;font-family:Calibri;color:#3a5821;direction:ltr;letter-spacing:0px;line-height:120%;opacity:1&quot;&gt;Select Food Service (Search)&lt;br&gt;&lt;/font&gt;&lt;/div&gt;" tags="Connector" id="bpHWd6v7n3eWLD88URhA-16">
          <mxCell style="vsdxID=1010;edgeStyle=none;startArrow=none;endArrow=block;startSize=2;endSize=7;strokeColor=#65993a;spacingTop=0;spacingBottom=0;spacingLeft=0;spacingRight=0;verticalAlign=middle;html=1;labelBackgroundColor=#ffffff;rounded=0;align=center;exitX=0.5;exitY=1.7428571428571429;exitDx=0;exitDy=0;exitPerimeter=0;" edge="1" parent="1">
            <mxGeometry relative="1" as="geometry">
              <mxPoint x="-1" as="offset" />
              <Array as="points" />
              <mxPoint x="190" y="690" as="sourcePoint" />
              <mxPoint x="640" y="690" as="targetPoint" />
            </mxGeometry>
          </mxCell>
        </UserObject>
        <UserObject label="&lt;div style=&quot;font-size: 1px&quot;&gt;&lt;font style=&quot;font-size:11.29px;font-family:Calibri;color:#3a5821;direction:ltr;letter-spacing:0px;line-height:120%;opacity:1&quot;&gt;Displays food service location, rating, compatible delivery services, and menu&lt;br&gt;&lt;/font&gt;&lt;/div&gt;" tags="Connector" id="bpHWd6v7n3eWLD88URhA-17">
          <mxCell style="vsdxID=1014;edgeStyle=none;dashed=1;startArrow=none;endArrow=open;startSize=2;endSize=7;strokeColor=#65993a;spacingTop=0;spacingBottom=0;spacingLeft=0;spacingRight=0;verticalAlign=middle;html=1;labelBackgroundColor=#ffffff;rounded=0;align=center;" edge="1" parent="1">
            <mxGeometry relative="1" as="geometry">
              <mxPoint as="offset" />
              <Array as="points" />
              <mxPoint x="640" y="720" as="sourcePoint" />
              <mxPoint x="190" y="720" as="targetPoint" />
            </mxGeometry>
          </mxCell>
        </UserObject>
        <UserObject label="&lt;div style=&quot;font-size: 1px&quot;&gt;&lt;font style=&quot;font-size:11.29px;font-family:Calibri;color:#3a5821;direction:ltr;letter-spacing:0px;line-height:120%;opacity:1&quot;&gt;Select Food/Drinks from Menu (Search)&lt;br&gt;&lt;/font&gt;&lt;/div&gt;" tags="Connector" id="bpHWd6v7n3eWLD88URhA-18">
          <mxCell style="vsdxID=1010;edgeStyle=none;startArrow=none;endArrow=block;startSize=2;endSize=7;strokeColor=#65993a;spacingTop=0;spacingBottom=0;spacingLeft=0;spacingRight=0;verticalAlign=middle;html=1;labelBackgroundColor=#ffffff;rounded=0;align=center;exitX=0.5;exitY=1.7428571428571429;exitDx=0;exitDy=0;exitPerimeter=0;" edge="1" parent="1">
            <mxGeometry relative="1" as="geometry">
              <mxPoint x="-1" as="offset" />
              <Array as="points" />
              <mxPoint x="190" y="750" as="sourcePoint" />
              <mxPoint x="640" y="750" as="targetPoint" />
            </mxGeometry>
          </mxCell>
        </UserObject>
        <UserObject label="&lt;div style=&quot;font-size: 1px&quot;&gt;&lt;font style=&quot;font-size:11.29px;font-family:Calibri;color:#3a5821;direction:ltr;letter-spacing:0px;line-height:120%;opacity:1&quot;&gt;Show projected delivery times for UberEats and DoorDash,&lt;br&gt;&lt;/font&gt;&lt;/div&gt;" tags="Connector" id="bpHWd6v7n3eWLD88URhA-19">
          <mxCell style="vsdxID=1014;edgeStyle=none;dashed=1;startArrow=none;endArrow=open;startSize=2;endSize=7;strokeColor=#65993a;spacingTop=0;spacingBottom=0;spacingLeft=0;spacingRight=0;verticalAlign=middle;html=1;labelBackgroundColor=#ffffff;rounded=0;align=center;" edge="1" parent="1">
            <mxGeometry relative="1" as="geometry">
              <mxPoint as="offset" />
              <Array as="points" />
              <mxPoint x="640" y="770" as="sourcePoint" />
              <mxPoint x="190" y="770" as="targetPoint" />
            </mxGeometry>
          </mxCell>
        </UserObject>
        <UserObject label="&lt;div style=&quot;font-size: 1px&quot;&gt;&lt;font style=&quot;font-size:11.29px;font-family:Calibri;color:#3a5821;direction:ltr;letter-spacing:0px;line-height:120%;opacity:1&quot;&gt;Activate floating view order button on bottom right of the screen&amp;nbsp;&lt;br&gt;&lt;/font&gt;&lt;/div&gt;" tags="Connector" id="bpHWd6v7n3eWLD88URhA-20">
          <mxCell style="vsdxID=1014;edgeStyle=none;dashed=1;startArrow=none;endArrow=open;startSize=2;endSize=7;strokeColor=#65993a;spacingTop=0;spacingBottom=0;spacingLeft=0;spacingRight=0;verticalAlign=middle;html=1;labelBackgroundColor=#ffffff;rounded=0;align=center;" edge="1" parent="1">
            <mxGeometry relative="1" as="geometry">
              <mxPoint as="offset" />
              <Array as="points" />
              <mxPoint x="640" y="790" as="sourcePoint" />
              <mxPoint x="190" y="790" as="targetPoint" />
            </mxGeometry>
          </mxCell>
        </UserObject>
      </root>
    </mxGraphModel>
  </diagram>
  <diagram id="JdYAI9xjjEv6N5sn_mpD" name="Check Order History">
    <mxGraphModel dx="942" dy="502" grid="1" gridSize="10" guides="1" tooltips="1" connect="1" arrows="1" fold="1" page="1" pageScale="1" pageWidth="850" pageHeight="1100" math="0" shadow="0">
      <root>
        <mxCell id="0" />
        <mxCell id="1" parent="0" />
        <UserObject label="" tags="Background" id="fiSik-S3CzaealdvqS8D-1">
          <mxCell style="vsdxID=1000;fillColor=#5b9bd5;gradientColor=none;shape=stencil(nZBLDoAgDERP0z3SIyjew0SURgSD+Lu9kMZoXLhwN9O+tukAlrNpJg1SzDH4QW/URgNYgZTkjA4UkwJUgGXng+6DX1zLfmoymdXo17xh5zmRJ6Q42BWCfc2oJfdAr+Yv+AP9Cb7OJ3H/2JG1HNGz/84klThPVCc=);strokeColor=#ffffff;points=[[0.5,1.71,0],[0.5,2.43,0],[0.5,3.14,0],[0.5,3.86,0],[0.5,4.57,0],[0.5,5.29,0],[0.5,6,0],[0.5,6.71,0],[0.5,7.43,0],[0.5,8.14,0],[0.5,8.86,0],[0.5,9.57,0],[0.5,10.29,0],[0.5,11,0],[0.5,11,0],[0.5,11,0],[0.5,11,0],[0.5,11,0],[0.5,11,0],[0.5,11,0],[0.5,11,0],[0.5,11,0],[0.5,11,0],[0.5,11,0],[0.5,11,0],[0.5,11,0],[0.5,11,0],[0.5,11,0],[0.5,11,0],[0.5,11,0],[0.5,11,0],[0.5,11,0],[0.5,11,0],[0.5,11,0],[0.5,11,0],[0.5,11,0],[0.5,11,0],[0.5,11,0],[0.5,11,0],[0.5,11,0],[0.5,11,0],[0.5,11,0],[0.5,11,0],[0.5,11,0],[0.5,11,0],[0.5,11,0],[0.5,11,0],[0.5,11,0],[0.5,11,0],[0.5,11,0],[0.5,11,0],[0.5,11,0],[0.5,11,0],[0.5,11,0],[0.5,11,0],[0.5,11,0],[0.5,11,0],[0.5,11,0],[0.5,11,0],[0.5,11,0],[0.5,11,0],[0.5,11,0],[0.5,11,0],[0.5,11,0],[0.5,11,0],[0.5,11,0],[0.5,11,0],[0.5,11,0],[0.5,11,0],[0.5,11,0],[0.5,11,0],[0.5,11,0],[0.5,11,0],[0.5,11,0],[0.5,11,0],[0.5,11,0],[0.5,11,0],[0.5,11,0],[0.5,11,0],[0.5,11,0],[0.5,11,0],[0.5,11,0],[0.5,11,0],[0.5,11,0],[0.5,11,0],[0.5,11,0],[0.5,11,0],[0.5,11,0],[0.5,11,0],[0.5,11,0],[0.5,11,0],[0.5,11,0],[0.5,11,0],[0.5,11,0],[0.5,11,0],[0.5,11,0],[0.5,11,0],[0.5,11,0],[0.5,11,0],[0.5,11,0]];labelBackgroundColor=none;rounded=0;html=1;whiteSpace=wrap;" parent="1" vertex="1">
            <mxGeometry x="152" y="185" width="76" height="35" as="geometry" />
          </mxCell>
        </UserObject>
        <mxCell id="fiSik-S3CzaealdvqS8D-2" style="vsdxID=1001;fillColor=#5b9bd5;gradientColor=none;shape=stencil(nZBLDoAgDERP0z3SIyjew0SURgSD+Lu9kMZoXLhwN9O+tukAlrNpJg1SzDH4QW/URgNYgZTkjA4UkwJUgGXng+6DX1zLfmoymdXo17xh5zmRJ6Q42BWCfc2oJfdAr+Yv+AP9Cb7OJ3H/2JG1HNGz/84klThPVCc=);strokeColor=#ffffff;points=[[0.5,1.71,0],[0.5,2.43,0],[0.5,3.14,0],[0.5,3.86,0],[0.5,4.57,0],[0.5,5.29,0],[0.5,6,0],[0.5,6.71,0],[0.5,7.43,0],[0.5,8.14,0],[0.5,8.86,0],[0.5,9.57,0],[0.5,10.29,0],[0.5,11,0],[0.5,11,0],[0.5,11,0],[0.5,11,0],[0.5,11,0],[0.5,11,0],[0.5,11,0],[0.5,11,0],[0.5,11,0],[0.5,11,0],[0.5,11,0],[0.5,11,0],[0.5,11,0],[0.5,11,0],[0.5,11,0],[0.5,11,0],[0.5,11,0],[0.5,11,0],[0.5,11,0],[0.5,11,0],[0.5,11,0],[0.5,11,0],[0.5,11,0],[0.5,11,0],[0.5,11,0],[0.5,11,0],[0.5,11,0],[0.5,11,0],[0.5,11,0],[0.5,11,0],[0.5,11,0],[0.5,11,0],[0.5,11,0],[0.5,11,0],[0.5,11,0],[0.5,11,0],[0.5,11,0],[0.5,11,0],[0.5,11,0],[0.5,11,0],[0.5,11,0],[0.5,11,0],[0.5,11,0],[0.5,11,0],[0.5,11,0],[0.5,11,0],[0.5,11,0],[0.5,11,0],[0.5,11,0],[0.5,11,0],[0.5,11,0],[0.5,11,0],[0.5,11,0],[0.5,11,0],[0.5,11,0],[0.5,11,0],[0.5,11,0],[0.5,11,0],[0.5,11,0],[0.5,11,0],[0.5,11,0],[0.5,11,0],[0.5,11,0],[0.5,11,0],[0.5,11,0],[0.5,11,0],[0.5,11,0],[0.5,11,0],[0.5,11,0],[0.5,11,0],[0.5,11,0],[0.5,11,0],[0.5,11,0],[0.5,11,0],[0.5,11,0],[0.5,11,0],[0.5,11,0],[0.5,11,0],[0.5,11,0],[0.5,11,0],[0.5,11,0],[0.5,11,0],[0.5,11,0],[0.5,11,0],[0.5,11,0],[0.5,11,0],[0.5,11,0]];labelBackgroundColor=none;rounded=0;html=1;whiteSpace=wrap;" parent="fiSik-S3CzaealdvqS8D-1" vertex="1">
          <mxGeometry width="76" height="35" as="geometry" />
        </mxCell>
        <mxCell id="W_Q5ajxuH1KHOglb19dt-1" value="" style="edgeStyle=orthogonalEdgeStyle;rounded=0;orthogonalLoop=1;jettySize=auto;html=1;" parent="fiSik-S3CzaealdvqS8D-1" source="fiSik-S3CzaealdvqS8D-3" target="fiSik-S3CzaealdvqS8D-5" edge="1">
          <mxGeometry relative="1" as="geometry" />
        </mxCell>
        <mxCell id="fiSik-S3CzaealdvqS8D-3" style="vsdxID=1002;fillColor=#5b9bd5;gradientColor=none;shape=stencil(tZTNDoIwDICfZkeSsQXFM+J7LDJgcTJSpuDbu6USgQhBord2/dr1LyU8aUpRS8JoY8FcZKsyWxJ+JIypqpSgrJMITwlPcgOyAHOrMtRr4UkvXc3dR+jQj1HvwugD1ZCifkJWq2qejdaj+wV0K8kXyHCMsmgePaxH++asy2B9XfFmdGkE8ReTjbazux+FXV7E8dLyKTtEBZydCSabAH3HUO1GrZ4Eol0gOtUEYKywylSj7dMCChm4T4Jci+Llh6amlbIePG9O63N9f0nLCe/TkCut8bIM7dNT4p7wDPH0CQ==);strokeColor=#ffffff;points=[[0.5,1.71,0],[0.5,2.43,0],[0.5,3.14,0],[0.5,3.86,0],[0.5,4.57,0],[0.5,5.29,0],[0.5,6,0],[0.5,6.71,0],[0.5,7.43,0],[0.5,8.14,0],[0.5,8.86,0],[0.5,9.57,0],[0.5,10.29,0],[0.5,11,0],[0.5,11,0],[0.5,11,0],[0.5,11,0],[0.5,11,0],[0.5,11,0],[0.5,11,0],[0.5,11,0],[0.5,11,0],[0.5,11,0],[0.5,11,0],[0.5,11,0],[0.5,11,0],[0.5,11,0],[0.5,11,0],[0.5,11,0],[0.5,11,0],[0.5,11,0],[0.5,11,0],[0.5,11,0],[0.5,11,0],[0.5,11,0],[0.5,11,0],[0.5,11,0],[0.5,11,0],[0.5,11,0],[0.5,11,0],[0.5,11,0],[0.5,11,0],[0.5,11,0],[0.5,11,0],[0.5,11,0],[0.5,11,0],[0.5,11,0],[0.5,11,0],[0.5,11,0],[0.5,11,0],[0.5,11,0],[0.5,11,0],[0.5,11,0],[0.5,11,0],[0.5,11,0],[0.5,11,0],[0.5,11,0],[0.5,11,0],[0.5,11,0],[0.5,11,0],[0.5,11,0],[0.5,11,0],[0.5,11,0],[0.5,11,0],[0.5,11,0],[0.5,11,0],[0.5,11,0],[0.5,11,0],[0.5,11,0],[0.5,11,0],[0.5,11,0],[0.5,11,0],[0.5,11,0],[0.5,11,0],[0.5,11,0],[0.5,11,0],[0.5,11,0],[0.5,11,0],[0.5,11,0],[0.5,11,0],[0.5,11,0],[0.5,11,0],[0.5,11,0],[0.5,11,0],[0.5,11,0],[0.5,11,0],[0.5,11,0],[0.5,11,0],[0.5,11,0],[0.5,11,0],[0.5,11,0],[0.5,11,0],[0.5,11,0],[0.5,11,0],[0.5,11,0],[0.5,11,0],[0.5,11,0],[0.5,11,0],[0.5,11,0],[0.5,11,0]];labelBackgroundColor=none;rounded=0;html=1;whiteSpace=wrap;" parent="fiSik-S3CzaealdvqS8D-1" vertex="1">
          <mxGeometry x="25" y="-56" width="25" height="50" as="geometry" />
        </mxCell>
        <mxCell id="fiSik-S3CzaealdvqS8D-4" value="" style="vsdxID=1004;edgeStyle=none;dashed=1;startArrow=none;endArrow=none;startSize=5;endSize=5;strokeColor=#5088bb;spacingTop=0;spacingBottom=0;spacingLeft=0;spacingRight=0;verticalAlign=middle;html=1;labelBackgroundColor=#ffffff;rounded=0;" parent="fiSik-S3CzaealdvqS8D-1" edge="1">
          <mxGeometry relative="1" as="geometry">
            <Array as="points" />
            <mxPoint x="38" y="35" as="sourcePoint" />
            <mxPoint x="38" y="405" as="targetPoint" />
          </mxGeometry>
        </mxCell>
        <mxCell id="fiSik-S3CzaealdvqS8D-5" value="&lt;div style=&quot;font-size: 1px&quot;&gt;&lt;font style=&quot;font-size:16.93px;font-family:Calibri;color:#ffffff;direction:ltr;letter-spacing:0px;line-height:120%;opacity:1&quot;&gt;&lt;b&gt;User&lt;br/&gt;&lt;/b&gt;&lt;/font&gt;&lt;/div&gt;" style="text;vsdxID=1000;fillColor=none;gradientColor=none;strokeColor=none;points=[[0.5,1.71,0],[0.5,2.43,0],[0.5,3.14,0],[0.5,3.86,0],[0.5,4.57,0],[0.5,5.29,0],[0.5,6,0],[0.5,6.71,0],[0.5,7.43,0],[0.5,8.14,0],[0.5,8.86,0],[0.5,9.57,0],[0.5,10.29,0],[0.5,11,0],[0.5,11,0],[0.5,11,0],[0.5,11,0],[0.5,11,0],[0.5,11,0],[0.5,11,0],[0.5,11,0],[0.5,11,0],[0.5,11,0],[0.5,11,0],[0.5,11,0],[0.5,11,0],[0.5,11,0],[0.5,11,0],[0.5,11,0],[0.5,11,0],[0.5,11,0],[0.5,11,0],[0.5,11,0],[0.5,11,0],[0.5,11,0],[0.5,11,0],[0.5,11,0],[0.5,11,0],[0.5,11,0],[0.5,11,0],[0.5,11,0],[0.5,11,0],[0.5,11,0],[0.5,11,0],[0.5,11,0],[0.5,11,0],[0.5,11,0],[0.5,11,0],[0.5,11,0],[0.5,11,0],[0.5,11,0],[0.5,11,0],[0.5,11,0],[0.5,11,0],[0.5,11,0],[0.5,11,0],[0.5,11,0],[0.5,11,0],[0.5,11,0],[0.5,11,0],[0.5,11,0],[0.5,11,0],[0.5,11,0],[0.5,11,0],[0.5,11,0],[0.5,11,0],[0.5,11,0],[0.5,11,0],[0.5,11,0],[0.5,11,0],[0.5,11,0],[0.5,11,0],[0.5,11,0],[0.5,11,0],[0.5,11,0],[0.5,11,0],[0.5,11,0],[0.5,11,0],[0.5,11,0],[0.5,11,0],[0.5,11,0],[0.5,11,0],[0.5,11,0],[0.5,11,0],[0.5,11,0],[0.5,11,0],[0.5,11,0],[0.5,11,0],[0.5,11,0],[0.5,11,0],[0.5,11,0],[0.5,11,0],[0.5,11,0],[0.5,11,0],[0.5,11,0],[0.5,11,0],[0.5,11,0],[0.5,11,0],[0.5,11,0],[0.5,11,0]];labelBackgroundColor=none;rounded=0;html=1;whiteSpace=wrap;verticalAlign=middle;align=center;overflow=width;;html=1;" parent="fiSik-S3CzaealdvqS8D-1" vertex="1">
          <mxGeometry y="-0.56" width="76.2" height="35.56" as="geometry" />
        </mxCell>
        <UserObject label="" tags="Background" id="J_y1N7UQwXZxVYpwLRcL-1">
          <mxCell style="vsdxID=1005;fillColor=#5b9bd5;gradientColor=none;shape=stencil(nZBLDoAgDERP0z3SIyjew0SURgSD+Lu9kMZoXLhwN9O+tukAlrNpJg1SzDH4QW/URgNYgZTkjA4UkwJUgGXng+6DX1zLfmoymdXo17xh5zmRJ6Q42BWCfc2oJfdAr+Yv+AP9Cb7OJ3H/2JG1HNGz/84klThPVCc=);strokeColor=#ffffff;points=[[0.5,1.71,0],[0.5,2.43,0],[0.5,3.14,0],[0.5,3.86,0],[0.5,4.57,0],[0.5,5.29,0],[0.5,6,0],[0.5,6.71,0],[0.5,7.43,0],[0.5,8.14,0],[0.5,8.86,0],[0.5,9.57,0],[0.5,10.29,0],[0.5,11,0],[0.5,11,0],[0.5,11,0],[0.5,11,0],[0.5,11,0],[0.5,11,0],[0.5,11,0],[0.5,11,0],[0.5,11,0],[0.5,11,0],[0.5,11,0],[0.5,11,0],[0.5,11,0],[0.5,11,0],[0.5,11,0],[0.5,11,0],[0.5,11,0],[0.5,11,0],[0.5,11,0],[0.5,11,0],[0.5,11,0],[0.5,11,0],[0.5,11,0],[0.5,11,0],[0.5,11,0],[0.5,11,0],[0.5,11,0],[0.5,11,0],[0.5,11,0],[0.5,11,0],[0.5,11,0],[0.5,11,0],[0.5,11,0],[0.5,11,0],[0.5,11,0],[0.5,11,0],[0.5,11,0],[0.5,11,0],[0.5,11,0],[0.5,11,0],[0.5,11,0],[0.5,11,0],[0.5,11,0],[0.5,11,0],[0.5,11,0],[0.5,11,0],[0.5,11,0],[0.5,11,0],[0.5,11,0],[0.5,11,0],[0.5,11,0],[0.5,11,0],[0.5,11,0],[0.5,11,0],[0.5,11,0],[0.5,11,0],[0.5,11,0],[0.5,11,0],[0.5,11,0],[0.5,11,0],[0.5,11,0],[0.5,11,0],[0.5,11,0],[0.5,11,0],[0.5,11,0],[0.5,11,0],[0.5,11,0],[0.5,11,0],[0.5,11,0],[0.5,11,0],[0.5,11,0],[0.5,11,0],[0.5,11,0],[0.5,11,0],[0.5,11,0],[0.5,11,0],[0.5,11,0],[0.5,11,0],[0.5,11,0],[0.5,11,0],[0.5,11,0],[0.5,11,0],[0.5,11,0],[0.5,11,0],[0.5,11,0],[0.5,11,0],[0.5,11,0]];labelBackgroundColor=none;rounded=0;html=1;whiteSpace=wrap;" parent="1" vertex="1">
            <mxGeometry x="590" y="185" width="101" height="35" as="geometry" />
          </mxCell>
        </UserObject>
        <mxCell id="J_y1N7UQwXZxVYpwLRcL-2" style="vsdxID=1006;fillColor=#5b9bd5;gradientColor=none;shape=stencil(nZBLDoAgDERP0z3SIyjew0SURgSD+Lu9kMZoXLhwN9O+tukAlrNpJg1SzDH4QW/URgNYgZTkjA4UkwJUgGXng+6DX1zLfmoymdXo17xh5zmRJ6Q42BWCfc2oJfdAr+Yv+AP9Cb7OJ3H/2JG1HNGz/84klThPVCc=);strokeColor=#ffffff;points=[[0.5,1.71,0],[0.5,2.43,0],[0.5,3.14,0],[0.5,3.86,0],[0.5,4.57,0],[0.5,5.29,0],[0.5,6,0],[0.5,6.71,0],[0.5,7.43,0],[0.5,8.14,0],[0.5,8.86,0],[0.5,9.57,0],[0.5,10.29,0],[0.5,11,0],[0.5,11,0],[0.5,11,0],[0.5,11,0],[0.5,11,0],[0.5,11,0],[0.5,11,0],[0.5,11,0],[0.5,11,0],[0.5,11,0],[0.5,11,0],[0.5,11,0],[0.5,11,0],[0.5,11,0],[0.5,11,0],[0.5,11,0],[0.5,11,0],[0.5,11,0],[0.5,11,0],[0.5,11,0],[0.5,11,0],[0.5,11,0],[0.5,11,0],[0.5,11,0],[0.5,11,0],[0.5,11,0],[0.5,11,0],[0.5,11,0],[0.5,11,0],[0.5,11,0],[0.5,11,0],[0.5,11,0],[0.5,11,0],[0.5,11,0],[0.5,11,0],[0.5,11,0],[0.5,11,0],[0.5,11,0],[0.5,11,0],[0.5,11,0],[0.5,11,0],[0.5,11,0],[0.5,11,0],[0.5,11,0],[0.5,11,0],[0.5,11,0],[0.5,11,0],[0.5,11,0],[0.5,11,0],[0.5,11,0],[0.5,11,0],[0.5,11,0],[0.5,11,0],[0.5,11,0],[0.5,11,0],[0.5,11,0],[0.5,11,0],[0.5,11,0],[0.5,11,0],[0.5,11,0],[0.5,11,0],[0.5,11,0],[0.5,11,0],[0.5,11,0],[0.5,11,0],[0.5,11,0],[0.5,11,0],[0.5,11,0],[0.5,11,0],[0.5,11,0],[0.5,11,0],[0.5,11,0],[0.5,11,0],[0.5,11,0],[0.5,11,0],[0.5,11,0],[0.5,11,0],[0.5,11,0],[0.5,11,0],[0.5,11,0],[0.5,11,0],[0.5,11,0],[0.5,11,0],[0.5,11,0],[0.5,11,0],[0.5,11,0],[0.5,11,0]];labelBackgroundColor=none;rounded=0;html=1;whiteSpace=wrap;" parent="J_y1N7UQwXZxVYpwLRcL-1" vertex="1">
          <mxGeometry x="12" width="76" height="35" as="geometry" />
        </mxCell>
        <mxCell id="J_y1N7UQwXZxVYpwLRcL-3" style="vsdxID=1007;fillColor=#5b9bd5;gradientColor=none;shape=stencil(1VFBDsIgEHwNRxKE+IJa/7GxSyFiaRa07e+FLImtB+/eZnZmdgkjTJcczCi0SpniHRc/ZCfMRWjtJ4fkc0HC9MJ0NhKOFJ/TwHyG6qzoEV91w8q5s6oRrTamJ8X8yl6gW9GoeZuVtgP9vUitElafJMUM2cfpEA1AI8pyRNoAYwuylBbEeTf+h2cV8Plm60Pglvb6dy1lxJWa/g0=);strokeColor=#ffffff;points=[[0.5,1.71,0],[0.5,2.43,0],[0.5,3.14,0],[0.5,3.86,0],[0.5,4.57,0],[0.5,5.29,0],[0.5,6,0],[0.5,6.71,0],[0.5,7.43,0],[0.5,8.14,0],[0.5,8.86,0],[0.5,9.57,0],[0.5,10.29,0],[0.5,11,0],[0.5,11,0],[0.5,11,0],[0.5,11,0],[0.5,11,0],[0.5,11,0],[0.5,11,0],[0.5,11,0],[0.5,11,0],[0.5,11,0],[0.5,11,0],[0.5,11,0],[0.5,11,0],[0.5,11,0],[0.5,11,0],[0.5,11,0],[0.5,11,0],[0.5,11,0],[0.5,11,0],[0.5,11,0],[0.5,11,0],[0.5,11,0],[0.5,11,0],[0.5,11,0],[0.5,11,0],[0.5,11,0],[0.5,11,0],[0.5,11,0],[0.5,11,0],[0.5,11,0],[0.5,11,0],[0.5,11,0],[0.5,11,0],[0.5,11,0],[0.5,11,0],[0.5,11,0],[0.5,11,0],[0.5,11,0],[0.5,11,0],[0.5,11,0],[0.5,11,0],[0.5,11,0],[0.5,11,0],[0.5,11,0],[0.5,11,0],[0.5,11,0],[0.5,11,0],[0.5,11,0],[0.5,11,0],[0.5,11,0],[0.5,11,0],[0.5,11,0],[0.5,11,0],[0.5,11,0],[0.5,11,0],[0.5,11,0],[0.5,11,0],[0.5,11,0],[0.5,11,0],[0.5,11,0],[0.5,11,0],[0.5,11,0],[0.5,11,0],[0.5,11,0],[0.5,11,0],[0.5,11,0],[0.5,11,0],[0.5,11,0],[0.5,11,0],[0.5,11,0],[0.5,11,0],[0.5,11,0],[0.5,11,0],[0.5,11,0],[0.5,11,0],[0.5,11,0],[0.5,11,0],[0.5,11,0],[0.5,11,0],[0.5,11,0],[0.5,11,0],[0.5,11,0],[0.5,11,0],[0.5,11,0],[0.5,11,0],[0.5,11,0],[0.5,11,0]];labelBackgroundColor=none;rounded=0;html=1;whiteSpace=wrap;" parent="J_y1N7UQwXZxVYpwLRcL-1" vertex="1">
          <mxGeometry x="38" y="-6" width="25" height="1" as="geometry" />
        </mxCell>
        <mxCell id="J_y1N7UQwXZxVYpwLRcL-4" value="" style="vsdxID=1009;edgeStyle=none;dashed=1;startArrow=none;endArrow=none;startSize=5;endSize=5;strokeColor=#5088bb;spacingTop=0;spacingBottom=0;spacingLeft=0;spacingRight=0;verticalAlign=middle;html=1;labelBackgroundColor=#ffffff;rounded=0;" parent="J_y1N7UQwXZxVYpwLRcL-1" edge="1">
          <mxGeometry relative="1" as="geometry">
            <Array as="points" />
            <mxPoint x="50" y="35" as="sourcePoint" />
            <mxPoint x="50" y="405" as="targetPoint" />
          </mxGeometry>
        </mxCell>
        <mxCell id="J_y1N7UQwXZxVYpwLRcL-5" value="&lt;div style=&quot;font-size: 1px&quot;&gt;&lt;font style=&quot;font-size:16.93px;font-family:Calibri;color:#ffffff;direction:ltr;letter-spacing:0px;line-height:120%;opacity:1&quot;&gt;&lt;b&gt;SuperEats&lt;br/&gt;&lt;/b&gt;&lt;/font&gt;&lt;/div&gt;" style="text;vsdxID=1005;fillColor=none;gradientColor=none;strokeColor=none;points=[[0.5,1.71,0],[0.5,2.43,0],[0.5,3.14,0],[0.5,3.86,0],[0.5,4.57,0],[0.5,5.29,0],[0.5,6,0],[0.5,6.71,0],[0.5,7.43,0],[0.5,8.14,0],[0.5,8.86,0],[0.5,9.57,0],[0.5,10.29,0],[0.5,11,0],[0.5,11,0],[0.5,11,0],[0.5,11,0],[0.5,11,0],[0.5,11,0],[0.5,11,0],[0.5,11,0],[0.5,11,0],[0.5,11,0],[0.5,11,0],[0.5,11,0],[0.5,11,0],[0.5,11,0],[0.5,11,0],[0.5,11,0],[0.5,11,0],[0.5,11,0],[0.5,11,0],[0.5,11,0],[0.5,11,0],[0.5,11,0],[0.5,11,0],[0.5,11,0],[0.5,11,0],[0.5,11,0],[0.5,11,0],[0.5,11,0],[0.5,11,0],[0.5,11,0],[0.5,11,0],[0.5,11,0],[0.5,11,0],[0.5,11,0],[0.5,11,0],[0.5,11,0],[0.5,11,0],[0.5,11,0],[0.5,11,0],[0.5,11,0],[0.5,11,0],[0.5,11,0],[0.5,11,0],[0.5,11,0],[0.5,11,0],[0.5,11,0],[0.5,11,0],[0.5,11,0],[0.5,11,0],[0.5,11,0],[0.5,11,0],[0.5,11,0],[0.5,11,0],[0.5,11,0],[0.5,11,0],[0.5,11,0],[0.5,11,0],[0.5,11,0],[0.5,11,0],[0.5,11,0],[0.5,11,0],[0.5,11,0],[0.5,11,0],[0.5,11,0],[0.5,11,0],[0.5,11,0],[0.5,11,0],[0.5,11,0],[0.5,11,0],[0.5,11,0],[0.5,11,0],[0.5,11,0],[0.5,11,0],[0.5,11,0],[0.5,11,0],[0.5,11,0],[0.5,11,0],[0.5,11,0],[0.5,11,0],[0.5,11,0],[0.5,11,0],[0.5,11,0],[0.5,11,0],[0.5,11,0],[0.5,11,0],[0.5,11,0],[0.5,11,0]];labelBackgroundColor=none;rounded=0;html=1;whiteSpace=wrap;verticalAlign=middle;align=center;overflow=width;;html=1;" parent="J_y1N7UQwXZxVYpwLRcL-1" vertex="1">
          <mxGeometry y="-0.56" width="101.6" height="35.56" as="geometry" />
        </mxCell>
        <UserObject label="&lt;div style=&quot;font-size: 1px&quot;&gt;&lt;font style=&quot;font-size:11.29px;font-family:Calibri;color:#3a5821;direction:ltr;letter-spacing:0px;line-height:120%;opacity:1&quot;&gt;Select Order History Tab(Orders)&lt;br&gt;&lt;/font&gt;&lt;/div&gt;" tags="Connector" id="i6Qk9xOaCiQwNqe4fEL7-1">
          <mxCell style="vsdxID=1010;edgeStyle=none;startArrow=none;endArrow=block;startSize=2;endSize=7;strokeColor=#65993a;spacingTop=0;spacingBottom=0;spacingLeft=0;spacingRight=0;verticalAlign=middle;html=1;labelBackgroundColor=#ffffff;rounded=0;align=center;exitX=0.5;exitY=1.7428571428571429;exitDx=0;exitDy=0;exitPerimeter=0;" parent="1" edge="1">
            <mxGeometry relative="1" as="geometry">
              <mxPoint x="-1" as="offset" />
              <Array as="points" />
              <mxPoint x="190" y="246" as="sourcePoint" />
              <mxPoint x="640" y="246" as="targetPoint" />
            </mxGeometry>
          </mxCell>
        </UserObject>
        <UserObject label="&lt;div style=&quot;font-size: 1px&quot;&gt;&lt;font style=&quot;font-size:11.29px;font-family:Calibri;color:#3a5821;direction:ltr;letter-spacing:0px;line-height:120%;opacity:1&quot;&gt;Display previos orders, order dates, order times, food service, and food service location&lt;br&gt;&lt;/font&gt;&lt;/div&gt;" tags="Connector" id="-lchnFyT2fxzkEakCNnS-1">
          <mxCell style="vsdxID=1014;edgeStyle=none;dashed=1;startArrow=none;endArrow=open;startSize=2;endSize=7;strokeColor=#65993a;spacingTop=0;spacingBottom=0;spacingLeft=0;spacingRight=0;verticalAlign=middle;html=1;labelBackgroundColor=#ffffff;rounded=0;align=center;" parent="1" edge="1">
            <mxGeometry relative="1" as="geometry">
              <mxPoint as="offset" />
              <Array as="points" />
              <mxPoint x="640" y="280" as="sourcePoint" />
              <mxPoint x="190" y="280" as="targetPoint" />
            </mxGeometry>
          </mxCell>
        </UserObject>
        <UserObject label="&lt;div style=&quot;font-size: 1px&quot;&gt;&lt;font style=&quot;font-size:11.29px;font-family:Calibri;color:#3a5821;direction:ltr;letter-spacing:0px;line-height:120%;opacity:1&quot;&gt;Activates view store button for each order&lt;br&gt;&lt;/font&gt;&lt;/div&gt;" tags="Connector" id="MWgChof2p1C43gR_F9tI-1">
          <mxCell style="vsdxID=1014;edgeStyle=none;dashed=1;startArrow=none;endArrow=open;startSize=2;endSize=7;strokeColor=#65993a;spacingTop=0;spacingBottom=0;spacingLeft=0;spacingRight=0;verticalAlign=middle;html=1;labelBackgroundColor=#ffffff;rounded=0;align=center;" edge="1" parent="1">
            <mxGeometry relative="1" as="geometry">
              <mxPoint as="offset" />
              <Array as="points" />
              <mxPoint x="640" y="300" as="sourcePoint" />
              <mxPoint x="190" y="300" as="targetPoint" />
            </mxGeometry>
          </mxCell>
        </UserObject>
        <UserObject label="&lt;div style=&quot;font-size: 1px&quot;&gt;&lt;font style=&quot;font-size:11.29px;font-family:Calibri;color:#3a5821;direction:ltr;letter-spacing:0px;line-height:120%;opacity:1&quot;&gt;Activates reorder button&lt;br&gt;&lt;/font&gt;&lt;/div&gt;" tags="Connector" id="MWgChof2p1C43gR_F9tI-2">
          <mxCell style="vsdxID=1014;edgeStyle=none;dashed=1;startArrow=none;endArrow=open;startSize=2;endSize=7;strokeColor=#65993a;spacingTop=0;spacingBottom=0;spacingLeft=0;spacingRight=0;verticalAlign=middle;html=1;labelBackgroundColor=#ffffff;rounded=0;align=center;" edge="1" parent="1">
            <mxGeometry relative="1" as="geometry">
              <mxPoint as="offset" />
              <Array as="points" />
              <mxPoint x="640" y="320" as="sourcePoint" />
              <mxPoint x="190" y="320" as="targetPoint" />
            </mxGeometry>
          </mxCell>
        </UserObject>
      </root>
    </mxGraphModel>
  </diagram>
  <diagram id="Qxc9iSS_h5_I0IJtQNJc" name="Create Order">
    <mxGraphModel dx="942" dy="502" grid="1" gridSize="10" guides="1" tooltips="1" connect="1" arrows="1" fold="1" page="1" pageScale="1" pageWidth="850" pageHeight="1100" math="0" shadow="0">
      <root>
        <mxCell id="0" />
        <mxCell id="1" parent="0" />
        <UserObject label="" tags="Background" id="Ge7_V3F8TQJihdQr6miY-1">
          <mxCell style="vsdxID=1000;fillColor=#5b9bd5;gradientColor=none;shape=stencil(nZBLDoAgDERP0z3SIyjew0SURgSD+Lu9kMZoXLhwN9O+tukAlrNpJg1SzDH4QW/URgNYgZTkjA4UkwJUgGXng+6DX1zLfmoymdXo17xh5zmRJ6Q42BWCfc2oJfdAr+Yv+AP9Cb7OJ3H/2JG1HNGz/84klThPVCc=);strokeColor=#ffffff;points=[[0.5,1.71,0],[0.5,2.43,0],[0.5,3.14,0],[0.5,3.86,0],[0.5,4.57,0],[0.5,5.29,0],[0.5,6,0],[0.5,6.71,0],[0.5,7.43,0],[0.5,8.14,0],[0.5,8.86,0],[0.5,9.57,0],[0.5,10.29,0],[0.5,11,0],[0.5,11,0],[0.5,11,0],[0.5,11,0],[0.5,11,0],[0.5,11,0],[0.5,11,0],[0.5,11,0],[0.5,11,0],[0.5,11,0],[0.5,11,0],[0.5,11,0],[0.5,11,0],[0.5,11,0],[0.5,11,0],[0.5,11,0],[0.5,11,0],[0.5,11,0],[0.5,11,0],[0.5,11,0],[0.5,11,0],[0.5,11,0],[0.5,11,0],[0.5,11,0],[0.5,11,0],[0.5,11,0],[0.5,11,0],[0.5,11,0],[0.5,11,0],[0.5,11,0],[0.5,11,0],[0.5,11,0],[0.5,11,0],[0.5,11,0],[0.5,11,0],[0.5,11,0],[0.5,11,0],[0.5,11,0],[0.5,11,0],[0.5,11,0],[0.5,11,0],[0.5,11,0],[0.5,11,0],[0.5,11,0],[0.5,11,0],[0.5,11,0],[0.5,11,0],[0.5,11,0],[0.5,11,0],[0.5,11,0],[0.5,11,0],[0.5,11,0],[0.5,11,0],[0.5,11,0],[0.5,11,0],[0.5,11,0],[0.5,11,0],[0.5,11,0],[0.5,11,0],[0.5,11,0],[0.5,11,0],[0.5,11,0],[0.5,11,0],[0.5,11,0],[0.5,11,0],[0.5,11,0],[0.5,11,0],[0.5,11,0],[0.5,11,0],[0.5,11,0],[0.5,11,0],[0.5,11,0],[0.5,11,0],[0.5,11,0],[0.5,11,0],[0.5,11,0],[0.5,11,0],[0.5,11,0],[0.5,11,0],[0.5,11,0],[0.5,11,0],[0.5,11,0],[0.5,11,0],[0.5,11,0],[0.5,11,0],[0.5,11,0],[0.5,11,0]];labelBackgroundColor=none;rounded=0;html=1;whiteSpace=wrap;" vertex="1" parent="1">
            <mxGeometry x="152" y="185" width="76" height="35" as="geometry" />
          </mxCell>
        </UserObject>
        <mxCell id="Ge7_V3F8TQJihdQr6miY-2" style="vsdxID=1001;fillColor=#5b9bd5;gradientColor=none;shape=stencil(nZBLDoAgDERP0z3SIyjew0SURgSD+Lu9kMZoXLhwN9O+tukAlrNpJg1SzDH4QW/URgNYgZTkjA4UkwJUgGXng+6DX1zLfmoymdXo17xh5zmRJ6Q42BWCfc2oJfdAr+Yv+AP9Cb7OJ3H/2JG1HNGz/84klThPVCc=);strokeColor=#ffffff;points=[[0.5,1.71,0],[0.5,2.43,0],[0.5,3.14,0],[0.5,3.86,0],[0.5,4.57,0],[0.5,5.29,0],[0.5,6,0],[0.5,6.71,0],[0.5,7.43,0],[0.5,8.14,0],[0.5,8.86,0],[0.5,9.57,0],[0.5,10.29,0],[0.5,11,0],[0.5,11,0],[0.5,11,0],[0.5,11,0],[0.5,11,0],[0.5,11,0],[0.5,11,0],[0.5,11,0],[0.5,11,0],[0.5,11,0],[0.5,11,0],[0.5,11,0],[0.5,11,0],[0.5,11,0],[0.5,11,0],[0.5,11,0],[0.5,11,0],[0.5,11,0],[0.5,11,0],[0.5,11,0],[0.5,11,0],[0.5,11,0],[0.5,11,0],[0.5,11,0],[0.5,11,0],[0.5,11,0],[0.5,11,0],[0.5,11,0],[0.5,11,0],[0.5,11,0],[0.5,11,0],[0.5,11,0],[0.5,11,0],[0.5,11,0],[0.5,11,0],[0.5,11,0],[0.5,11,0],[0.5,11,0],[0.5,11,0],[0.5,11,0],[0.5,11,0],[0.5,11,0],[0.5,11,0],[0.5,11,0],[0.5,11,0],[0.5,11,0],[0.5,11,0],[0.5,11,0],[0.5,11,0],[0.5,11,0],[0.5,11,0],[0.5,11,0],[0.5,11,0],[0.5,11,0],[0.5,11,0],[0.5,11,0],[0.5,11,0],[0.5,11,0],[0.5,11,0],[0.5,11,0],[0.5,11,0],[0.5,11,0],[0.5,11,0],[0.5,11,0],[0.5,11,0],[0.5,11,0],[0.5,11,0],[0.5,11,0],[0.5,11,0],[0.5,11,0],[0.5,11,0],[0.5,11,0],[0.5,11,0],[0.5,11,0],[0.5,11,0],[0.5,11,0],[0.5,11,0],[0.5,11,0],[0.5,11,0],[0.5,11,0],[0.5,11,0],[0.5,11,0],[0.5,11,0],[0.5,11,0],[0.5,11,0],[0.5,11,0],[0.5,11,0]];labelBackgroundColor=none;rounded=0;html=1;whiteSpace=wrap;" vertex="1" parent="Ge7_V3F8TQJihdQr6miY-1">
          <mxGeometry width="76" height="35" as="geometry" />
        </mxCell>
        <mxCell id="Ge7_V3F8TQJihdQr6miY-3" value="" style="edgeStyle=orthogonalEdgeStyle;rounded=0;orthogonalLoop=1;jettySize=auto;html=1;" edge="1" parent="Ge7_V3F8TQJihdQr6miY-1" source="Ge7_V3F8TQJihdQr6miY-4" target="Ge7_V3F8TQJihdQr6miY-6">
          <mxGeometry relative="1" as="geometry" />
        </mxCell>
        <mxCell id="Ge7_V3F8TQJihdQr6miY-4" style="vsdxID=1002;fillColor=#5b9bd5;gradientColor=none;shape=stencil(tZTNDoIwDICfZkeSsQXFM+J7LDJgcTJSpuDbu6USgQhBord2/dr1LyU8aUpRS8JoY8FcZKsyWxJ+JIypqpSgrJMITwlPcgOyAHOrMtRr4UkvXc3dR+jQj1HvwugD1ZCifkJWq2qejdaj+wV0K8kXyHCMsmgePaxH++asy2B9XfFmdGkE8ReTjbazux+FXV7E8dLyKTtEBZydCSabAH3HUO1GrZ4Eol0gOtUEYKywylSj7dMCChm4T4Jci+Llh6amlbIePG9O63N9f0nLCe/TkCut8bIM7dNT4p7wDPH0CQ==);strokeColor=#ffffff;points=[[0.5,1.71,0],[0.5,2.43,0],[0.5,3.14,0],[0.5,3.86,0],[0.5,4.57,0],[0.5,5.29,0],[0.5,6,0],[0.5,6.71,0],[0.5,7.43,0],[0.5,8.14,0],[0.5,8.86,0],[0.5,9.57,0],[0.5,10.29,0],[0.5,11,0],[0.5,11,0],[0.5,11,0],[0.5,11,0],[0.5,11,0],[0.5,11,0],[0.5,11,0],[0.5,11,0],[0.5,11,0],[0.5,11,0],[0.5,11,0],[0.5,11,0],[0.5,11,0],[0.5,11,0],[0.5,11,0],[0.5,11,0],[0.5,11,0],[0.5,11,0],[0.5,11,0],[0.5,11,0],[0.5,11,0],[0.5,11,0],[0.5,11,0],[0.5,11,0],[0.5,11,0],[0.5,11,0],[0.5,11,0],[0.5,11,0],[0.5,11,0],[0.5,11,0],[0.5,11,0],[0.5,11,0],[0.5,11,0],[0.5,11,0],[0.5,11,0],[0.5,11,0],[0.5,11,0],[0.5,11,0],[0.5,11,0],[0.5,11,0],[0.5,11,0],[0.5,11,0],[0.5,11,0],[0.5,11,0],[0.5,11,0],[0.5,11,0],[0.5,11,0],[0.5,11,0],[0.5,11,0],[0.5,11,0],[0.5,11,0],[0.5,11,0],[0.5,11,0],[0.5,11,0],[0.5,11,0],[0.5,11,0],[0.5,11,0],[0.5,11,0],[0.5,11,0],[0.5,11,0],[0.5,11,0],[0.5,11,0],[0.5,11,0],[0.5,11,0],[0.5,11,0],[0.5,11,0],[0.5,11,0],[0.5,11,0],[0.5,11,0],[0.5,11,0],[0.5,11,0],[0.5,11,0],[0.5,11,0],[0.5,11,0],[0.5,11,0],[0.5,11,0],[0.5,11,0],[0.5,11,0],[0.5,11,0],[0.5,11,0],[0.5,11,0],[0.5,11,0],[0.5,11,0],[0.5,11,0],[0.5,11,0],[0.5,11,0],[0.5,11,0]];labelBackgroundColor=none;rounded=0;html=1;whiteSpace=wrap;" vertex="1" parent="Ge7_V3F8TQJihdQr6miY-1">
          <mxGeometry x="25" y="-56" width="25" height="50" as="geometry" />
        </mxCell>
        <mxCell id="Ge7_V3F8TQJihdQr6miY-5" value="" style="vsdxID=1004;edgeStyle=none;dashed=1;startArrow=none;endArrow=none;startSize=5;endSize=5;strokeColor=#5088bb;spacingTop=0;spacingBottom=0;spacingLeft=0;spacingRight=0;verticalAlign=middle;html=1;labelBackgroundColor=#ffffff;rounded=0;" edge="1" parent="Ge7_V3F8TQJihdQr6miY-1">
          <mxGeometry relative="1" as="geometry">
            <Array as="points" />
            <mxPoint x="38" y="35" as="sourcePoint" />
            <mxPoint x="38" y="455" as="targetPoint" />
          </mxGeometry>
        </mxCell>
        <mxCell id="Ge7_V3F8TQJihdQr6miY-6" value="&lt;div style=&quot;font-size: 1px&quot;&gt;&lt;font style=&quot;font-size:16.93px;font-family:Calibri;color:#ffffff;direction:ltr;letter-spacing:0px;line-height:120%;opacity:1&quot;&gt;&lt;b&gt;User&lt;br/&gt;&lt;/b&gt;&lt;/font&gt;&lt;/div&gt;" style="text;vsdxID=1000;fillColor=none;gradientColor=none;strokeColor=none;points=[[0.5,1.71,0],[0.5,2.43,0],[0.5,3.14,0],[0.5,3.86,0],[0.5,4.57,0],[0.5,5.29,0],[0.5,6,0],[0.5,6.71,0],[0.5,7.43,0],[0.5,8.14,0],[0.5,8.86,0],[0.5,9.57,0],[0.5,10.29,0],[0.5,11,0],[0.5,11,0],[0.5,11,0],[0.5,11,0],[0.5,11,0],[0.5,11,0],[0.5,11,0],[0.5,11,0],[0.5,11,0],[0.5,11,0],[0.5,11,0],[0.5,11,0],[0.5,11,0],[0.5,11,0],[0.5,11,0],[0.5,11,0],[0.5,11,0],[0.5,11,0],[0.5,11,0],[0.5,11,0],[0.5,11,0],[0.5,11,0],[0.5,11,0],[0.5,11,0],[0.5,11,0],[0.5,11,0],[0.5,11,0],[0.5,11,0],[0.5,11,0],[0.5,11,0],[0.5,11,0],[0.5,11,0],[0.5,11,0],[0.5,11,0],[0.5,11,0],[0.5,11,0],[0.5,11,0],[0.5,11,0],[0.5,11,0],[0.5,11,0],[0.5,11,0],[0.5,11,0],[0.5,11,0],[0.5,11,0],[0.5,11,0],[0.5,11,0],[0.5,11,0],[0.5,11,0],[0.5,11,0],[0.5,11,0],[0.5,11,0],[0.5,11,0],[0.5,11,0],[0.5,11,0],[0.5,11,0],[0.5,11,0],[0.5,11,0],[0.5,11,0],[0.5,11,0],[0.5,11,0],[0.5,11,0],[0.5,11,0],[0.5,11,0],[0.5,11,0],[0.5,11,0],[0.5,11,0],[0.5,11,0],[0.5,11,0],[0.5,11,0],[0.5,11,0],[0.5,11,0],[0.5,11,0],[0.5,11,0],[0.5,11,0],[0.5,11,0],[0.5,11,0],[0.5,11,0],[0.5,11,0],[0.5,11,0],[0.5,11,0],[0.5,11,0],[0.5,11,0],[0.5,11,0],[0.5,11,0],[0.5,11,0],[0.5,11,0],[0.5,11,0]];labelBackgroundColor=none;rounded=0;html=1;whiteSpace=wrap;verticalAlign=middle;align=center;overflow=width;;html=1;" vertex="1" parent="Ge7_V3F8TQJihdQr6miY-1">
          <mxGeometry y="-0.56" width="76.2" height="35.56" as="geometry" />
        </mxCell>
        <UserObject label="" tags="Background" id="dEU4oQ4snKWN6Tm-a_pI-1">
          <mxCell style="vsdxID=1005;fillColor=#5b9bd5;gradientColor=none;shape=stencil(nZBLDoAgDERP0z3SIyjew0SURgSD+Lu9kMZoXLhwN9O+tukAlrNpJg1SzDH4QW/URgNYgZTkjA4UkwJUgGXng+6DX1zLfmoymdXo17xh5zmRJ6Q42BWCfc2oJfdAr+Yv+AP9Cb7OJ3H/2JG1HNGz/84klThPVCc=);strokeColor=#ffffff;points=[[0.5,1.71,0],[0.5,2.43,0],[0.5,3.14,0],[0.5,3.86,0],[0.5,4.57,0],[0.5,5.29,0],[0.5,6,0],[0.5,6.71,0],[0.5,7.43,0],[0.5,8.14,0],[0.5,8.86,0],[0.5,9.57,0],[0.5,10.29,0],[0.5,11,0],[0.5,11,0],[0.5,11,0],[0.5,11,0],[0.5,11,0],[0.5,11,0],[0.5,11,0],[0.5,11,0],[0.5,11,0],[0.5,11,0],[0.5,11,0],[0.5,11,0],[0.5,11,0],[0.5,11,0],[0.5,11,0],[0.5,11,0],[0.5,11,0],[0.5,11,0],[0.5,11,0],[0.5,11,0],[0.5,11,0],[0.5,11,0],[0.5,11,0],[0.5,11,0],[0.5,11,0],[0.5,11,0],[0.5,11,0],[0.5,11,0],[0.5,11,0],[0.5,11,0],[0.5,11,0],[0.5,11,0],[0.5,11,0],[0.5,11,0],[0.5,11,0],[0.5,11,0],[0.5,11,0],[0.5,11,0],[0.5,11,0],[0.5,11,0],[0.5,11,0],[0.5,11,0],[0.5,11,0],[0.5,11,0],[0.5,11,0],[0.5,11,0],[0.5,11,0],[0.5,11,0],[0.5,11,0],[0.5,11,0],[0.5,11,0],[0.5,11,0],[0.5,11,0],[0.5,11,0],[0.5,11,0],[0.5,11,0],[0.5,11,0],[0.5,11,0],[0.5,11,0],[0.5,11,0],[0.5,11,0],[0.5,11,0],[0.5,11,0],[0.5,11,0],[0.5,11,0],[0.5,11,0],[0.5,11,0],[0.5,11,0],[0.5,11,0],[0.5,11,0],[0.5,11,0],[0.5,11,0],[0.5,11,0],[0.5,11,0],[0.5,11,0],[0.5,11,0],[0.5,11,0],[0.5,11,0],[0.5,11,0],[0.5,11,0],[0.5,11,0],[0.5,11,0],[0.5,11,0],[0.5,11,0],[0.5,11,0],[0.5,11,0],[0.5,11,0]];labelBackgroundColor=none;rounded=0;html=1;whiteSpace=wrap;" vertex="1" parent="1">
            <mxGeometry x="590" y="185" width="101" height="35" as="geometry" />
          </mxCell>
        </UserObject>
        <mxCell id="dEU4oQ4snKWN6Tm-a_pI-2" style="vsdxID=1006;fillColor=#5b9bd5;gradientColor=none;shape=stencil(nZBLDoAgDERP0z3SIyjew0SURgSD+Lu9kMZoXLhwN9O+tukAlrNpJg1SzDH4QW/URgNYgZTkjA4UkwJUgGXng+6DX1zLfmoymdXo17xh5zmRJ6Q42BWCfc2oJfdAr+Yv+AP9Cb7OJ3H/2JG1HNGz/84klThPVCc=);strokeColor=#ffffff;points=[[0.5,1.71,0],[0.5,2.43,0],[0.5,3.14,0],[0.5,3.86,0],[0.5,4.57,0],[0.5,5.29,0],[0.5,6,0],[0.5,6.71,0],[0.5,7.43,0],[0.5,8.14,0],[0.5,8.86,0],[0.5,9.57,0],[0.5,10.29,0],[0.5,11,0],[0.5,11,0],[0.5,11,0],[0.5,11,0],[0.5,11,0],[0.5,11,0],[0.5,11,0],[0.5,11,0],[0.5,11,0],[0.5,11,0],[0.5,11,0],[0.5,11,0],[0.5,11,0],[0.5,11,0],[0.5,11,0],[0.5,11,0],[0.5,11,0],[0.5,11,0],[0.5,11,0],[0.5,11,0],[0.5,11,0],[0.5,11,0],[0.5,11,0],[0.5,11,0],[0.5,11,0],[0.5,11,0],[0.5,11,0],[0.5,11,0],[0.5,11,0],[0.5,11,0],[0.5,11,0],[0.5,11,0],[0.5,11,0],[0.5,11,0],[0.5,11,0],[0.5,11,0],[0.5,11,0],[0.5,11,0],[0.5,11,0],[0.5,11,0],[0.5,11,0],[0.5,11,0],[0.5,11,0],[0.5,11,0],[0.5,11,0],[0.5,11,0],[0.5,11,0],[0.5,11,0],[0.5,11,0],[0.5,11,0],[0.5,11,0],[0.5,11,0],[0.5,11,0],[0.5,11,0],[0.5,11,0],[0.5,11,0],[0.5,11,0],[0.5,11,0],[0.5,11,0],[0.5,11,0],[0.5,11,0],[0.5,11,0],[0.5,11,0],[0.5,11,0],[0.5,11,0],[0.5,11,0],[0.5,11,0],[0.5,11,0],[0.5,11,0],[0.5,11,0],[0.5,11,0],[0.5,11,0],[0.5,11,0],[0.5,11,0],[0.5,11,0],[0.5,11,0],[0.5,11,0],[0.5,11,0],[0.5,11,0],[0.5,11,0],[0.5,11,0],[0.5,11,0],[0.5,11,0],[0.5,11,0],[0.5,11,0],[0.5,11,0],[0.5,11,0]];labelBackgroundColor=none;rounded=0;html=1;whiteSpace=wrap;" vertex="1" parent="dEU4oQ4snKWN6Tm-a_pI-1">
          <mxGeometry x="12" width="76" height="35" as="geometry" />
        </mxCell>
        <mxCell id="dEU4oQ4snKWN6Tm-a_pI-3" style="vsdxID=1007;fillColor=#5b9bd5;gradientColor=none;shape=stencil(1VFBDsIgEHwNRxKE+IJa/7GxSyFiaRa07e+FLImtB+/eZnZmdgkjTJcczCi0SpniHRc/ZCfMRWjtJ4fkc0HC9MJ0NhKOFJ/TwHyG6qzoEV91w8q5s6oRrTamJ8X8yl6gW9GoeZuVtgP9vUitElafJMUM2cfpEA1AI8pyRNoAYwuylBbEeTf+h2cV8Plm60Pglvb6dy1lxJWa/g0=);strokeColor=#ffffff;points=[[0.5,1.71,0],[0.5,2.43,0],[0.5,3.14,0],[0.5,3.86,0],[0.5,4.57,0],[0.5,5.29,0],[0.5,6,0],[0.5,6.71,0],[0.5,7.43,0],[0.5,8.14,0],[0.5,8.86,0],[0.5,9.57,0],[0.5,10.29,0],[0.5,11,0],[0.5,11,0],[0.5,11,0],[0.5,11,0],[0.5,11,0],[0.5,11,0],[0.5,11,0],[0.5,11,0],[0.5,11,0],[0.5,11,0],[0.5,11,0],[0.5,11,0],[0.5,11,0],[0.5,11,0],[0.5,11,0],[0.5,11,0],[0.5,11,0],[0.5,11,0],[0.5,11,0],[0.5,11,0],[0.5,11,0],[0.5,11,0],[0.5,11,0],[0.5,11,0],[0.5,11,0],[0.5,11,0],[0.5,11,0],[0.5,11,0],[0.5,11,0],[0.5,11,0],[0.5,11,0],[0.5,11,0],[0.5,11,0],[0.5,11,0],[0.5,11,0],[0.5,11,0],[0.5,11,0],[0.5,11,0],[0.5,11,0],[0.5,11,0],[0.5,11,0],[0.5,11,0],[0.5,11,0],[0.5,11,0],[0.5,11,0],[0.5,11,0],[0.5,11,0],[0.5,11,0],[0.5,11,0],[0.5,11,0],[0.5,11,0],[0.5,11,0],[0.5,11,0],[0.5,11,0],[0.5,11,0],[0.5,11,0],[0.5,11,0],[0.5,11,0],[0.5,11,0],[0.5,11,0],[0.5,11,0],[0.5,11,0],[0.5,11,0],[0.5,11,0],[0.5,11,0],[0.5,11,0],[0.5,11,0],[0.5,11,0],[0.5,11,0],[0.5,11,0],[0.5,11,0],[0.5,11,0],[0.5,11,0],[0.5,11,0],[0.5,11,0],[0.5,11,0],[0.5,11,0],[0.5,11,0],[0.5,11,0],[0.5,11,0],[0.5,11,0],[0.5,11,0],[0.5,11,0],[0.5,11,0],[0.5,11,0],[0.5,11,0],[0.5,11,0]];labelBackgroundColor=none;rounded=0;html=1;whiteSpace=wrap;" vertex="1" parent="dEU4oQ4snKWN6Tm-a_pI-1">
          <mxGeometry x="38" y="-6" width="25" height="1" as="geometry" />
        </mxCell>
        <mxCell id="dEU4oQ4snKWN6Tm-a_pI-4" value="" style="vsdxID=1009;edgeStyle=none;dashed=1;startArrow=none;endArrow=none;startSize=5;endSize=5;strokeColor=#5088bb;spacingTop=0;spacingBottom=0;spacingLeft=0;spacingRight=0;verticalAlign=middle;html=1;labelBackgroundColor=#ffffff;rounded=0;" edge="1" parent="dEU4oQ4snKWN6Tm-a_pI-1">
          <mxGeometry relative="1" as="geometry">
            <Array as="points" />
            <mxPoint x="50" y="35" as="sourcePoint" />
            <mxPoint x="50" y="455" as="targetPoint" />
          </mxGeometry>
        </mxCell>
        <mxCell id="dEU4oQ4snKWN6Tm-a_pI-5" value="&lt;div style=&quot;font-size: 1px&quot;&gt;&lt;font style=&quot;font-size:16.93px;font-family:Calibri;color:#ffffff;direction:ltr;letter-spacing:0px;line-height:120%;opacity:1&quot;&gt;&lt;b&gt;SuperEats&lt;br/&gt;&lt;/b&gt;&lt;/font&gt;&lt;/div&gt;" style="text;vsdxID=1005;fillColor=none;gradientColor=none;strokeColor=none;points=[[0.5,1.71,0],[0.5,2.43,0],[0.5,3.14,0],[0.5,3.86,0],[0.5,4.57,0],[0.5,5.29,0],[0.5,6,0],[0.5,6.71,0],[0.5,7.43,0],[0.5,8.14,0],[0.5,8.86,0],[0.5,9.57,0],[0.5,10.29,0],[0.5,11,0],[0.5,11,0],[0.5,11,0],[0.5,11,0],[0.5,11,0],[0.5,11,0],[0.5,11,0],[0.5,11,0],[0.5,11,0],[0.5,11,0],[0.5,11,0],[0.5,11,0],[0.5,11,0],[0.5,11,0],[0.5,11,0],[0.5,11,0],[0.5,11,0],[0.5,11,0],[0.5,11,0],[0.5,11,0],[0.5,11,0],[0.5,11,0],[0.5,11,0],[0.5,11,0],[0.5,11,0],[0.5,11,0],[0.5,11,0],[0.5,11,0],[0.5,11,0],[0.5,11,0],[0.5,11,0],[0.5,11,0],[0.5,11,0],[0.5,11,0],[0.5,11,0],[0.5,11,0],[0.5,11,0],[0.5,11,0],[0.5,11,0],[0.5,11,0],[0.5,11,0],[0.5,11,0],[0.5,11,0],[0.5,11,0],[0.5,11,0],[0.5,11,0],[0.5,11,0],[0.5,11,0],[0.5,11,0],[0.5,11,0],[0.5,11,0],[0.5,11,0],[0.5,11,0],[0.5,11,0],[0.5,11,0],[0.5,11,0],[0.5,11,0],[0.5,11,0],[0.5,11,0],[0.5,11,0],[0.5,11,0],[0.5,11,0],[0.5,11,0],[0.5,11,0],[0.5,11,0],[0.5,11,0],[0.5,11,0],[0.5,11,0],[0.5,11,0],[0.5,11,0],[0.5,11,0],[0.5,11,0],[0.5,11,0],[0.5,11,0],[0.5,11,0],[0.5,11,0],[0.5,11,0],[0.5,11,0],[0.5,11,0],[0.5,11,0],[0.5,11,0],[0.5,11,0],[0.5,11,0],[0.5,11,0],[0.5,11,0],[0.5,11,0],[0.5,11,0]];labelBackgroundColor=none;rounded=0;html=1;whiteSpace=wrap;verticalAlign=middle;align=center;overflow=width;;html=1;" vertex="1" parent="dEU4oQ4snKWN6Tm-a_pI-1">
          <mxGeometry y="-0.56" width="101.6" height="35.56" as="geometry" />
        </mxCell>
        <UserObject label="&lt;div style=&quot;font-size: 1px&quot;&gt;&lt;font style=&quot;font-size:11.29px;font-family:Calibri;color:#3a5821;direction:ltr;letter-spacing:0px;line-height:120%;opacity:1&quot;&gt;Select View Order or Reorder Button (Orders)&lt;br&gt;&lt;/font&gt;&lt;/div&gt;" tags="Connector" id="Vgm8_pX4m8SpaVQAX8YL-1">
          <mxCell style="vsdxID=1010;edgeStyle=none;startArrow=none;endArrow=block;startSize=2;endSize=7;strokeColor=#65993a;spacingTop=0;spacingBottom=0;spacingLeft=0;spacingRight=0;verticalAlign=middle;html=1;labelBackgroundColor=#ffffff;rounded=0;align=center;exitX=0.5;exitY=1.7428571428571429;exitDx=0;exitDy=0;exitPerimeter=0;" edge="1" parent="1">
            <mxGeometry relative="1" as="geometry">
              <mxPoint x="-1" as="offset" />
              <Array as="points" />
              <mxPoint x="190" y="246" as="sourcePoint" />
              <mxPoint x="640" y="246" as="targetPoint" />
            </mxGeometry>
          </mxCell>
        </UserObject>
        <UserObject label="&lt;div style=&quot;font-size: 1px&quot;&gt;&lt;font style=&quot;font-size:11.29px;font-family:Calibri;color:#3a5821;direction:ltr;letter-spacing:0px;line-height:120%;opacity:1&quot;&gt;Displays food/drink items and cost&amp;nbsp;&lt;br&gt;&lt;/font&gt;&lt;/div&gt;" tags="Connector" id="-BMtx6MELObc-HjeQR9M-1">
          <mxCell style="vsdxID=1014;edgeStyle=none;dashed=1;startArrow=none;endArrow=open;startSize=2;endSize=7;strokeColor=#65993a;spacingTop=0;spacingBottom=0;spacingLeft=0;spacingRight=0;verticalAlign=middle;html=1;labelBackgroundColor=#ffffff;rounded=0;align=center;" edge="1" parent="1">
            <mxGeometry relative="1" as="geometry">
              <mxPoint as="offset" />
              <Array as="points" />
              <mxPoint x="640" y="270" as="sourcePoint" />
              <mxPoint x="190" y="270" as="targetPoint" />
            </mxGeometry>
          </mxCell>
        </UserObject>
        <UserObject label="&lt;div style=&quot;font-size: 1px&quot;&gt;&lt;font style=&quot;font-size:11.29px;font-family:Calibri;color:#3a5821;direction:ltr;letter-spacing:0px;line-height:120%;opacity:1&quot;&gt;Displays compatible delivery services and estimated delivery times&amp;nbsp;&lt;br&gt;&lt;/font&gt;&lt;/div&gt;" tags="Connector" id="-BMtx6MELObc-HjeQR9M-2">
          <mxCell style="vsdxID=1014;edgeStyle=none;dashed=1;startArrow=none;endArrow=open;startSize=2;endSize=7;strokeColor=#65993a;spacingTop=0;spacingBottom=0;spacingLeft=0;spacingRight=0;verticalAlign=middle;html=1;labelBackgroundColor=#ffffff;rounded=0;align=center;" edge="1" parent="1">
            <mxGeometry relative="1" as="geometry">
              <mxPoint as="offset" />
              <Array as="points" />
              <mxPoint x="640" y="290" as="sourcePoint" />
              <mxPoint x="190" y="290" as="targetPoint" />
            </mxGeometry>
          </mxCell>
        </UserObject>
        <UserObject label="&lt;div style=&quot;font-size: 1px&quot;&gt;&lt;font style=&quot;font-size:11.29px;font-family:Calibri;color:#3a5821;direction:ltr;letter-spacing:0px;line-height:120%;opacity:1&quot;&gt;Displays active card and last 4 digits&amp;nbsp;&lt;br&gt;&lt;/font&gt;&lt;/div&gt;" tags="Connector" id="-BMtx6MELObc-HjeQR9M-3">
          <mxCell style="vsdxID=1014;edgeStyle=none;dashed=1;startArrow=none;endArrow=open;startSize=2;endSize=7;strokeColor=#65993a;spacingTop=0;spacingBottom=0;spacingLeft=0;spacingRight=0;verticalAlign=middle;html=1;labelBackgroundColor=#ffffff;rounded=0;align=center;" edge="1" parent="1">
            <mxGeometry relative="1" as="geometry">
              <mxPoint as="offset" />
              <Array as="points" />
              <mxPoint x="640" y="310" as="sourcePoint" />
              <mxPoint x="190" y="310" as="targetPoint" />
            </mxGeometry>
          </mxCell>
        </UserObject>
        <UserObject label="&lt;div style=&quot;font-size: 1px&quot;&gt;&lt;font style=&quot;font-size:11.29px;font-family:Calibri;color:#3a5821;direction:ltr;letter-spacing:0px;line-height:120%;opacity:1&quot;&gt;Activates order, cancel order, and &quot;X&quot; button&lt;br&gt;&lt;/font&gt;&lt;/div&gt;" tags="Connector" id="-BMtx6MELObc-HjeQR9M-4">
          <mxCell style="vsdxID=1014;edgeStyle=none;dashed=1;startArrow=none;endArrow=open;startSize=2;endSize=7;strokeColor=#65993a;spacingTop=0;spacingBottom=0;spacingLeft=0;spacingRight=0;verticalAlign=middle;html=1;labelBackgroundColor=#ffffff;rounded=0;align=center;" edge="1" parent="1">
            <mxGeometry relative="1" as="geometry">
              <mxPoint as="offset" />
              <Array as="points" />
              <mxPoint x="640" y="330" as="sourcePoint" />
              <mxPoint x="190" y="330" as="targetPoint" />
            </mxGeometry>
          </mxCell>
        </UserObject>
        <UserObject label="&lt;div style=&quot;font-size: 1px&quot;&gt;&lt;font style=&quot;font-size:11.29px;font-family:Calibri;color:#3a5821;direction:ltr;letter-spacing:0px;line-height:120%;opacity:1&quot;&gt;Selects Order Button (Orders)&lt;br&gt;&lt;/font&gt;&lt;/div&gt;" tags="Connector" id="-BMtx6MELObc-HjeQR9M-5">
          <mxCell style="vsdxID=1010;edgeStyle=none;startArrow=none;endArrow=block;startSize=2;endSize=7;strokeColor=#65993a;spacingTop=0;spacingBottom=0;spacingLeft=0;spacingRight=0;verticalAlign=middle;html=1;labelBackgroundColor=#ffffff;rounded=0;align=center;exitX=0.5;exitY=1.7428571428571429;exitDx=0;exitDy=0;exitPerimeter=0;" edge="1" parent="1">
            <mxGeometry relative="1" as="geometry">
              <mxPoint x="-1" as="offset" />
              <Array as="points" />
              <mxPoint x="190" y="360" as="sourcePoint" />
              <mxPoint x="640" y="360" as="targetPoint" />
            </mxGeometry>
          </mxCell>
        </UserObject>
        <UserObject label="&lt;div style=&quot;font-size: 1px&quot;&gt;&lt;font style=&quot;font-size:11.29px;font-family:Calibri;color:#3a5821;direction:ltr;letter-spacing:0px;line-height:120%;opacity:1&quot;&gt;Displays each delivery service along with name, rating, and estimated delivery time&lt;br&gt;&lt;/font&gt;&lt;/div&gt;" tags="Connector" id="-BMtx6MELObc-HjeQR9M-6">
          <mxCell style="vsdxID=1014;edgeStyle=none;dashed=1;startArrow=none;endArrow=open;startSize=2;endSize=7;strokeColor=#65993a;spacingTop=0;spacingBottom=0;spacingLeft=0;spacingRight=0;verticalAlign=middle;html=1;labelBackgroundColor=#ffffff;rounded=0;align=center;" edge="1" parent="1">
            <mxGeometry relative="1" as="geometry">
              <mxPoint as="offset" />
              <Array as="points" />
              <mxPoint x="640" y="380" as="sourcePoint" />
              <mxPoint x="190" y="380" as="targetPoint" />
            </mxGeometry>
          </mxCell>
        </UserObject>
        <UserObject label="&lt;div style=&quot;font-size: 1px&quot;&gt;&lt;font style=&quot;font-size:11.29px;font-family:Calibri;color:#3a5821;direction:ltr;letter-spacing:0px;line-height:120%;opacity:1&quot;&gt;Activates button for each delivery service&amp;nbsp;&lt;br&gt;&lt;/font&gt;&lt;/div&gt;" tags="Connector" id="-BMtx6MELObc-HjeQR9M-7">
          <mxCell style="vsdxID=1014;edgeStyle=none;dashed=1;startArrow=none;endArrow=open;startSize=2;endSize=7;strokeColor=#65993a;spacingTop=0;spacingBottom=0;spacingLeft=0;spacingRight=0;verticalAlign=middle;html=1;labelBackgroundColor=#ffffff;rounded=0;align=center;" edge="1" parent="1">
            <mxGeometry relative="1" as="geometry">
              <mxPoint as="offset" />
              <Array as="points" />
              <mxPoint x="640" y="400" as="sourcePoint" />
              <mxPoint x="190" y="400" as="targetPoint" />
            </mxGeometry>
          </mxCell>
        </UserObject>
        <UserObject label="&lt;div style=&quot;font-size: 1px&quot;&gt;&lt;font style=&quot;font-size:11.29px;font-family:Calibri;color:#3a5821;direction:ltr;letter-spacing:0px;line-height:120%;opacity:1&quot;&gt;Selects UberEats (Orders)&lt;br&gt;&lt;/font&gt;&lt;/div&gt;" tags="Connector" id="-BMtx6MELObc-HjeQR9M-8">
          <mxCell style="vsdxID=1010;edgeStyle=none;startArrow=none;endArrow=block;startSize=2;endSize=7;strokeColor=#65993a;spacingTop=0;spacingBottom=0;spacingLeft=0;spacingRight=0;verticalAlign=middle;html=1;labelBackgroundColor=#ffffff;rounded=0;align=center;exitX=0.5;exitY=1.7428571428571429;exitDx=0;exitDy=0;exitPerimeter=0;" edge="1" parent="1">
            <mxGeometry relative="1" as="geometry">
              <mxPoint x="-1" as="offset" />
              <Array as="points" />
              <mxPoint x="190" y="420" as="sourcePoint" />
              <mxPoint x="640" y="420" as="targetPoint" />
            </mxGeometry>
          </mxCell>
        </UserObject>
        <UserObject label="&lt;div style=&quot;font-size: 1px&quot;&gt;&lt;font style=&quot;font-size:11.29px;font-family:Calibri;color:#3a5821;direction:ltr;letter-spacing:0px;line-height:120%;opacity:1&quot;&gt;Activates pay for order button&amp;nbsp;&amp;nbsp;&lt;br&gt;&lt;/font&gt;&lt;/div&gt;" tags="Connector" id="-BMtx6MELObc-HjeQR9M-9">
          <mxCell style="vsdxID=1014;edgeStyle=none;dashed=1;startArrow=none;endArrow=open;startSize=2;endSize=7;strokeColor=#65993a;spacingTop=0;spacingBottom=0;spacingLeft=0;spacingRight=0;verticalAlign=middle;html=1;labelBackgroundColor=#ffffff;rounded=0;align=center;" edge="1" parent="1">
            <mxGeometry relative="1" as="geometry">
              <mxPoint as="offset" />
              <Array as="points" />
              <mxPoint x="640" y="450" as="sourcePoint" />
              <mxPoint x="190" y="450" as="targetPoint" />
            </mxGeometry>
          </mxCell>
        </UserObject>
        <UserObject label="&lt;div style=&quot;font-size: 1px&quot;&gt;&lt;font style=&quot;font-size:11.29px;font-family:Calibri;color:#3a5821;direction:ltr;letter-spacing:0px;line-height:120%;opacity:1&quot;&gt;Selects Pay for Order (Orders)&lt;br&gt;&lt;/font&gt;&lt;/div&gt;" tags="Connector" id="-BMtx6MELObc-HjeQR9M-10">
          <mxCell style="vsdxID=1010;edgeStyle=none;startArrow=none;endArrow=block;startSize=2;endSize=7;strokeColor=#65993a;spacingTop=0;spacingBottom=0;spacingLeft=0;spacingRight=0;verticalAlign=middle;html=1;labelBackgroundColor=#ffffff;rounded=0;align=center;exitX=0.5;exitY=1.7428571428571429;exitDx=0;exitDy=0;exitPerimeter=0;" edge="1" parent="1">
            <mxGeometry relative="1" as="geometry">
              <mxPoint x="-1" as="offset" />
              <Array as="points" />
              <mxPoint x="190" y="480" as="sourcePoint" />
              <mxPoint x="640" y="480" as="targetPoint" />
            </mxGeometry>
          </mxCell>
        </UserObject>
        <UserObject label="&lt;div style=&quot;font-size: 1px&quot;&gt;&lt;font style=&quot;font-size:11.29px;font-family:Calibri;color:#3a5821;direction:ltr;letter-spacing:0px;line-height:120%;opacity:1&quot;&gt;Sends order to food service to make, and delivery service to assign driver&amp;nbsp;&lt;br&gt;&lt;/font&gt;&lt;/div&gt;" tags="Connector" id="-BMtx6MELObc-HjeQR9M-11">
          <mxCell style="vsdxID=1014;edgeStyle=none;dashed=1;startArrow=none;endArrow=open;startSize=2;endSize=7;strokeColor=#65993a;spacingTop=0;spacingBottom=0;spacingLeft=0;spacingRight=0;verticalAlign=middle;html=1;labelBackgroundColor=#ffffff;rounded=0;align=center;" edge="1" parent="1">
            <mxGeometry relative="1" as="geometry">
              <mxPoint as="offset" />
              <Array as="points" />
              <mxPoint x="640" y="510" as="sourcePoint" />
              <mxPoint x="190" y="510" as="targetPoint" />
            </mxGeometry>
          </mxCell>
        </UserObject>
        <UserObject label="&lt;div style=&quot;font-size: 1px&quot;&gt;&lt;font style=&quot;font-size:11.29px;font-family:Calibri;color:#3a5821;direction:ltr;letter-spacing:0px;line-height:120%;opacity:1&quot;&gt;Returns user to last visited tab&amp;nbsp;&lt;br&gt;&lt;/font&gt;&lt;/div&gt;" tags="Connector" id="-BMtx6MELObc-HjeQR9M-12">
          <mxCell style="vsdxID=1014;edgeStyle=none;dashed=1;startArrow=none;endArrow=open;startSize=2;endSize=7;strokeColor=#65993a;spacingTop=0;spacingBottom=0;spacingLeft=0;spacingRight=0;verticalAlign=middle;html=1;labelBackgroundColor=#ffffff;rounded=0;align=center;" edge="1" parent="1">
            <mxGeometry relative="1" as="geometry">
              <mxPoint as="offset" />
              <Array as="points" />
              <mxPoint x="640" y="540" as="sourcePoint" />
              <mxPoint x="190" y="540" as="targetPoint" />
            </mxGeometry>
          </mxCell>
        </UserObject>
        <UserObject label="&lt;div style=&quot;font-size: 1px&quot;&gt;&lt;font style=&quot;font-size:11.29px;font-family:Calibri;color:#3a5821;direction:ltr;letter-spacing:0px;line-height:120%;opacity:1&quot;&gt;Displays text message &quot;Order Complete!&quot; that disappears after 10 seconds&amp;nbsp;&lt;br&gt;&lt;/font&gt;&lt;/div&gt;" tags="Connector" id="-BMtx6MELObc-HjeQR9M-13">
          <mxCell style="vsdxID=1014;edgeStyle=none;dashed=1;startArrow=none;endArrow=open;startSize=2;endSize=7;strokeColor=#65993a;spacingTop=0;spacingBottom=0;spacingLeft=0;spacingRight=0;verticalAlign=middle;html=1;labelBackgroundColor=#ffffff;rounded=0;align=center;" edge="1" parent="1">
            <mxGeometry relative="1" as="geometry">
              <mxPoint as="offset" />
              <Array as="points" />
              <mxPoint x="640" y="570" as="sourcePoint" />
              <mxPoint x="190" y="570" as="targetPoint" />
            </mxGeometry>
          </mxCell>
        </UserObject>
        <UserObject label="&lt;div style=&quot;font-size: 1px&quot;&gt;&lt;font style=&quot;font-size:11.29px;font-family:Calibri;color:#3a5821;direction:ltr;letter-spacing:0px;line-height:120%;opacity:1&quot;&gt;Estimated delivery time and order status sent to notifications&amp;nbsp;&lt;br&gt;&lt;/font&gt;&lt;/div&gt;" tags="Connector" id="-BMtx6MELObc-HjeQR9M-14">
          <mxCell style="vsdxID=1014;edgeStyle=none;dashed=1;startArrow=none;endArrow=open;startSize=2;endSize=7;strokeColor=#65993a;spacingTop=0;spacingBottom=0;spacingLeft=0;spacingRight=0;verticalAlign=middle;html=1;labelBackgroundColor=#ffffff;rounded=0;align=center;" edge="1" parent="1">
            <mxGeometry relative="1" as="geometry">
              <mxPoint as="offset" />
              <Array as="points" />
              <mxPoint x="640" y="600" as="sourcePoint" />
              <mxPoint x="190" y="600" as="targetPoint" />
            </mxGeometry>
          </mxCell>
        </UserObject>
      </root>
    </mxGraphModel>
  </diagram>
  <diagram id="RTzNASKxpb0G5haGriXi" name="View Notifications">
    <mxGraphModel dx="942" dy="502" grid="1" gridSize="10" guides="1" tooltips="1" connect="1" arrows="1" fold="1" page="1" pageScale="1" pageWidth="850" pageHeight="1100" math="0" shadow="0">
      <root>
        <mxCell id="0" />
        <mxCell id="1" parent="0" />
        <UserObject label="" tags="Background" id="KgPcLi243ogNvasfu-ie-1">
          <mxCell style="vsdxID=1000;fillColor=#5b9bd5;gradientColor=none;shape=stencil(nZBLDoAgDERP0z3SIyjew0SURgSD+Lu9kMZoXLhwN9O+tukAlrNpJg1SzDH4QW/URgNYgZTkjA4UkwJUgGXng+6DX1zLfmoymdXo17xh5zmRJ6Q42BWCfc2oJfdAr+Yv+AP9Cb7OJ3H/2JG1HNGz/84klThPVCc=);strokeColor=#ffffff;points=[[0.5,1.71,0],[0.5,2.43,0],[0.5,3.14,0],[0.5,3.86,0],[0.5,4.57,0],[0.5,5.29,0],[0.5,6,0],[0.5,6.71,0],[0.5,7.43,0],[0.5,8.14,0],[0.5,8.86,0],[0.5,9.57,0],[0.5,10.29,0],[0.5,11,0],[0.5,11,0],[0.5,11,0],[0.5,11,0],[0.5,11,0],[0.5,11,0],[0.5,11,0],[0.5,11,0],[0.5,11,0],[0.5,11,0],[0.5,11,0],[0.5,11,0],[0.5,11,0],[0.5,11,0],[0.5,11,0],[0.5,11,0],[0.5,11,0],[0.5,11,0],[0.5,11,0],[0.5,11,0],[0.5,11,0],[0.5,11,0],[0.5,11,0],[0.5,11,0],[0.5,11,0],[0.5,11,0],[0.5,11,0],[0.5,11,0],[0.5,11,0],[0.5,11,0],[0.5,11,0],[0.5,11,0],[0.5,11,0],[0.5,11,0],[0.5,11,0],[0.5,11,0],[0.5,11,0],[0.5,11,0],[0.5,11,0],[0.5,11,0],[0.5,11,0],[0.5,11,0],[0.5,11,0],[0.5,11,0],[0.5,11,0],[0.5,11,0],[0.5,11,0],[0.5,11,0],[0.5,11,0],[0.5,11,0],[0.5,11,0],[0.5,11,0],[0.5,11,0],[0.5,11,0],[0.5,11,0],[0.5,11,0],[0.5,11,0],[0.5,11,0],[0.5,11,0],[0.5,11,0],[0.5,11,0],[0.5,11,0],[0.5,11,0],[0.5,11,0],[0.5,11,0],[0.5,11,0],[0.5,11,0],[0.5,11,0],[0.5,11,0],[0.5,11,0],[0.5,11,0],[0.5,11,0],[0.5,11,0],[0.5,11,0],[0.5,11,0],[0.5,11,0],[0.5,11,0],[0.5,11,0],[0.5,11,0],[0.5,11,0],[0.5,11,0],[0.5,11,0],[0.5,11,0],[0.5,11,0],[0.5,11,0],[0.5,11,0],[0.5,11,0]];labelBackgroundColor=none;rounded=0;html=1;whiteSpace=wrap;" parent="1" vertex="1">
            <mxGeometry x="152" y="185" width="76" height="35" as="geometry" />
          </mxCell>
        </UserObject>
        <mxCell id="KgPcLi243ogNvasfu-ie-2" style="vsdxID=1001;fillColor=#5b9bd5;gradientColor=none;shape=stencil(nZBLDoAgDERP0z3SIyjew0SURgSD+Lu9kMZoXLhwN9O+tukAlrNpJg1SzDH4QW/URgNYgZTkjA4UkwJUgGXng+6DX1zLfmoymdXo17xh5zmRJ6Q42BWCfc2oJfdAr+Yv+AP9Cb7OJ3H/2JG1HNGz/84klThPVCc=);strokeColor=#ffffff;points=[[0.5,1.71,0],[0.5,2.43,0],[0.5,3.14,0],[0.5,3.86,0],[0.5,4.57,0],[0.5,5.29,0],[0.5,6,0],[0.5,6.71,0],[0.5,7.43,0],[0.5,8.14,0],[0.5,8.86,0],[0.5,9.57,0],[0.5,10.29,0],[0.5,11,0],[0.5,11,0],[0.5,11,0],[0.5,11,0],[0.5,11,0],[0.5,11,0],[0.5,11,0],[0.5,11,0],[0.5,11,0],[0.5,11,0],[0.5,11,0],[0.5,11,0],[0.5,11,0],[0.5,11,0],[0.5,11,0],[0.5,11,0],[0.5,11,0],[0.5,11,0],[0.5,11,0],[0.5,11,0],[0.5,11,0],[0.5,11,0],[0.5,11,0],[0.5,11,0],[0.5,11,0],[0.5,11,0],[0.5,11,0],[0.5,11,0],[0.5,11,0],[0.5,11,0],[0.5,11,0],[0.5,11,0],[0.5,11,0],[0.5,11,0],[0.5,11,0],[0.5,11,0],[0.5,11,0],[0.5,11,0],[0.5,11,0],[0.5,11,0],[0.5,11,0],[0.5,11,0],[0.5,11,0],[0.5,11,0],[0.5,11,0],[0.5,11,0],[0.5,11,0],[0.5,11,0],[0.5,11,0],[0.5,11,0],[0.5,11,0],[0.5,11,0],[0.5,11,0],[0.5,11,0],[0.5,11,0],[0.5,11,0],[0.5,11,0],[0.5,11,0],[0.5,11,0],[0.5,11,0],[0.5,11,0],[0.5,11,0],[0.5,11,0],[0.5,11,0],[0.5,11,0],[0.5,11,0],[0.5,11,0],[0.5,11,0],[0.5,11,0],[0.5,11,0],[0.5,11,0],[0.5,11,0],[0.5,11,0],[0.5,11,0],[0.5,11,0],[0.5,11,0],[0.5,11,0],[0.5,11,0],[0.5,11,0],[0.5,11,0],[0.5,11,0],[0.5,11,0],[0.5,11,0],[0.5,11,0],[0.5,11,0],[0.5,11,0],[0.5,11,0]];labelBackgroundColor=none;rounded=0;html=1;whiteSpace=wrap;" parent="KgPcLi243ogNvasfu-ie-1" vertex="1">
          <mxGeometry width="76" height="35" as="geometry" />
        </mxCell>
        <mxCell id="KgPcLi243ogNvasfu-ie-3" value="" style="edgeStyle=orthogonalEdgeStyle;rounded=0;orthogonalLoop=1;jettySize=auto;html=1;" parent="KgPcLi243ogNvasfu-ie-1" source="KgPcLi243ogNvasfu-ie-4" target="KgPcLi243ogNvasfu-ie-6" edge="1">
          <mxGeometry relative="1" as="geometry" />
        </mxCell>
        <mxCell id="KgPcLi243ogNvasfu-ie-4" style="vsdxID=1002;fillColor=#5b9bd5;gradientColor=none;shape=stencil(tZTNDoIwDICfZkeSsQXFM+J7LDJgcTJSpuDbu6USgQhBord2/dr1LyU8aUpRS8JoY8FcZKsyWxJ+JIypqpSgrJMITwlPcgOyAHOrMtRr4UkvXc3dR+jQj1HvwugD1ZCifkJWq2qejdaj+wV0K8kXyHCMsmgePaxH++asy2B9XfFmdGkE8ReTjbazux+FXV7E8dLyKTtEBZydCSabAH3HUO1GrZ4Eol0gOtUEYKywylSj7dMCChm4T4Jci+Llh6amlbIePG9O63N9f0nLCe/TkCut8bIM7dNT4p7wDPH0CQ==);strokeColor=#ffffff;points=[[0.5,1.71,0],[0.5,2.43,0],[0.5,3.14,0],[0.5,3.86,0],[0.5,4.57,0],[0.5,5.29,0],[0.5,6,0],[0.5,6.71,0],[0.5,7.43,0],[0.5,8.14,0],[0.5,8.86,0],[0.5,9.57,0],[0.5,10.29,0],[0.5,11,0],[0.5,11,0],[0.5,11,0],[0.5,11,0],[0.5,11,0],[0.5,11,0],[0.5,11,0],[0.5,11,0],[0.5,11,0],[0.5,11,0],[0.5,11,0],[0.5,11,0],[0.5,11,0],[0.5,11,0],[0.5,11,0],[0.5,11,0],[0.5,11,0],[0.5,11,0],[0.5,11,0],[0.5,11,0],[0.5,11,0],[0.5,11,0],[0.5,11,0],[0.5,11,0],[0.5,11,0],[0.5,11,0],[0.5,11,0],[0.5,11,0],[0.5,11,0],[0.5,11,0],[0.5,11,0],[0.5,11,0],[0.5,11,0],[0.5,11,0],[0.5,11,0],[0.5,11,0],[0.5,11,0],[0.5,11,0],[0.5,11,0],[0.5,11,0],[0.5,11,0],[0.5,11,0],[0.5,11,0],[0.5,11,0],[0.5,11,0],[0.5,11,0],[0.5,11,0],[0.5,11,0],[0.5,11,0],[0.5,11,0],[0.5,11,0],[0.5,11,0],[0.5,11,0],[0.5,11,0],[0.5,11,0],[0.5,11,0],[0.5,11,0],[0.5,11,0],[0.5,11,0],[0.5,11,0],[0.5,11,0],[0.5,11,0],[0.5,11,0],[0.5,11,0],[0.5,11,0],[0.5,11,0],[0.5,11,0],[0.5,11,0],[0.5,11,0],[0.5,11,0],[0.5,11,0],[0.5,11,0],[0.5,11,0],[0.5,11,0],[0.5,11,0],[0.5,11,0],[0.5,11,0],[0.5,11,0],[0.5,11,0],[0.5,11,0],[0.5,11,0],[0.5,11,0],[0.5,11,0],[0.5,11,0],[0.5,11,0],[0.5,11,0],[0.5,11,0]];labelBackgroundColor=none;rounded=0;html=1;whiteSpace=wrap;" parent="KgPcLi243ogNvasfu-ie-1" vertex="1">
          <mxGeometry x="25" y="-56" width="25" height="50" as="geometry" />
        </mxCell>
        <mxCell id="KgPcLi243ogNvasfu-ie-5" value="" style="vsdxID=1004;edgeStyle=none;dashed=1;startArrow=none;endArrow=none;startSize=5;endSize=5;strokeColor=#5088bb;spacingTop=0;spacingBottom=0;spacingLeft=0;spacingRight=0;verticalAlign=middle;html=1;labelBackgroundColor=#ffffff;rounded=0;" parent="KgPcLi243ogNvasfu-ie-1" edge="1">
          <mxGeometry relative="1" as="geometry">
            <Array as="points" />
            <mxPoint x="38" y="35" as="sourcePoint" />
            <mxPoint x="38" y="405" as="targetPoint" />
          </mxGeometry>
        </mxCell>
        <mxCell id="KgPcLi243ogNvasfu-ie-6" value="&lt;div style=&quot;font-size: 1px&quot;&gt;&lt;font style=&quot;font-size:16.93px;font-family:Calibri;color:#ffffff;direction:ltr;letter-spacing:0px;line-height:120%;opacity:1&quot;&gt;&lt;b&gt;User&lt;br/&gt;&lt;/b&gt;&lt;/font&gt;&lt;/div&gt;" style="text;vsdxID=1000;fillColor=none;gradientColor=none;strokeColor=none;points=[[0.5,1.71,0],[0.5,2.43,0],[0.5,3.14,0],[0.5,3.86,0],[0.5,4.57,0],[0.5,5.29,0],[0.5,6,0],[0.5,6.71,0],[0.5,7.43,0],[0.5,8.14,0],[0.5,8.86,0],[0.5,9.57,0],[0.5,10.29,0],[0.5,11,0],[0.5,11,0],[0.5,11,0],[0.5,11,0],[0.5,11,0],[0.5,11,0],[0.5,11,0],[0.5,11,0],[0.5,11,0],[0.5,11,0],[0.5,11,0],[0.5,11,0],[0.5,11,0],[0.5,11,0],[0.5,11,0],[0.5,11,0],[0.5,11,0],[0.5,11,0],[0.5,11,0],[0.5,11,0],[0.5,11,0],[0.5,11,0],[0.5,11,0],[0.5,11,0],[0.5,11,0],[0.5,11,0],[0.5,11,0],[0.5,11,0],[0.5,11,0],[0.5,11,0],[0.5,11,0],[0.5,11,0],[0.5,11,0],[0.5,11,0],[0.5,11,0],[0.5,11,0],[0.5,11,0],[0.5,11,0],[0.5,11,0],[0.5,11,0],[0.5,11,0],[0.5,11,0],[0.5,11,0],[0.5,11,0],[0.5,11,0],[0.5,11,0],[0.5,11,0],[0.5,11,0],[0.5,11,0],[0.5,11,0],[0.5,11,0],[0.5,11,0],[0.5,11,0],[0.5,11,0],[0.5,11,0],[0.5,11,0],[0.5,11,0],[0.5,11,0],[0.5,11,0],[0.5,11,0],[0.5,11,0],[0.5,11,0],[0.5,11,0],[0.5,11,0],[0.5,11,0],[0.5,11,0],[0.5,11,0],[0.5,11,0],[0.5,11,0],[0.5,11,0],[0.5,11,0],[0.5,11,0],[0.5,11,0],[0.5,11,0],[0.5,11,0],[0.5,11,0],[0.5,11,0],[0.5,11,0],[0.5,11,0],[0.5,11,0],[0.5,11,0],[0.5,11,0],[0.5,11,0],[0.5,11,0],[0.5,11,0],[0.5,11,0],[0.5,11,0]];labelBackgroundColor=none;rounded=0;html=1;whiteSpace=wrap;verticalAlign=middle;align=center;overflow=width;;html=1;" parent="KgPcLi243ogNvasfu-ie-1" vertex="1">
          <mxGeometry y="-0.56" width="76.2" height="35.56" as="geometry" />
        </mxCell>
        <UserObject label="" tags="Background" id="cFBFvEw-WBz_KK6y0OKm-1">
          <mxCell style="vsdxID=1005;fillColor=#5b9bd5;gradientColor=none;shape=stencil(nZBLDoAgDERP0z3SIyjew0SURgSD+Lu9kMZoXLhwN9O+tukAlrNpJg1SzDH4QW/URgNYgZTkjA4UkwJUgGXng+6DX1zLfmoymdXo17xh5zmRJ6Q42BWCfc2oJfdAr+Yv+AP9Cb7OJ3H/2JG1HNGz/84klThPVCc=);strokeColor=#ffffff;points=[[0.5,1.71,0],[0.5,2.43,0],[0.5,3.14,0],[0.5,3.86,0],[0.5,4.57,0],[0.5,5.29,0],[0.5,6,0],[0.5,6.71,0],[0.5,7.43,0],[0.5,8.14,0],[0.5,8.86,0],[0.5,9.57,0],[0.5,10.29,0],[0.5,11,0],[0.5,11,0],[0.5,11,0],[0.5,11,0],[0.5,11,0],[0.5,11,0],[0.5,11,0],[0.5,11,0],[0.5,11,0],[0.5,11,0],[0.5,11,0],[0.5,11,0],[0.5,11,0],[0.5,11,0],[0.5,11,0],[0.5,11,0],[0.5,11,0],[0.5,11,0],[0.5,11,0],[0.5,11,0],[0.5,11,0],[0.5,11,0],[0.5,11,0],[0.5,11,0],[0.5,11,0],[0.5,11,0],[0.5,11,0],[0.5,11,0],[0.5,11,0],[0.5,11,0],[0.5,11,0],[0.5,11,0],[0.5,11,0],[0.5,11,0],[0.5,11,0],[0.5,11,0],[0.5,11,0],[0.5,11,0],[0.5,11,0],[0.5,11,0],[0.5,11,0],[0.5,11,0],[0.5,11,0],[0.5,11,0],[0.5,11,0],[0.5,11,0],[0.5,11,0],[0.5,11,0],[0.5,11,0],[0.5,11,0],[0.5,11,0],[0.5,11,0],[0.5,11,0],[0.5,11,0],[0.5,11,0],[0.5,11,0],[0.5,11,0],[0.5,11,0],[0.5,11,0],[0.5,11,0],[0.5,11,0],[0.5,11,0],[0.5,11,0],[0.5,11,0],[0.5,11,0],[0.5,11,0],[0.5,11,0],[0.5,11,0],[0.5,11,0],[0.5,11,0],[0.5,11,0],[0.5,11,0],[0.5,11,0],[0.5,11,0],[0.5,11,0],[0.5,11,0],[0.5,11,0],[0.5,11,0],[0.5,11,0],[0.5,11,0],[0.5,11,0],[0.5,11,0],[0.5,11,0],[0.5,11,0],[0.5,11,0],[0.5,11,0],[0.5,11,0]];labelBackgroundColor=none;rounded=0;html=1;whiteSpace=wrap;" parent="1" vertex="1">
            <mxGeometry x="590" y="185" width="101" height="35" as="geometry" />
          </mxCell>
        </UserObject>
        <mxCell id="cFBFvEw-WBz_KK6y0OKm-2" style="vsdxID=1006;fillColor=#5b9bd5;gradientColor=none;shape=stencil(nZBLDoAgDERP0z3SIyjew0SURgSD+Lu9kMZoXLhwN9O+tukAlrNpJg1SzDH4QW/URgNYgZTkjA4UkwJUgGXng+6DX1zLfmoymdXo17xh5zmRJ6Q42BWCfc2oJfdAr+Yv+AP9Cb7OJ3H/2JG1HNGz/84klThPVCc=);strokeColor=#ffffff;points=[[0.5,1.71,0],[0.5,2.43,0],[0.5,3.14,0],[0.5,3.86,0],[0.5,4.57,0],[0.5,5.29,0],[0.5,6,0],[0.5,6.71,0],[0.5,7.43,0],[0.5,8.14,0],[0.5,8.86,0],[0.5,9.57,0],[0.5,10.29,0],[0.5,11,0],[0.5,11,0],[0.5,11,0],[0.5,11,0],[0.5,11,0],[0.5,11,0],[0.5,11,0],[0.5,11,0],[0.5,11,0],[0.5,11,0],[0.5,11,0],[0.5,11,0],[0.5,11,0],[0.5,11,0],[0.5,11,0],[0.5,11,0],[0.5,11,0],[0.5,11,0],[0.5,11,0],[0.5,11,0],[0.5,11,0],[0.5,11,0],[0.5,11,0],[0.5,11,0],[0.5,11,0],[0.5,11,0],[0.5,11,0],[0.5,11,0],[0.5,11,0],[0.5,11,0],[0.5,11,0],[0.5,11,0],[0.5,11,0],[0.5,11,0],[0.5,11,0],[0.5,11,0],[0.5,11,0],[0.5,11,0],[0.5,11,0],[0.5,11,0],[0.5,11,0],[0.5,11,0],[0.5,11,0],[0.5,11,0],[0.5,11,0],[0.5,11,0],[0.5,11,0],[0.5,11,0],[0.5,11,0],[0.5,11,0],[0.5,11,0],[0.5,11,0],[0.5,11,0],[0.5,11,0],[0.5,11,0],[0.5,11,0],[0.5,11,0],[0.5,11,0],[0.5,11,0],[0.5,11,0],[0.5,11,0],[0.5,11,0],[0.5,11,0],[0.5,11,0],[0.5,11,0],[0.5,11,0],[0.5,11,0],[0.5,11,0],[0.5,11,0],[0.5,11,0],[0.5,11,0],[0.5,11,0],[0.5,11,0],[0.5,11,0],[0.5,11,0],[0.5,11,0],[0.5,11,0],[0.5,11,0],[0.5,11,0],[0.5,11,0],[0.5,11,0],[0.5,11,0],[0.5,11,0],[0.5,11,0],[0.5,11,0],[0.5,11,0],[0.5,11,0]];labelBackgroundColor=none;rounded=0;html=1;whiteSpace=wrap;" parent="cFBFvEw-WBz_KK6y0OKm-1" vertex="1">
          <mxGeometry x="12" width="76" height="35" as="geometry" />
        </mxCell>
        <mxCell id="cFBFvEw-WBz_KK6y0OKm-3" style="vsdxID=1007;fillColor=#5b9bd5;gradientColor=none;shape=stencil(1VFBDsIgEHwNRxKE+IJa/7GxSyFiaRa07e+FLImtB+/eZnZmdgkjTJcczCi0SpniHRc/ZCfMRWjtJ4fkc0HC9MJ0NhKOFJ/TwHyG6qzoEV91w8q5s6oRrTamJ8X8yl6gW9GoeZuVtgP9vUitElafJMUM2cfpEA1AI8pyRNoAYwuylBbEeTf+h2cV8Plm60Pglvb6dy1lxJWa/g0=);strokeColor=#ffffff;points=[[0.5,1.71,0],[0.5,2.43,0],[0.5,3.14,0],[0.5,3.86,0],[0.5,4.57,0],[0.5,5.29,0],[0.5,6,0],[0.5,6.71,0],[0.5,7.43,0],[0.5,8.14,0],[0.5,8.86,0],[0.5,9.57,0],[0.5,10.29,0],[0.5,11,0],[0.5,11,0],[0.5,11,0],[0.5,11,0],[0.5,11,0],[0.5,11,0],[0.5,11,0],[0.5,11,0],[0.5,11,0],[0.5,11,0],[0.5,11,0],[0.5,11,0],[0.5,11,0],[0.5,11,0],[0.5,11,0],[0.5,11,0],[0.5,11,0],[0.5,11,0],[0.5,11,0],[0.5,11,0],[0.5,11,0],[0.5,11,0],[0.5,11,0],[0.5,11,0],[0.5,11,0],[0.5,11,0],[0.5,11,0],[0.5,11,0],[0.5,11,0],[0.5,11,0],[0.5,11,0],[0.5,11,0],[0.5,11,0],[0.5,11,0],[0.5,11,0],[0.5,11,0],[0.5,11,0],[0.5,11,0],[0.5,11,0],[0.5,11,0],[0.5,11,0],[0.5,11,0],[0.5,11,0],[0.5,11,0],[0.5,11,0],[0.5,11,0],[0.5,11,0],[0.5,11,0],[0.5,11,0],[0.5,11,0],[0.5,11,0],[0.5,11,0],[0.5,11,0],[0.5,11,0],[0.5,11,0],[0.5,11,0],[0.5,11,0],[0.5,11,0],[0.5,11,0],[0.5,11,0],[0.5,11,0],[0.5,11,0],[0.5,11,0],[0.5,11,0],[0.5,11,0],[0.5,11,0],[0.5,11,0],[0.5,11,0],[0.5,11,0],[0.5,11,0],[0.5,11,0],[0.5,11,0],[0.5,11,0],[0.5,11,0],[0.5,11,0],[0.5,11,0],[0.5,11,0],[0.5,11,0],[0.5,11,0],[0.5,11,0],[0.5,11,0],[0.5,11,0],[0.5,11,0],[0.5,11,0],[0.5,11,0],[0.5,11,0],[0.5,11,0]];labelBackgroundColor=none;rounded=0;html=1;whiteSpace=wrap;" parent="cFBFvEw-WBz_KK6y0OKm-1" vertex="1">
          <mxGeometry x="38" y="-6" width="25" height="1" as="geometry" />
        </mxCell>
        <mxCell id="cFBFvEw-WBz_KK6y0OKm-4" value="" style="vsdxID=1009;edgeStyle=none;dashed=1;startArrow=none;endArrow=none;startSize=5;endSize=5;strokeColor=#5088bb;spacingTop=0;spacingBottom=0;spacingLeft=0;spacingRight=0;verticalAlign=middle;html=1;labelBackgroundColor=#ffffff;rounded=0;" parent="cFBFvEw-WBz_KK6y0OKm-1" edge="1">
          <mxGeometry relative="1" as="geometry">
            <Array as="points" />
            <mxPoint x="50" y="35" as="sourcePoint" />
            <mxPoint x="50" y="405" as="targetPoint" />
          </mxGeometry>
        </mxCell>
        <mxCell id="cFBFvEw-WBz_KK6y0OKm-5" value="&lt;div style=&quot;font-size: 1px&quot;&gt;&lt;font style=&quot;font-size:16.93px;font-family:Calibri;color:#ffffff;direction:ltr;letter-spacing:0px;line-height:120%;opacity:1&quot;&gt;&lt;b&gt;SuperEats&lt;br/&gt;&lt;/b&gt;&lt;/font&gt;&lt;/div&gt;" style="text;vsdxID=1005;fillColor=none;gradientColor=none;strokeColor=none;points=[[0.5,1.71,0],[0.5,2.43,0],[0.5,3.14,0],[0.5,3.86,0],[0.5,4.57,0],[0.5,5.29,0],[0.5,6,0],[0.5,6.71,0],[0.5,7.43,0],[0.5,8.14,0],[0.5,8.86,0],[0.5,9.57,0],[0.5,10.29,0],[0.5,11,0],[0.5,11,0],[0.5,11,0],[0.5,11,0],[0.5,11,0],[0.5,11,0],[0.5,11,0],[0.5,11,0],[0.5,11,0],[0.5,11,0],[0.5,11,0],[0.5,11,0],[0.5,11,0],[0.5,11,0],[0.5,11,0],[0.5,11,0],[0.5,11,0],[0.5,11,0],[0.5,11,0],[0.5,11,0],[0.5,11,0],[0.5,11,0],[0.5,11,0],[0.5,11,0],[0.5,11,0],[0.5,11,0],[0.5,11,0],[0.5,11,0],[0.5,11,0],[0.5,11,0],[0.5,11,0],[0.5,11,0],[0.5,11,0],[0.5,11,0],[0.5,11,0],[0.5,11,0],[0.5,11,0],[0.5,11,0],[0.5,11,0],[0.5,11,0],[0.5,11,0],[0.5,11,0],[0.5,11,0],[0.5,11,0],[0.5,11,0],[0.5,11,0],[0.5,11,0],[0.5,11,0],[0.5,11,0],[0.5,11,0],[0.5,11,0],[0.5,11,0],[0.5,11,0],[0.5,11,0],[0.5,11,0],[0.5,11,0],[0.5,11,0],[0.5,11,0],[0.5,11,0],[0.5,11,0],[0.5,11,0],[0.5,11,0],[0.5,11,0],[0.5,11,0],[0.5,11,0],[0.5,11,0],[0.5,11,0],[0.5,11,0],[0.5,11,0],[0.5,11,0],[0.5,11,0],[0.5,11,0],[0.5,11,0],[0.5,11,0],[0.5,11,0],[0.5,11,0],[0.5,11,0],[0.5,11,0],[0.5,11,0],[0.5,11,0],[0.5,11,0],[0.5,11,0],[0.5,11,0],[0.5,11,0],[0.5,11,0],[0.5,11,0],[0.5,11,0]];labelBackgroundColor=none;rounded=0;html=1;whiteSpace=wrap;verticalAlign=middle;align=center;overflow=width;;html=1;" parent="cFBFvEw-WBz_KK6y0OKm-1" vertex="1">
          <mxGeometry y="-0.56" width="101.6" height="35.56" as="geometry" />
        </mxCell>
        <UserObject label="&lt;div style=&quot;font-size: 1px&quot;&gt;&lt;font style=&quot;font-size:11.29px;font-family:Calibri;color:#3a5821;direction:ltr;letter-spacing:0px;line-height:120%;opacity:1&quot;&gt;Select Notifications Tab&amp;nbsp; (Notifications)&lt;br&gt;&lt;/font&gt;&lt;/div&gt;" tags="Connector" id="ZK3mY6YDoWa9DGtXQ4nD-2">
          <mxCell style="vsdxID=1010;edgeStyle=none;startArrow=none;endArrow=block;startSize=2;endSize=7;strokeColor=#65993a;spacingTop=0;spacingBottom=0;spacingLeft=0;spacingRight=0;verticalAlign=middle;html=1;labelBackgroundColor=#ffffff;rounded=0;align=center;exitX=0.5;exitY=1.7428571428571429;exitDx=0;exitDy=0;exitPerimeter=0;" parent="1" edge="1">
            <mxGeometry relative="1" as="geometry">
              <mxPoint x="-1" as="offset" />
              <Array as="points" />
              <mxPoint x="190" y="280" as="sourcePoint" />
              <mxPoint x="640" y="280" as="targetPoint" />
            </mxGeometry>
          </mxCell>
        </UserObject>
        <UserObject label="&lt;div style=&quot;font-size: 1px&quot;&gt;&lt;font style=&quot;font-size:11.29px;font-family:Calibri;color:#3a5821;direction:ltr;letter-spacing:0px;line-height:120%;opacity:1&quot;&gt;Nofity User of Upcoming Deals&amp;nbsp;&lt;br&gt;&lt;/font&gt;&lt;/div&gt;" tags="Connector" id="ZK3mY6YDoWa9DGtXQ4nD-10">
          <mxCell style="vsdxID=1014;edgeStyle=none;dashed=1;startArrow=none;endArrow=open;startSize=2;endSize=7;strokeColor=#65993a;spacingTop=0;spacingBottom=0;spacingLeft=0;spacingRight=0;verticalAlign=middle;html=1;labelBackgroundColor=#ffffff;rounded=0;align=center;" parent="1" edge="1">
            <mxGeometry relative="1" as="geometry">
              <mxPoint as="offset" />
              <Array as="points" />
              <mxPoint x="640" y="330" as="sourcePoint" />
              <mxPoint x="190" y="330" as="targetPoint" />
            </mxGeometry>
          </mxCell>
        </UserObject>
        <UserObject label="&lt;div style=&quot;font-size: 1px&quot;&gt;&lt;font style=&quot;font-size:11.29px;font-family:Calibri;color:#3a5821;direction:ltr;letter-spacing:0px;line-height:120%;opacity:1&quot;&gt;Display order status and estimated delivery time&amp;nbsp;&lt;br&gt;&lt;/font&gt;&lt;/div&gt;" tags="Connector" id="iOcnktsqjYH6YcgvmhpY-1">
          <mxCell style="vsdxID=1014;edgeStyle=none;dashed=1;startArrow=none;endArrow=open;startSize=2;endSize=7;strokeColor=#65993a;spacingTop=0;spacingBottom=0;spacingLeft=0;spacingRight=0;verticalAlign=middle;html=1;labelBackgroundColor=#ffffff;rounded=0;align=center;" edge="1" parent="1">
            <mxGeometry relative="1" as="geometry">
              <mxPoint as="offset" />
              <Array as="points" />
              <mxPoint x="640" y="360" as="sourcePoint" />
              <mxPoint x="190" y="360" as="targetPoint" />
            </mxGeometry>
          </mxCell>
        </UserObject>
        <UserObject label="&lt;div style=&quot;font-size: 1px&quot;&gt;&lt;font style=&quot;font-size:11.29px;font-family:Calibri;color:#3a5821;direction:ltr;letter-spacing:0px;line-height:120%;opacity:1&quot;&gt;Display star rating prompts for driver and food service&amp;nbsp;&lt;br&gt;&lt;/font&gt;&lt;/div&gt;" tags="Connector" id="iOcnktsqjYH6YcgvmhpY-2">
          <mxCell style="vsdxID=1014;edgeStyle=none;dashed=1;startArrow=none;endArrow=open;startSize=2;endSize=7;strokeColor=#65993a;spacingTop=0;spacingBottom=0;spacingLeft=0;spacingRight=0;verticalAlign=middle;html=1;labelBackgroundColor=#ffffff;rounded=0;align=center;" edge="1" parent="1">
            <mxGeometry relative="1" as="geometry">
              <mxPoint as="offset" />
              <Array as="points" />
              <mxPoint x="640" y="390" as="sourcePoint" />
              <mxPoint x="190" y="390" as="targetPoint" />
            </mxGeometry>
          </mxCell>
        </UserObject>
        <UserObject label="&lt;div style=&quot;font-size: 1px&quot;&gt;&lt;font style=&quot;font-size:11.29px;font-family:Calibri;color:#3a5821;direction:ltr;letter-spacing:0px;line-height:120%;opacity:1&quot;&gt;Display time sensitive offers available to users&amp;nbsp;&lt;br&gt;&lt;/font&gt;&lt;/div&gt;" tags="Connector" id="iOcnktsqjYH6YcgvmhpY-3">
          <mxCell style="vsdxID=1014;edgeStyle=none;dashed=1;startArrow=none;endArrow=open;startSize=2;endSize=7;strokeColor=#65993a;spacingTop=0;spacingBottom=0;spacingLeft=0;spacingRight=0;verticalAlign=middle;html=1;labelBackgroundColor=#ffffff;rounded=0;align=center;" edge="1" parent="1">
            <mxGeometry relative="1" as="geometry">
              <mxPoint as="offset" />
              <Array as="points" />
              <mxPoint x="640" y="420" as="sourcePoint" />
              <mxPoint x="190" y="420" as="targetPoint" />
            </mxGeometry>
          </mxCell>
        </UserObject>
        <UserObject label="&lt;div style=&quot;font-size: 1px&quot;&gt;&lt;font style=&quot;font-size:11.29px;font-family:Calibri;color:#3a5821;direction:ltr;letter-spacing:0px;line-height:120%;opacity:1&quot;&gt;Display friend referral link&amp;nbsp;&lt;br&gt;&lt;/font&gt;&lt;/div&gt;" tags="Connector" id="iOcnktsqjYH6YcgvmhpY-4">
          <mxCell style="vsdxID=1014;edgeStyle=none;dashed=1;startArrow=none;endArrow=open;startSize=2;endSize=7;strokeColor=#65993a;spacingTop=0;spacingBottom=0;spacingLeft=0;spacingRight=0;verticalAlign=middle;html=1;labelBackgroundColor=#ffffff;rounded=0;align=center;" edge="1" parent="1">
            <mxGeometry relative="1" as="geometry">
              <mxPoint as="offset" />
              <Array as="points" />
              <mxPoint x="640" y="450" as="sourcePoint" />
              <mxPoint x="190" y="450" as="targetPoint" />
            </mxGeometry>
          </mxCell>
        </UserObject>
        <UserObject label="&lt;div style=&quot;font-size: 1px&quot;&gt;&lt;font style=&quot;font-size:11.29px;font-family:Calibri;color:#3a5821;direction:ltr;letter-spacing:0px;line-height:120%;opacity:1&quot;&gt;Nofity User of Upcoming Deals&amp;nbsp;&lt;br&gt;&lt;/font&gt;&lt;/div&gt;" tags="Connector" id="iOcnktsqjYH6YcgvmhpY-5">
          <mxCell style="vsdxID=1014;edgeStyle=none;dashed=1;startArrow=none;endArrow=open;startSize=2;endSize=7;strokeColor=#65993a;spacingTop=0;spacingBottom=0;spacingLeft=0;spacingRight=0;verticalAlign=middle;html=1;labelBackgroundColor=#ffffff;rounded=0;align=center;" edge="1" parent="1">
            <mxGeometry relative="1" as="geometry">
              <mxPoint as="offset" />
              <Array as="points" />
              <mxPoint x="640" y="480" as="sourcePoint" />
              <mxPoint x="190" y="480" as="targetPoint" />
            </mxGeometry>
          </mxCell>
        </UserObject>
      </root>
    </mxGraphModel>
  </diagram>
</mxfile>
